<svg width="24" height="24" viewBox="0 0 24 24" fill="none" xmlns="http://www.w3.org/2000/svg">
<g clip-path="url(#clip0_1856_49890)">
<rect width="15.777" height="20" transform="translate(4 2)" fill="white"/>
<path d="M19.4415 22H4.33547C4.15294 22 4 21.852 4 21.6645V2.33547C4 2.148 4.148 2 4.33547 2H14.1135C14.2023 2 14.2861 2.03453 14.3503 2.09867L19.6833 7.43167C19.7474 7.49581 19.7819 7.57967 19.7819 7.66848V21.6645C19.7819 21.8471 19.6339 22 19.4465 22H19.4415ZM4.66601 21.334H19.111V7.80661L13.9704 2.66601H4.66601V21.3291V21.334Z" fill="#DE2431" stroke="#DE2431" stroke-width="0.6" stroke-linejoin="round"/>
<path d="M19.4414 7.99896H14.1084C13.9259 7.99896 13.7729 7.85096 13.7729 7.66349V2.33542C13.7729 2.20221 13.8519 2.07888 13.9802 2.02955C14.1035 1.97528 14.2466 2.00488 14.3452 2.10355L19.6782 7.43655C19.772 7.53029 19.8016 7.67335 19.7522 7.80162C19.7029 7.92496 19.5796 8.00883 19.4464 8.00883L19.4414 7.99896ZM14.4439 7.33295H18.6373L14.4439 3.13956V7.33295Z" fill="#DE2431" stroke="#DE2431" stroke-width="0.6"/>
<path d="M8.06499 18.971C7.89232 18.971 7.71965 18.9315 7.55685 18.8624C7.14738 18.6799 6.94511 18.3493 7.00924 17.9596C7.15725 17.0667 8.75073 15.9813 10.3048 15.414C10.6846 14.5457 11.0102 13.6429 11.2372 12.9423C10.655 12.0839 10.2554 11.4031 10.2061 11.2897C9.96928 10.7618 9.85088 9.75043 10.3097 9.15842C10.5021 8.91175 10.8672 8.64042 11.5282 8.75389C11.844 8.80815 12.0956 8.98082 12.2584 9.25216C12.8208 10.1944 12.1794 12.1777 12.0906 12.4391C12.0709 12.5131 12.0314 12.6513 11.9722 12.8387C12.4508 13.5195 13.0181 14.2793 13.5904 14.9354C14.9767 14.9058 16.2791 15.0736 16.659 15.6902C16.7872 15.9024 16.881 16.2527 16.5702 16.7411C16.3482 17.0963 16.0127 17.2689 15.618 17.2393C14.9471 17.19 14.1084 16.5043 13.2944 15.6113C12.8701 15.6261 12.3965 15.6557 11.8785 15.71C11.5332 15.7445 11.173 15.8284 10.808 15.9468C10.216 17.2295 9.46608 18.4628 8.6422 18.8476C8.45473 18.9364 8.26233 18.9808 8.06992 18.9808L8.06499 18.971ZM9.88048 16.3069C8.7162 16.8545 7.73939 17.634 7.67032 18.0632C7.66539 18.1076 7.65059 18.1717 7.83312 18.2507C8.00086 18.3247 8.16859 18.3197 8.361 18.2309C8.88394 17.9892 9.41181 17.2245 9.88542 16.302L9.88048 16.3069ZM14.2071 15.6014C14.7596 16.1589 15.2826 16.5388 15.6624 16.5684C15.771 16.5733 15.8894 16.5585 16.0028 16.3809C16.1015 16.2231 16.1311 16.1096 16.0867 16.0356C15.9535 15.8185 15.322 15.636 14.2071 15.6014ZM11.7108 13.6231C11.5578 14.0721 11.3654 14.6049 11.1434 15.1525C11.3753 15.0982 11.5973 15.0588 11.8094 15.039C12.1104 15.0094 12.4212 14.9848 12.7369 14.965C12.3768 14.526 12.0265 14.0672 11.7108 13.6231ZM11.2322 9.38536C11.0004 9.38536 10.8918 9.4791 10.8326 9.55803C10.5761 9.8935 10.6501 10.6434 10.8129 11.0084C10.882 11.1614 11.1286 11.5807 11.4838 12.1185C11.7305 11.3538 11.9772 10.076 11.6812 9.5827C11.617 9.47416 11.5332 9.41989 11.4148 9.40016C11.3457 9.39029 11.2865 9.38536 11.2322 9.38536Z" fill="#DE2431" stroke="#DE2431" stroke-width="0.5"/>
</g>
<defs>
<clipPath id="clip0_1856_49890">
<rect width="15.777" height="20" fill="white" transform="translate(4 2)"/>
</clipPath>
</defs>
</svg>
