<svg width="24" height="24" viewBox="0 0 24 24" fill="none" xmlns="http://www.w3.org/2000/svg">
<g clip-path="url(#clip0_1856_49991)">
<rect width="15.7764" height="20" transform="translate(4 2)" fill="white"/>
<path d="M19.446 22H4.33545C4.15248 22 4 21.8526 4 21.6645V2.33545C4 2.15248 4.1474 2 4.33545 2H14.1144C14.2008 2 14.2872 2.03558 14.3482 2.09657L19.6798 7.42821C19.7408 7.4892 19.7764 7.5756 19.7764 7.66201V21.6595C19.7764 21.8424 19.629 21.9949 19.4409 21.9949L19.446 22ZM4.6709 21.3342H19.1156V7.80432L13.972 2.66582H4.66582V21.3342H4.6709Z" fill="#1D4676" stroke="#1D4676" stroke-width="0.5"/>
<path d="M19.4459 7.99751H14.1143C13.9313 7.99751 13.7788 7.85011 13.7788 7.66206V2.3355C13.7788 2.19827 13.8601 2.08137 13.9821 2.02546C14.1041 1.97464 14.2515 2.00513 14.343 2.09662L19.6746 7.42826C19.7712 7.52483 19.7966 7.66714 19.7458 7.78912C19.6949 7.91619 19.573 7.99242 19.4357 7.99242L19.4459 7.99751ZM14.4446 7.33169H18.6378L14.4446 3.13855V7.33169Z" fill="#1D4676" stroke="#1D4676" stroke-width="0.5"/>
</g>
<defs>
<clipPath id="clip0_1856_49991">
<rect width="15.7764" height="20" fill="white" transform="translate(4 2)"/>
</clipPath>
</defs>
</svg>
