<svg width="24" height="24" viewBox="0 0 24 24" fill="none" xmlns="http://www.w3.org/2000/svg">
<g clip-path="url(#clip0_1079_17403)">
<path d="M19.446 22H4.33545C4.15248 22 4 21.8526 4 21.6645V2.33545C4 2.15248 4.1474 2 4.33545 2H14.1144C14.2008 2 14.2872 2.03558 14.3482 2.09657L19.6798 7.42821C19.7408 7.4892 19.7764 7.5756 19.7764 7.66201V21.6595C19.7764 21.8424 19.629 21.9949 19.4409 21.9949L19.446 22ZM4.6709 21.3342H19.1156V7.80432L13.972 2.66582H4.66582V21.3342H4.6709Z" fill="#FFFFFF" stroke="#FFFFFF" stroke-width="0.5"/>
<path d="M19.446 7.99745H14.1144C13.9314 7.99745 13.7789 7.85005 13.7789 7.662V2.33544C13.7789 2.19821 13.8602 2.08131 13.9822 2.0254C14.1093 1.97457 14.2516 2.00507 14.3431 2.09656L19.6747 7.4282C19.7713 7.52477 19.7967 7.66708 19.7459 7.78906C19.695 7.91612 19.5731 7.99236 19.4358 7.99236L19.446 7.99745ZM14.4447 7.33163H18.6379L14.4447 3.13849V7.33163Z" fill="#FFFFFF" stroke="#FFFFFF" stroke-width="0.5"/>
<path d="M10.6277 18.7217C10.5921 18.7217 10.5565 18.7166 10.521 18.7014C10.3482 18.6404 10.2516 18.4523 10.3126 18.2795L12.8285 10.8742C12.8895 10.7014 13.0775 10.6048 13.2503 10.6658C13.4231 10.7268 13.5197 10.9149 13.4587 11.0877L10.9428 18.493C10.8971 18.6302 10.7649 18.7166 10.6277 18.7166V18.7217Z" fill="#FFFFFF" stroke="#FFFFFF" stroke-width="0.5"/>
<path d="M9.21982 17.3138C9.13342 17.3138 9.04701 17.2833 8.98602 17.2173L6.65311 14.8844C6.52097 14.7522 6.52097 14.5438 6.65311 14.4117L9.06226 12.0025C9.19441 11.8704 9.4028 11.8704 9.53494 12.0025C9.66709 12.1347 9.66709 12.3431 9.53494 12.4752L7.36468 14.6455L9.46379 16.7446C9.59593 16.8767 9.59593 17.0851 9.46379 17.2173C9.39771 17.2833 9.31131 17.3138 9.22999 17.3138H9.21982Z" fill="#FFFFFF" stroke="#FFFFFF" stroke-width="0.5"/>
<path d="M14.5565 17.3138C14.4701 17.3138 14.3837 17.2833 14.3227 17.2173C14.1906 17.0851 14.1906 16.8767 14.3227 16.7446L16.4219 14.6455L14.2516 12.4752C14.1194 12.3431 14.1194 12.1347 14.2516 12.0025C14.3837 11.8704 14.5921 11.8704 14.7243 12.0025L17.1334 14.4117C17.2656 14.5438 17.2656 14.7522 17.1334 14.8844L14.8005 17.2173C14.7344 17.2833 14.648 17.3138 14.5667 17.3138H14.5565Z" fill="#FFFFFF" stroke="#FFFFFF" stroke-width="0.5"/>
</g>
<defs>
<clipPath id="clip0_1079_17403">
<rect width="15.7764" height="20" fill="white" transform="translate(4 2)"/>
</clipPath>
</defs>
</svg>
