<svg width="24" height="24" viewBox="0 0 24 24" fill="none" xmlns="http://www.w3.org/2000/svg">
<g clip-path="url(#clip0_1079_17377)">
<path d="M19.446 22H4.33545C4.15248 22 4 21.8526 4 21.6645V2.33545C4 2.1474 4.1474 2 4.33545 2H14.1144C14.2008 2 14.2872 2.03558 14.3482 2.09657L19.6798 7.42821C19.7408 7.4892 19.7764 7.5756 19.7764 7.66201V21.6595C19.7764 21.8424 19.629 21.9949 19.4409 21.9949L19.446 22ZM4.6709 21.3342H19.1156V7.80432L13.972 2.66582H4.66582V21.3342H4.6709Z" fill="#1D4676" stroke="#1D4676" stroke-width="0.5"/>
<path d="M19.446 7.99747H14.1144C13.9314 7.99747 13.7789 7.85007 13.7789 7.66202V2.33546C13.7789 2.19823 13.8602 2.08133 13.9822 2.02542C14.1093 1.9746 14.2516 2.00001 14.3431 2.09658L19.6747 7.42822C19.7713 7.52479 19.7967 7.6671 19.7459 7.78908C19.695 7.91615 19.5731 7.99238 19.4358 7.99238L19.446 7.99747ZM14.4447 7.33165H18.6379L14.4447 3.13851V7.33165Z" fill="#1D4676" stroke="#1D4676" stroke-width="0.5"/>
<path d="M6.66836 3.88055C6.48539 3.88055 6.33291 3.73315 6.33291 3.5451V2.65564C6.33291 2.47267 6.48031 2.32019 6.66836 2.32019C6.85642 2.32019 7.00381 2.46759 7.00381 2.65564V3.5451C7.00381 3.72807 6.85642 3.88055 6.66836 3.88055Z" fill="#1D4676" stroke="#1D4676" stroke-width="0.5"/>
<path d="M6.66836 19.0673C6.48539 19.0673 6.33291 18.9199 6.33291 18.7319V16.831C6.33291 16.648 6.48031 16.4955 6.66836 16.4955C6.85642 16.4955 7.00381 16.6429 7.00381 16.831V18.7319C7.00381 18.9148 6.85642 19.0673 6.66836 19.0673ZM6.66836 15.2706C6.48539 15.2706 6.33291 15.1232 6.33291 14.9352V13.0343C6.33291 12.8513 6.48031 12.6988 6.66836 12.6988C6.85642 12.6988 7.00381 12.8462 7.00381 13.0343V14.9352C7.00381 15.1181 6.85642 15.2706 6.66836 15.2706ZM6.66836 11.4739C6.48539 11.4739 6.33291 11.3265 6.33291 11.1385V9.23759C6.33291 9.05461 6.48031 8.90213 6.66836 8.90213C6.85642 8.90213 7.00381 9.04953 7.00381 9.23759V11.1385C7.00381 11.3214 6.85642 11.4739 6.66836 11.4739ZM6.66836 7.67723C6.48539 7.67723 6.33291 7.52983 6.33291 7.34178V5.44089C6.33291 5.25792 6.48031 5.10544 6.66836 5.10544C6.85642 5.10544 7.00381 5.25283 7.00381 5.44089V7.34178C7.00381 7.52475 6.85642 7.67723 6.66836 7.67723Z" fill="#1D4676" stroke="#1D4676" stroke-width="0.5"/>
<path d="M6.66836 21.8577C6.48539 21.8577 6.33291 21.7103 6.33291 21.5222V20.6328C6.33291 20.4498 6.48031 20.2973 6.66836 20.2973C6.85642 20.2973 7.00381 20.4447 7.00381 20.6328V21.5222C7.00381 21.7052 6.85642 21.8577 6.66836 21.8577Z" fill="#1D4676" stroke="#1D4676" stroke-width="0.5"/>
<path d="M17.108 9.01397C16.925 9.01397 16.7726 8.86657 16.7726 8.67852V7.78906C16.7726 7.60609 16.92 7.45361 17.108 7.45361C17.2961 7.45361 17.4435 7.60101 17.4435 7.78906V8.67852C17.4435 8.86149 17.2961 9.01397 17.108 9.01397Z" fill="#1D4676" stroke="#1D4676" stroke-width="0.5"/>
<path d="M17.108 19.1639C16.925 19.1639 16.7726 19.0165 16.7726 18.8285V17.136C16.7726 16.953 16.92 16.8005 17.108 16.8005C17.2961 16.8005 17.4435 16.9479 17.4435 17.136V18.8285C17.4435 19.0114 17.2961 19.1639 17.108 19.1639ZM17.108 15.7789C16.925 15.7789 16.7726 15.6315 16.7726 15.4434V13.7509C16.7726 13.568 16.92 13.4155 17.108 13.4155C17.2961 13.4155 17.4435 13.5629 17.4435 13.7509V15.4434C17.4435 15.6264 17.2961 15.7789 17.108 15.7789ZM17.108 12.3939C16.925 12.3939 16.7726 12.2465 16.7726 12.0584V10.3659C16.7726 10.183 16.92 10.0305 17.108 10.0305C17.2961 10.0305 17.4435 10.1779 17.4435 10.3659V12.0584C17.4435 12.2414 17.2961 12.3939 17.108 12.3939Z" fill="#1D4676" stroke="#1D4676" stroke-width="0.5"/>
<path d="M17.108 21.7459C16.925 21.7459 16.7726 21.5985 16.7726 21.4104V20.521C16.7726 20.338 16.92 20.1855 17.108 20.1855C17.2961 20.1855 17.4435 20.3329 17.4435 20.521V21.4104C17.4435 21.5934 17.2961 21.7459 17.108 21.7459Z" fill="#1D4676" stroke="#1D4676" stroke-width="0.5"/>
<path d="M10.2516 15.723C10.1906 15.723 10.1296 15.7077 10.0788 15.6722C9.97713 15.6112 9.92122 15.4993 9.92122 15.3824L9.98221 11.2706C9.98221 11.1486 10.0534 11.0368 10.1601 10.9809C10.2668 10.925 10.399 10.9301 10.5006 11.0013L13.8907 13.3291C13.9873 13.3952 14.0432 13.507 14.033 13.6239C14.028 13.7408 13.9568 13.8475 13.8551 13.8983L10.4041 15.6874C10.3583 15.7128 10.3024 15.723 10.2516 15.723ZM10.6379 11.906L10.5921 14.8386L13.0572 13.5629L10.6379 11.906Z" fill="#1D4676" stroke="#1D4676" stroke-width="0.5"/>
</g>
<defs>
<clipPath id="clip0_1079_17377">
<rect width="15.7764" height="20" fill="white" transform="translate(4 2)"/>
</clipPath>
</defs>
</svg>
