<svg width="24" height="24" viewBox="0 0 24 24" fill="none" xmlns="http://www.w3.org/2000/svg">
<g clip-path="url(#clip0_1079_17350)">
<path d="M19.446 22H4.33545C4.15248 22 4 21.8526 4 21.6645V2.33545C4 2.1474 4.1474 2 4.33545 2H14.1144C14.2008 2 14.2872 2.03558 14.3482 2.09657L19.6798 7.42821C19.7408 7.4892 19.7764 7.5756 19.7764 7.66201V21.6595C19.7764 21.8424 19.629 21.9949 19.4409 21.9949L19.446 22ZM4.6709 21.3342H19.1156V7.80432L13.972 2.66582H4.66582V21.3342H4.6709Z" fill="#1D4676" stroke="#1D4676" stroke-width="0.5"/>
<path d="M19.446 7.99747H14.1144C13.9314 7.99747 13.7789 7.85007 13.7789 7.66202V2.33546C13.7789 2.19823 13.8602 2.08133 13.9822 2.02542C14.1042 1.9746 14.2516 2.00001 14.3431 2.09658L19.6747 7.42822C19.7713 7.52479 19.7967 7.6671 19.7459 7.78908C19.695 7.91615 19.5731 7.99238 19.4358 7.99238L19.446 7.99747ZM14.4447 7.33165H18.6379L14.4447 3.13851V7.33165Z" fill="#1D4676" stroke="#1D4676" stroke-width="0.5"/>
<path d="M12.1118 8.33799H7.22236C7.03939 8.33799 6.88691 8.19059 6.88691 8.00254C6.88691 7.81448 7.03431 7.66708 7.22236 7.66708H12.1118C12.2948 7.66708 12.4473 7.81448 12.4473 8.00254C12.4473 8.19059 12.2999 8.33799 12.1118 8.33799Z" fill="#1D4676" stroke="#1D4676" stroke-width="0.5"/>
<path d="M16.554 11.6722H7.22236C7.03939 11.6722 6.88691 11.5248 6.88691 11.3367C6.88691 11.1486 7.03431 11.0013 7.22236 11.0013H16.554C16.737 11.0013 16.8895 11.1486 16.8895 11.3367C16.8895 11.5248 16.7421 11.6722 16.554 11.6722Z" fill="#1D4676" stroke="#1D4676" stroke-width="0.5"/>
<path d="M16.554 15.0013H7.22236C7.03939 15.0013 6.88691 14.8539 6.88691 14.6658C6.88691 14.4777 7.03431 14.3304 7.22236 14.3304H16.554C16.737 14.3304 16.8895 14.4777 16.8895 14.6658C16.8895 14.8539 16.7421 15.0013 16.554 15.0013Z" fill="#1D4676" stroke="#1D4676" stroke-width="0.5"/>
<path d="M16.554 18.3355H7.22236C7.03939 18.3355 6.88691 18.1881 6.88691 18C6.88691 17.8119 7.03431 17.6646 7.22236 17.6646H16.554C16.737 17.6646 16.8895 17.8119 16.8895 18C16.8895 18.1881 16.7421 18.3355 16.554 18.3355Z" fill="#1D4676" stroke="#1D4676" stroke-width="0.5"/>
</g>
<defs>
<clipPath id="clip0_1079_17350">
<rect width="15.7764" height="20" fill="white" transform="translate(4 2)"/>
</clipPath>
</defs>
</svg>
