<svg width="24" height="24" viewBox="0 0 24 24" fill="none" xmlns="http://www.w3.org/2000/svg">
<g clip-path="url(#clip0_1079_17448)">
<path d="M19.446 22H4.33545C4.15248 22 4 21.8526 4 21.6645V2.33545C4 2.15248 4.1474 2 4.33545 2H14.1144C14.2008 2 14.2872 2.03558 14.3482 2.09657L19.6798 7.42821C19.7408 7.4892 19.7764 7.5756 19.7764 7.66201V21.6595C19.7764 21.8424 19.629 21.9949 19.4409 21.9949L19.446 22ZM4.6709 21.3342H19.1156V7.80432L13.972 2.66582H4.66582V21.3342H4.6709Z" fill="#1D4676" stroke="#1D4676" stroke-width="0.5"/>
<path d="M19.446 7.99745H14.1144C13.9314 7.99745 13.7789 7.85005 13.7789 7.662V2.33544C13.7789 2.19821 13.8602 2.08131 13.9822 2.0254C14.1042 1.97457 14.2516 2.00507 14.3431 2.09656L19.6747 7.4282C19.7713 7.52477 19.7967 7.66708 19.7459 7.78906C19.695 7.91612 19.5731 7.99236 19.4358 7.99236L19.446 7.99745ZM14.4447 7.33163H18.6379L14.4447 3.13849V7.33163Z" fill="#1D4676" stroke="#1D4676" stroke-width="0.5"/>
<path d="M11.8882 17.5375C10.3177 17.5375 9.03685 16.2567 9.03685 14.6862V12.0178C9.03685 11.8348 9.18424 11.6823 9.3723 11.6823C9.56036 11.6823 9.70775 11.8297 9.70775 12.0178V14.6862C9.70775 15.8907 10.6887 16.8717 11.8933 16.8717C13.0978 16.8717 14.0788 15.8907 14.0788 14.6862V12.0178C14.0788 11.8348 14.2262 11.6823 14.4142 11.6823C14.6023 11.6823 14.7497 11.8297 14.7497 12.0178V14.6862C14.7497 16.2567 13.4689 17.5375 11.8983 17.5375H11.8882Z" fill="#1D4676" stroke="#1D4676" stroke-width="0.5"/>
<path d="M11.8882 15.0216C11.7052 15.0216 11.5527 14.8742 11.5527 14.6862V10.9098C11.5527 10.4015 11.136 9.98476 10.6277 9.98476C10.1194 9.98476 9.70267 10.4015 9.70267 10.9098V14.6862C9.70267 14.8691 9.55527 15.0216 9.36722 15.0216C9.17916 15.0216 9.03177 14.8742 9.03177 14.6862V10.9098C9.03177 10.0305 9.74841 9.31894 10.6226 9.31894C11.4968 9.31894 12.2135 10.0356 12.2135 10.9098V14.6862C12.2135 14.8691 12.0661 15.0216 11.878 15.0216H11.8882Z" fill="#1D4676" stroke="#1D4676" stroke-width="0.5"/>
</g>
<defs>
<clipPath id="clip0_1079_17448">
<rect width="15.7764" height="20" fill="white" transform="translate(4 2)"/>
</clipPath>
</defs>
</svg>
