<svg width="24" height="24" viewBox="0 0 24 24" fill="none" xmlns="http://www.w3.org/2000/svg">
<g clip-path="url(#clip0_17_866)">
<path d="M19.4415 22H4.33547C4.15294 22 4 21.852 4 21.6645V2.33547C4 2.148 4.148 2 4.33547 2H14.1135C14.2023 2 14.2861 2.03453 14.3503 2.09867L19.6833 7.43167C19.7474 7.49581 19.7819 7.57967 19.7819 7.66848V21.6645C19.7819 21.8471 19.6339 22 19.4465 22H19.4415ZM4.66601 21.334H19.111V7.80661L13.9704 2.66601H4.66601V21.3291V21.334Z" fill="#FFFFFF" stroke="#FFFFFF" stroke-width="0.6" stroke-linejoin="round"/>
<path d="M19.4415 7.99902H14.1085C13.926 7.99902 13.7731 7.85102 13.7731 7.66355V2.33548C13.7731 2.20228 13.852 2.07894 13.9803 2.02961C14.1036 1.97534 14.2467 2.00494 14.3453 2.10361L19.6783 7.43661C19.7721 7.53035 19.8017 7.67342 19.7523 7.80168C19.703 7.92502 19.5797 8.00889 19.4465 8.00889L19.4415 7.99902ZM14.444 7.33301H18.6374L14.444 3.13962V7.33301Z" fill="#FFFFFF" stroke="#FFFFFF" stroke-width="0.6"/>
<path d="M8.06512 18.9709C7.89245 18.9709 7.71978 18.9314 7.55698 18.8624C7.14751 18.6798 6.94524 18.3493 7.00937 17.9595C7.15738 17.0666 8.75086 15.9813 10.3049 15.4139C10.6848 14.5456 11.0104 13.6428 11.2373 12.9423C10.6552 12.0839 10.2555 11.4031 10.2062 11.2896C9.96941 10.7617 9.85101 9.75037 10.3098 9.15836C10.5022 8.91169 10.8673 8.64036 11.5284 8.75382C11.8441 8.80809 12.0957 8.98076 12.2585 9.2521C12.8209 10.1944 12.1796 12.1776 12.0908 12.4391C12.071 12.5131 12.0316 12.6512 11.9724 12.8387C12.4509 13.5195 13.0183 14.2792 13.5905 14.9354C14.9768 14.9058 16.2792 15.0735 16.6591 15.6902C16.7874 15.9023 16.8811 16.2526 16.5703 16.741C16.3483 17.0962 16.0128 17.2689 15.6182 17.2393C14.9472 17.1899 14.1085 16.5042 13.2945 15.6112C12.8703 15.626 12.3966 15.6557 11.8786 15.7099C11.5333 15.7445 11.1732 15.8283 10.8081 15.9467C10.2161 17.2294 9.46621 18.4628 8.64233 18.8476C8.45486 18.9364 8.26246 18.9808 8.07005 18.9808L8.06512 18.9709ZM9.88061 16.3069C8.71633 16.8545 7.73952 17.6339 7.67045 18.0631C7.66552 18.1075 7.65072 18.1717 7.83325 18.2506C8.00099 18.3246 8.16872 18.3197 8.36112 18.2309C8.88407 17.9891 9.41194 17.2245 9.88555 16.3019L9.88061 16.3069ZM14.2072 15.6014C14.7597 16.1589 15.2827 16.5387 15.6626 16.5683C15.7711 16.5733 15.8895 16.5585 16.003 16.3809C16.1016 16.223 16.1312 16.1095 16.0868 16.0355C15.9536 15.8185 15.3222 15.6359 14.2072 15.6014ZM11.7109 13.6231C11.558 14.072 11.3656 14.6048 11.1436 15.1524C11.3754 15.0982 11.5974 15.0587 11.8096 15.039C12.1105 15.0094 12.4213 14.9847 12.737 14.965C12.3769 14.5259 12.0266 14.0671 11.7109 13.6231ZM11.2324 9.3853C11.0005 9.3853 10.892 9.47903 10.8328 9.55797C10.5762 9.89344 10.6502 10.6433 10.813 11.0084C10.8821 11.1613 11.1288 11.5807 11.484 12.1184C11.7306 11.3537 11.9773 10.076 11.6813 9.58264C11.6172 9.4741 11.5333 9.41983 11.4149 9.4001C11.3458 9.39023 11.2866 9.3853 11.2324 9.3853Z" fill="#FFFFFF" stroke="#FFFFFF" stroke-width="0.5"/>
</g>
<defs>
<clipPath id="clip0_17_866">
<rect width="15.777" height="20" fill="white" transform="translate(4 2)"/>
</clipPath>
</defs>
</svg>
