<svg width="24" height="24" viewBox="0 0 24 24" fill="none" xmlns="http://www.w3.org/2000/svg">
<g clip-path="url(#clip0_1856_49924)">
<rect width="15.7764" height="20" transform="translate(4 2)" fill="white"/>
<path d="M19.446 22H4.33545C4.15248 22 4 21.8526 4 21.6645V2.33545C4 2.1474 4.1474 2 4.33545 2H14.1144C14.2008 2 14.2872 2.03558 14.3482 2.09657L19.6798 7.42821C19.7408 7.4892 19.7764 7.5756 19.7764 7.66201V21.6595C19.7764 21.8424 19.629 21.9949 19.4409 21.9949L19.446 22ZM4.6709 21.3342H19.1156V7.80432L13.972 2.66582H4.66582V21.3342H4.6709Z" fill="#1D4676" stroke="#1D4676" stroke-width="0.5"/>
<path d="M19.4459 7.99741H14.1143C13.9313 7.99741 13.7788 7.85001 13.7788 7.66196V2.3354C13.7788 2.19817 13.8601 2.08127 13.9821 2.02536C14.1041 1.97453 14.2515 1.99995 14.343 2.09652L19.6746 7.42816C19.7712 7.52473 19.7966 7.66704 19.7458 7.78902C19.6949 7.91609 19.573 7.99232 19.4357 7.99232L19.4459 7.99741ZM14.4446 7.33159H18.6378L14.4446 3.13845V7.33159Z" fill="#1D4676" stroke="#1D4676" stroke-width="0.5"/>
<path d="M9.61121 12.0433C8.40155 12.0433 7.41553 11.0471 7.41553 9.82217C7.41553 8.59726 8.40155 7.60107 9.61121 7.60107C10.8209 7.60107 11.8069 8.59726 11.8069 9.82217C11.8069 11.0471 10.8209 12.0433 9.61121 12.0433ZM9.61121 8.26689C8.7675 8.26689 8.08643 8.96321 8.08643 9.82217C8.08643 10.6811 8.77258 11.3774 9.61121 11.3774C10.4498 11.3774 11.136 10.6811 11.136 9.82217C11.136 8.96321 10.4498 8.26689 9.61121 8.26689Z" fill="#1D4676" stroke="#1D4676" stroke-width="0.5"/>
<path d="M4.46268 20.4854C4.38136 20.4854 4.30004 20.4549 4.23397 20.3939C4.10182 20.2668 4.09166 20.0585 4.21872 19.9212L8.4881 15.3672C8.51859 15.3317 9.3928 14.3507 10.6279 14.3151C11.3648 14.2948 12.0561 14.6099 12.6863 15.2503C12.8134 15.3825 12.8134 15.5909 12.6863 15.723C12.5542 15.8501 12.3458 15.8501 12.2136 15.723C11.7206 15.2198 11.192 14.9708 10.6533 14.986C9.713 15.0114 8.99127 15.8094 8.98111 15.8196L4.70665 20.3787C4.64058 20.4498 4.55417 20.4854 4.46268 20.4854Z" fill="#1D4676" stroke="#1D4676" stroke-width="0.5"/>
<path d="M10.948 17.8527C10.8667 17.8527 10.7853 17.8222 10.7244 17.7663C10.5871 17.6443 10.577 17.4309 10.704 17.2936L14.2923 13.3699C14.3228 13.3343 15.2021 12.3483 16.4372 12.3127C17.1742 12.2924 17.8654 12.6075 18.4956 13.2479L19.3953 14.2339C19.5172 14.3711 19.5122 14.5795 19.3749 14.7066C19.2377 14.8286 19.0293 14.8235 18.9022 14.6863L18.0077 13.7053C17.5198 13.2123 17.0064 12.9531 16.4524 12.9785C15.5071 13.0039 14.7904 13.8019 14.7853 13.8121L11.1919 17.7409C11.1259 17.8121 11.0344 17.8476 10.948 17.8476V17.8527Z" fill="#1D4676" stroke="#1D4676" stroke-width="0.5"/>
</g>
<defs>
<clipPath id="clip0_1856_49924">
<rect width="15.7764" height="20" fill="white" transform="translate(4 2)"/>
</clipPath>
</defs>
</svg>
