<svg width="24" height="24" viewBox="0 0 24 24" fill="none" xmlns="http://www.w3.org/2000/svg">
<g clip-path="url(#clip0_1079_17332)">
<path d="M19.446 22H4.33545C4.15248 22 4 21.8526 4 21.6645V2.33545C4 2.1474 4.1474 2 4.33545 2H14.1144C14.2008 2 14.2872 2.03558 14.3482 2.09657L19.6798 7.42821C19.7408 7.4892 19.7764 7.5756 19.7764 7.66201V21.6595C19.7764 21.8424 19.629 21.9949 19.4409 21.9949L19.446 22ZM4.6709 21.3342H19.1156V7.80432L13.972 2.66582H4.66582V21.3342H4.6709Z" fill="#1D4676" stroke="#1D4676" stroke-width="0.5"/>
<path d="M19.446 7.99747H14.1144C13.9314 7.99747 13.7789 7.85007 13.7789 7.66202V2.33546C13.7789 2.19823 13.8602 2.08133 13.9822 2.02542C14.1042 1.9746 14.2516 2.00001 14.3431 2.09658L19.6747 7.42822C19.7713 7.52479 19.7967 7.6671 19.7459 7.78908C19.695 7.91615 19.5731 7.99238 19.4358 7.99238L19.446 7.99747ZM14.4447 7.33165H18.6379L14.4447 3.13851V7.33165Z" fill="#1D4676" stroke="#1D4676" stroke-width="0.5"/>
<path d="M9.61118 12.0432C8.40153 12.0432 7.4155 11.047 7.4155 9.82211C7.4155 8.5972 8.40153 7.60101 9.61118 7.60101C10.8208 7.60101 11.8069 8.5972 11.8069 9.82211C11.8069 11.047 10.8208 12.0432 9.61118 12.0432ZM9.61118 8.26683C8.76747 8.26683 8.0864 8.96315 8.0864 9.82211C8.0864 10.6811 8.77255 11.3774 9.61118 11.3774C10.4498 11.3774 11.136 10.6811 11.136 9.82211C11.136 8.96315 10.4498 8.26683 9.61118 8.26683Z" fill="#1D4676" stroke="#1D4676" stroke-width="0.5"/>
<path d="M4.46252 20.4854C4.38119 20.4854 4.29987 20.4549 4.2338 20.3939C4.10165 20.2668 4.09149 20.0584 4.21855 19.9212L8.48793 15.3672C8.51842 15.3316 9.39263 14.3507 10.6277 14.3151C11.3647 14.2948 12.0559 14.6099 12.6862 15.2503C12.8132 15.3824 12.8132 15.5908 12.6862 15.723C12.554 15.85 12.3456 15.85 12.2135 15.723C11.7205 15.2198 11.1919 14.9708 10.6531 14.986C9.71283 15.0114 8.99111 15.8094 8.98094 15.8196L4.70648 20.3786C4.64041 20.4498 4.554 20.4854 4.46252 20.4854Z" fill="#1D4676" stroke="#1D4676" stroke-width="0.5"/>
<path d="M10.9479 17.8526C10.8666 17.8526 10.7853 17.8221 10.7243 17.7662C10.587 17.6442 10.5769 17.4307 10.7039 17.2935L14.2922 13.3697C14.3227 13.3342 15.202 12.3481 16.4371 12.3126C17.1741 12.2922 17.8653 12.6074 18.4956 13.2478L19.3952 14.2338C19.5172 14.371 19.5121 14.5794 19.3748 14.7065C19.2376 14.8285 19.0292 14.8234 18.9022 14.6861L18.0076 13.7052C17.5197 13.2122 17.0064 12.953 16.4524 12.9784C15.507 13.0038 14.7903 13.8018 14.7853 13.8119L11.1919 17.7408C11.1258 17.8119 11.0343 17.8475 10.9479 17.8475V17.8526Z" fill="#1D4676" stroke="#1D4676" stroke-width="0.5"/>
</g>
<defs>
<clipPath id="clip0_1079_17332">
<rect width="15.7764" height="20" fill="white" transform="translate(4 2)"/>
</clipPath>
</defs>
</svg>
