<svg width="24" height="24" viewBox="0 0 24 24" fill="none" xmlns="http://www.w3.org/2000/svg">
<g clip-path="url(#clip0_1856_49897)">
<rect width="15.7764" height="20" transform="translate(4 2)" fill="white"/>
<path d="M19.446 22H4.33545C4.15248 22 4 21.8526 4 21.6645V2.33545C4 2.1474 4.1474 2 4.33545 2H14.1144C14.2008 2 14.2872 2.03558 14.3482 2.09657L19.6798 7.42821C19.7408 7.4892 19.7764 7.5756 19.7764 7.66201V21.6595C19.7764 21.8424 19.629 21.9949 19.4409 21.9949L19.446 22ZM4.6709 21.3342H19.1156V7.80432L13.972 2.66582H4.66582V21.3342H4.6709Z" fill="#EF6224" stroke="#EF6224" stroke-width="0.5" stroke-linejoin="round"/>
<path d="M19.4459 7.99741H14.1143C13.9313 7.99741 13.7788 7.85001 13.7788 7.66196V2.3354C13.7788 2.19817 13.8601 2.08127 13.9821 2.02536C14.1092 1.97453 14.2515 1.99995 14.343 2.09652L19.6746 7.42816C19.7712 7.52473 19.7966 7.66704 19.7458 7.78902C19.6949 7.91609 19.573 7.99232 19.4357 7.99232L19.4459 7.99741ZM14.4446 7.33159H18.6378L14.4446 3.13845V7.33159Z" fill="#EF6224" stroke="#EF6224" stroke-width="0.5" stroke-linejoin="round"/>
<path d="M9.92627 17.6291C9.7433 17.6291 9.59082 17.4817 9.59082 17.2936V11.6621C9.59082 11.4791 9.73822 11.3267 9.92627 11.3267C10.1143 11.3267 10.2617 11.4741 10.2617 11.6621V17.2936C10.2617 17.4766 10.1143 17.6291 9.92627 17.6291Z" fill="#EF6224" stroke="#EF6224" stroke-width="0.5" stroke-linejoin="round"/>
<path d="M12.1474 15.4079H9.92627C9.7433 15.4079 9.59082 15.2605 9.59082 15.0725C9.59082 14.8844 9.73822 14.737 9.92627 14.737H12.1474C12.9047 14.737 13.5197 14.122 13.5197 13.3647C13.5197 12.6074 12.9047 11.9924 12.1474 11.9924H9.92627C9.7433 11.9924 9.59082 11.845 9.59082 11.657C9.59082 11.4689 9.73822 11.3215 9.92627 11.3215H12.1474C13.2706 11.3215 14.1855 12.2364 14.1855 13.3597C14.1855 14.4829 13.2706 15.3978 12.1474 15.3978V15.4079Z" fill="#EF6224" stroke="#EF6224" stroke-width="0.5" stroke-linejoin="round"/>
</g>
<defs>
<clipPath id="clip0_1856_49897">
<rect width="15.7764" height="20" fill="white" transform="translate(4 2)"/>
</clipPath>
</defs>
</svg>
