<svg width="24" height="24" viewBox="0 0 24 24" fill="none" xmlns="http://www.w3.org/2000/svg">
<g clip-path="url(#clip0_1856_49961)">
<rect width="15.7764" height="20" transform="translate(4 2)" fill="white"/>
<path d="M19.446 22H4.33545C4.15248 22 4 21.8526 4 21.6645V2.33545C4 2.15248 4.1474 2 4.33545 2H14.1144C14.2008 2 14.2872 2.03558 14.3482 2.09657L19.6798 7.42821C19.7408 7.4892 19.7764 7.5756 19.7764 7.66201V21.6595C19.7764 21.8424 19.629 21.9949 19.4409 21.9949L19.446 22ZM4.6709 21.3342H19.1156V7.80432L13.972 2.66582H4.66582V21.3342H4.6709Z" fill="#1D4676" stroke="#1D4676" stroke-width="0.5"/>
<path d="M19.4459 7.99751H14.1143C13.9313 7.99751 13.7788 7.85011 13.7788 7.66206V2.3355C13.7788 2.19827 13.8601 2.08137 13.9821 2.02546C14.1092 1.97464 14.2515 2.00513 14.343 2.09662L19.6746 7.42826C19.7712 7.52483 19.7966 7.66714 19.7458 7.78912C19.6949 7.91619 19.573 7.99242 19.4357 7.99242L19.4459 7.99751ZM14.4446 7.33169H18.6378L14.4446 3.13855V7.33169Z" fill="#1D4676" stroke="#1D4676" stroke-width="0.5"/>
<path d="M10.6279 18.7217C10.5923 18.7217 10.5567 18.7166 10.5212 18.7014C10.3484 18.6404 10.2518 18.4523 10.3128 18.2795L12.8287 10.8742C12.8897 10.7014 13.0777 10.6048 13.2505 10.6658C13.4233 10.7268 13.5199 10.9149 13.4589 11.0877L10.943 18.493C10.8973 18.6302 10.7651 18.7166 10.6279 18.7166V18.7217Z" fill="#1D4676" stroke="#1D4676" stroke-width="0.5"/>
<path d="M9.22002 17.3137C9.13362 17.3137 9.04721 17.2832 8.98622 17.2172L6.65331 14.8843C6.52116 14.7521 6.52116 14.5437 6.65331 14.4116L9.06246 12.0024C9.19461 11.8703 9.40299 11.8703 9.53514 12.0024C9.66729 12.1346 9.66729 12.343 9.53514 12.4751L7.36487 14.6454L9.46398 16.7445C9.59613 16.8766 9.59613 17.085 9.46398 17.2172C9.39791 17.2832 9.31151 17.3137 9.23018 17.3137H9.22002Z" fill="#1D4676" stroke="#1D4676" stroke-width="0.5"/>
<path d="M14.5569 17.3137C14.4705 17.3137 14.3841 17.2832 14.3231 17.2172C14.191 17.085 14.191 16.8766 14.3231 16.7445L16.4222 14.6454L14.2519 12.4751C14.1198 12.343 14.1198 12.1346 14.2519 12.0024C14.3841 11.8703 14.5925 11.8703 14.7246 12.0024L17.1338 14.4116C17.2659 14.5437 17.2659 14.7521 17.1338 14.8843L14.8009 17.2172C14.7348 17.2832 14.6484 17.3137 14.5671 17.3137H14.5569Z" fill="#1D4676" stroke="#1D4676" stroke-width="0.5"/>
</g>
<defs>
<clipPath id="clip0_1856_49961">
<rect width="15.7764" height="20" fill="white" transform="translate(4 2)"/>
</clipPath>
</defs>
</svg>
