<svg width="24" height="24" viewBox="0 0 24 24" fill="none" xmlns="http://www.w3.org/2000/svg">
<g clip-path="url(#clip0_1079_17298)">
<path d="M19.446 22H4.33545C4.15248 22 4 21.8526 4 21.6645V2.33545C4 2.1474 4.1474 2 4.33545 2H14.1144C14.2008 2 14.2872 2.03558 14.3482 2.09657L19.6798 7.42821C19.7408 7.4892 19.7764 7.5756 19.7764 7.66201V21.6595C19.7764 21.8424 19.629 21.9949 19.4409 21.9949L19.446 22ZM4.6709 21.3342H19.1156V7.80432L13.972 2.66582H4.66582V21.3342H4.6709Z" fill="#FFFFFF" stroke="#FFFFFF" stroke-width="0.5"/>
<path d="M19.446 7.99747H14.1144C13.9314 7.99747 13.7789 7.85007 13.7789 7.66202V2.33546C13.7789 2.19823 13.8602 2.08133 13.9822 2.02542C14.1093 1.9746 14.2516 2.00001 14.3431 2.09658L19.6747 7.42822C19.7713 7.52479 19.7967 7.6671 19.7459 7.78908C19.695 7.91615 19.5731 7.99238 19.4358 7.99238L19.446 7.99747ZM14.4447 7.33165H18.6379L14.4447 3.13851V7.33165Z" fill="#FFFFFF" stroke="#FFFFFF" stroke-width="0.5"/>
<path d="M13.9619 17.4815C13.8653 17.4815 13.7687 17.4409 13.7027 17.3545L9.40788 11.9466C9.29098 11.8043 9.31639 11.5908 9.46379 11.479C9.61118 11.3672 9.81957 11.3875 9.93139 11.5349L14.2262 16.9428C14.3431 17.0851 14.3177 17.2986 14.1703 17.4104C14.1093 17.4612 14.0381 17.4815 13.9619 17.4815Z" fill="#FFFFFF" stroke="#FFFFFF" stroke-width="0.5"/>
<path d="M9.81449 17.4816C9.74333 17.4816 9.66709 17.4561 9.6061 17.4104C9.46379 17.2935 9.43837 17.0851 9.55019 16.9428L13.845 11.5349C13.9568 11.3926 14.1703 11.3672 14.3126 11.479C14.4549 11.5959 14.4803 11.8043 14.3685 11.9466L10.0737 17.3545C10.0076 17.4358 9.91105 17.4816 9.81449 17.4816Z" fill="#FFFFFF" stroke="#FFFFFF" stroke-width="0.5"/>
</g>
<defs>
<clipPath id="clip0_1079_17298">
<rect width="15.7764" height="20" fill="white" transform="translate(4 2)"/>
</clipPath>
</defs>
</svg>
