<svg width="24" height="24" viewBox="0 0 24 24" fill="none" xmlns="http://www.w3.org/2000/svg">
<g clip-path="url(#clip0_1856_49971)">
<rect width="15.7764" height="20" transform="translate(4 2)" fill="white"/>
<path d="M19.446 22H4.33545C4.15248 22 4 21.8526 4 21.6645V2.33545C4 2.15248 4.1474 2 4.33545 2H14.1144C14.2008 2 14.2872 2.03558 14.3482 2.09657L19.6798 7.42821C19.7408 7.4892 19.7764 7.5756 19.7764 7.66201V21.6595C19.7764 21.8424 19.629 21.9949 19.4409 21.9949L19.446 22ZM4.6709 21.3342H19.1156V7.80432L13.972 2.66582H4.66582V21.3342H4.6709Z" fill="#1D4676" stroke="#1D4676" stroke-width="0.5"/>
<path d="M19.4459 7.99751H14.1143C13.9313 7.99751 13.7788 7.85011 13.7788 7.66206V2.3355C13.7788 2.19827 13.8601 2.08137 13.9821 2.02546C14.1092 1.97464 14.2515 2.00513 14.343 2.09662L19.6746 7.42826C19.7712 7.52483 19.7966 7.66714 19.7458 7.78912C19.6949 7.91619 19.573 7.99242 19.4357 7.99242L19.4459 7.99751ZM14.4446 7.33169H18.6378L14.4446 3.13855V7.33169Z" fill="#1D4676" stroke="#1D4676" stroke-width="0.5"/>
<path d="M11.8169 4.81576C11.6339 4.81576 11.4814 4.66836 11.4814 4.48031V2.33545C11.4814 2.15248 11.6288 2 11.8169 2C12.005 2 12.1523 2.1474 12.1523 2.33545V4.48539C12.1523 4.66836 12.005 4.82084 11.8169 4.82084V4.81576Z" fill="#1D4676" stroke="#1D4676" stroke-width="0.5"/>
<path d="M11.8169 8.36845C11.6339 8.36845 11.4814 8.22105 11.4814 8.03299V5.88306C11.4814 5.70009 11.6288 5.54761 11.8169 5.54761C12.005 5.54761 12.1523 5.695 12.1523 5.88306V8.03299C12.1523 8.21597 12.005 8.36845 11.8169 8.36845Z" fill="#1D4676" stroke="#1D4676" stroke-width="0.5"/>
<path d="M11.8169 11.779C11.6339 11.779 11.4814 11.6316 11.4814 11.4436V9.59351C11.4814 9.41053 11.6288 9.25806 11.8169 9.25806C12.005 9.25806 12.1523 9.40545 12.1523 9.59351V11.4436C12.1523 11.6265 12.005 11.779 11.8169 11.779Z" fill="#1D4676" stroke="#1D4676" stroke-width="0.5"/>
<path d="M11.8882 16.8157C11.0089 16.8157 10.2974 16.0991 10.2974 15.2249V12.9275C10.2974 12.0482 11.014 11.3367 11.8882 11.3367C12.7624 11.3367 13.4791 12.0533 13.4791 12.9275V15.2249C13.4791 16.1041 12.7624 16.8157 11.8882 16.8157ZM11.8882 12.0025C11.38 12.0025 10.9632 12.4193 10.9632 12.9275V15.2249C10.9632 15.7331 11.38 16.1499 11.8882 16.1499C12.3965 16.1499 12.8132 15.7331 12.8132 15.2249V12.9275C12.8132 12.4193 12.3965 12.0025 11.8882 12.0025Z" fill="#1D4676" stroke="#1D4676" stroke-width="0.5"/>
</g>
<defs>
<clipPath id="clip0_1856_49971">
<rect width="15.7764" height="20" fill="white" transform="translate(4 2)"/>
</clipPath>
</defs>
</svg>
