<svg width="24" height="24" viewBox="0 0 24 24" fill="none" xmlns="http://www.w3.org/2000/svg">
<g clip-path="url(#clip0_1856_49906)">
<rect width="15.7764" height="20" transform="translate(4 2)" fill="white"/>
<path d="M19.446 22H4.33545C4.15248 22 4 21.8526 4 21.6645V2.33545C4 2.1474 4.1474 2 4.33545 2H14.1144C14.2008 2 14.2872 2.03558 14.3482 2.09657L19.6798 7.42821C19.7408 7.4892 19.7764 7.5756 19.7764 7.66201V21.6595C19.7764 21.8424 19.629 21.9949 19.4409 21.9949L19.446 22ZM4.6709 21.3342H19.1156V7.80432L13.972 2.66582H4.66582V21.3342H4.6709Z" fill="#45B871" stroke="#45B871" stroke-width="0.5"/>
<path d="M19.4459 7.99741H14.1143C13.9313 7.99741 13.7788 7.85001 13.7788 7.66196V2.3354C13.7788 2.19817 13.8601 2.08127 13.9821 2.02536C14.1092 1.97453 14.2515 1.99995 14.343 2.09652L19.6746 7.42816C19.7712 7.52473 19.7966 7.66704 19.7458 7.78902C19.6949 7.91609 19.573 7.99232 19.4357 7.99232L19.4459 7.99741ZM14.4446 7.33159H18.6378L14.4446 3.13845V7.33159Z" fill="#45B871" stroke="#45B871" stroke-width="0.5"/>
<path d="M13.962 17.4816C13.8654 17.4816 13.7688 17.4409 13.7028 17.3545L9.40797 11.9467C9.29107 11.8044 9.31648 11.5909 9.46387 11.4791C9.61127 11.3672 9.81966 11.3876 9.93147 11.535L14.2263 16.9429C14.3432 17.0852 14.3177 17.2986 14.1704 17.4105C14.1094 17.4613 14.0382 17.4816 13.962 17.4816Z" fill="#45B871" stroke="#45B871" stroke-width="0.5"/>
<path d="M9.81454 17.4815C9.74338 17.4815 9.66714 17.4561 9.60615 17.4103C9.46384 17.2934 9.43843 17.0851 9.55024 16.9427L13.845 11.5349C13.9569 11.3925 14.1703 11.3671 14.3126 11.479C14.4549 11.5959 14.4804 11.8042 14.3685 11.9466L10.0737 17.3544C10.0077 17.4358 9.91111 17.4815 9.81454 17.4815Z" fill="#45B871" stroke="#45B871" stroke-width="0.5"/>
</g>
<defs>
<clipPath id="clip0_1856_49906">
<rect width="15.7764" height="20" fill="white" transform="translate(4 2)"/>
</clipPath>
</defs>
</svg>
