<svg width="24" height="24" viewBox="0 0 24 24" fill="none" xmlns="http://www.w3.org/2000/svg">
<g clip-path="url(#clip0_1968_28847)">
<rect width="15.7764" height="20" transform="translate(4 2)" fill="white"/>
<path d="M19.446 22H4.33545C4.15248 22 4 21.8526 4 21.6645V2.33545C4 2.15248 4.1474 2 4.33545 2H14.1144C14.2008 2 14.2872 2.03558 14.3482 2.09657L19.6798 7.42821C19.7408 7.4892 19.7764 7.5756 19.7764 7.66201V21.6595C19.7764 21.8424 19.629 21.9949 19.4409 21.9949L19.446 22ZM4.6709 21.3342H19.1156V7.80432L13.972 2.66582H4.66582V21.3342H4.6709Z" fill="#1D4676" stroke="#1D4676" stroke-width="0.5"/>
<path d="M19.446 7.99746H14.1144C13.9314 7.99746 13.7789 7.85007 13.7789 7.66201V2.33545C13.7789 2.19822 13.8602 2.08132 13.9822 2.02542C14.1042 1.97459 14.2516 2.00508 14.3431 2.09657L19.6747 7.42821C19.7713 7.52478 19.7967 7.66709 19.7459 7.78908C19.695 7.91614 19.5731 7.99238 19.4358 7.99238L19.446 7.99746ZM14.4447 7.33164H18.6379L14.4447 3.1385V7.33164Z" fill="#1D4676" stroke="#1D4676" stroke-width="0.5"/>
<path d="M15.4286 14.5714H12.5714V17.4286C12.5714 17.7429 12.3143 18 12 18C11.6857 18 11.4286 17.7429 11.4286 17.4286V14.5714H8.57143C8.25714 14.5714 8 14.3143 8 14C8 13.6857 8.25714 13.4286 8.57143 13.4286H11.4286V10.5714C11.4286 10.2571 11.6857 10 12 10C12.3143 10 12.5714 10.2571 12.5714 10.5714V13.4286H15.4286C15.7429 13.4286 16 13.6857 16 14C16 14.3143 15.7429 14.5714 15.4286 14.5714Z" fill="#1D4676"/>
</g>
<defs>
<clipPath id="clip0_1968_28847">
<rect width="15.7764" height="20" fill="white" transform="translate(4 2)"/>
</clipPath>
</defs>
</svg>
