<svg width="24" height="24" viewBox="0 0 24 24" fill="none" xmlns="http://www.w3.org/2000/svg">
<g clip-path="url(#clip0_1856_49934)">
<rect width="15.7764" height="20" transform="translate(4 2)" fill="white"/>
<path d="M19.446 22H4.33545C4.15248 22 4 21.8526 4 21.6645V2.33545C4 2.1474 4.1474 2 4.33545 2H14.1144C14.2008 2 14.2872 2.03558 14.3482 2.09657L19.6798 7.42821C19.7408 7.4892 19.7764 7.5756 19.7764 7.66201V21.6595C19.7764 21.8424 19.629 21.9949 19.4409 21.9949L19.446 22ZM4.6709 21.3342H19.1156V7.80432L13.972 2.66582H4.66582V21.3342H4.6709Z" fill="#010101" stroke="#1D4676" stroke-width="0.5"/>
<path d="M19.4459 7.99741H14.1143C13.9313 7.99741 13.7788 7.85001 13.7788 7.66196V2.3354C13.7788 2.19817 13.8601 2.08127 13.9821 2.02536C14.1041 1.97453 14.2515 1.99995 14.343 2.09652L19.6746 7.42816C19.7712 7.52473 19.7966 7.66704 19.7458 7.78902C19.6949 7.91609 19.573 7.99232 19.4357 7.99232L19.4459 7.99741ZM14.4446 7.33159H18.6378L14.4446 3.13845V7.33159Z" fill="#010101" stroke="#1D4676" stroke-width="0.5"/>
<path d="M12.1116 8.33789H7.22217C7.0392 8.33789 6.88672 8.1905 6.88672 8.00244C6.88672 7.81439 7.03411 7.66699 7.22217 7.66699H12.1116C12.2946 7.66699 12.4471 7.81439 12.4471 8.00244C12.4471 8.1905 12.2997 8.33789 12.1116 8.33789Z" fill="#010101" stroke="#1D4676" stroke-width="0.5"/>
<path d="M16.5538 11.6721H7.22217C7.0392 11.6721 6.88672 11.5247 6.88672 11.3367C6.88672 11.1486 7.03411 11.0012 7.22217 11.0012H16.5538C16.7368 11.0012 16.8893 11.1486 16.8893 11.3367C16.8893 11.5247 16.7419 11.6721 16.5538 11.6721Z" fill="#010101" stroke="#1D4676" stroke-width="0.5"/>
<path d="M16.5538 15.0012H7.22217C7.0392 15.0012 6.88672 14.8538 6.88672 14.6658C6.88672 14.4777 7.03411 14.3303 7.22217 14.3303H16.5538C16.7368 14.3303 16.8893 14.4777 16.8893 14.6658C16.8893 14.8538 16.7419 15.0012 16.5538 15.0012Z" fill="#010101" stroke="#1D4676" stroke-width="0.5"/>
<path d="M16.5538 18.3355H7.22217C7.0392 18.3355 6.88672 18.1881 6.88672 18C6.88672 17.8119 7.03411 17.6646 7.22217 17.6646H16.5538C16.7368 17.6646 16.8893 17.8119 16.8893 18C16.8893 18.1881 16.7419 18.3355 16.5538 18.3355Z" fill="#010101" stroke="#1D4676" stroke-width="0.5"/>
</g>
<defs>
<clipPath id="clip0_1856_49934">
<rect width="15.7764" height="20" fill="white" transform="translate(4 2)"/>
</clipPath>
</defs>
</svg>
