<svg width="24" height="24" viewBox="0 0 24 24" fill="none" xmlns="http://www.w3.org/2000/svg">
<g clip-path="url(#clip0_1079_17428)">
<path d="M19.446 22H4.33545C4.15248 22 4 21.8526 4 21.6645V2.33545C4 2.15248 4.1474 2 4.33545 2H14.1144C14.2008 2 14.2872 2.03558 14.3482 2.09657L19.6798 7.42821C19.7408 7.4892 19.7764 7.5756 19.7764 7.66201V21.6595C19.7764 21.8424 19.629 21.9949 19.4409 21.9949L19.446 22ZM4.6709 21.3342H19.1156V7.80432L13.972 2.66582H4.66582V21.3342H4.6709Z" fill="#FFFFFF" stroke="#FFFFFF" stroke-width="0.5"/>
<path d="M19.446 7.99745H14.1144C13.9314 7.99745 13.7789 7.85005 13.7789 7.662V2.33544C13.7789 2.19821 13.8602 2.08131 13.9822 2.0254C14.1093 1.97457 14.2516 2.00507 14.3431 2.09656L19.6747 7.4282C19.7713 7.52477 19.7967 7.66708 19.7459 7.78906C19.695 7.91612 19.5731 7.99236 19.4358 7.99236L19.446 7.99745ZM14.4447 7.33163H18.6379L14.4447 3.13849V7.33163Z" fill="#FFFFFF" stroke="#FFFFFF" stroke-width="0.5"/>
<path d="M11.817 4.81576C11.6341 4.81576 11.4816 4.66836 11.4816 4.48031V2.33545C11.4816 2.15248 11.629 2 11.817 2C12.0051 2 12.1525 2.1474 12.1525 2.33545V4.48539C12.1525 4.66836 12.0051 4.82084 11.817 4.82084V4.81576Z" fill="#FFFFFF" stroke="#FFFFFF" stroke-width="0.5"/>
<path d="M11.817 8.36848C11.6341 8.36848 11.4816 8.22108 11.4816 8.03303V5.88309C11.4816 5.70012 11.629 5.54764 11.817 5.54764C12.0051 5.54764 12.1525 5.69503 12.1525 5.88309V8.03303C12.1525 8.216 12.0051 8.36848 11.817 8.36848Z" fill="#FFFFFF" stroke="#FFFFFF" stroke-width="0.5"/>
<path d="M11.817 11.7789C11.6341 11.7789 11.4816 11.6315 11.4816 11.4434V9.59339C11.4816 9.41041 11.629 9.25793 11.817 9.25793C12.0051 9.25793 12.1525 9.40533 12.1525 9.59339V11.4434C12.1525 11.6264 12.0051 11.7789 11.817 11.7789Z" fill="#FFFFFF" stroke="#FFFFFF" stroke-width="0.5"/>
<path d="M11.8882 16.8158C11.0089 16.8158 10.2973 16.0991 10.2973 15.2249V12.9276C10.2973 12.0483 11.014 11.3367 11.8882 11.3367C12.7624 11.3367 13.479 12.0534 13.479 12.9276V15.2249C13.479 16.1042 12.7624 16.8158 11.8882 16.8158ZM11.8882 12.0026C11.3799 12.0026 10.9632 12.4193 10.9632 12.9276V15.2249C10.9632 15.7332 11.3799 16.1499 11.8882 16.1499C12.3964 16.1499 12.8132 15.7332 12.8132 15.2249V12.9276C12.8132 12.4193 12.3964 12.0026 11.8882 12.0026Z" fill="#FFFFFF" stroke="#FFFFFF" stroke-width="0.5"/>
</g>
<defs>
<clipPath id="clip0_1079_17428">
<rect width="15.7764" height="20" fill="white" transform="translate(4 2)"/>
</clipPath>
</defs>
</svg>
