<svg width="16" height="20" viewBox="0 0 16 20" fill="none" xmlns="http://www.w3.org/2000/svg">
<g clip-path="url(#clip0_1968_28848)">
<rect width="15.7764" height="20" fill="white"/>
<path d="M15.446 20H0.335451C0.152478 20 0 19.8526 0 19.6645V0.335451C0 0.152478 0.147395 0 0.335451 0H10.1144C10.2008 0 10.2872 0.0355781 10.3482 0.0965693L15.6798 5.42821C15.7408 5.4892 15.7764 5.5756 15.7764 5.66201V19.6595C15.7764 19.8424 15.629 19.9949 15.4409 19.9949L15.446 20ZM0.670902 19.3342H15.1156V5.80432L9.97205 0.66582H0.66582V19.3342H0.670902Z" fill="#1D4676" stroke="#1D4676" stroke-width="0.5"/>
<path d="M15.446 5.99746H10.1144C9.93139 5.99746 9.77891 5.85007 9.77891 5.66201V0.335453C9.77891 0.198223 9.86023 0.0813239 9.98221 0.0254154C10.1042 -0.0254106 10.2516 0.00508498 10.3431 0.0965716L15.6747 5.42821C15.7713 5.52478 15.7967 5.66709 15.7459 5.78908C15.695 5.91614 15.5731 5.99238 15.4358 5.99238L15.446 5.99746ZM10.4447 5.33164H14.6379L10.4447 1.1385V5.33164Z" fill="#1D4676" stroke="#1D4676" stroke-width="0.5"/>
<path d="M11.4286 12.5714H8.57143V15.4286C8.57143 15.7429 8.31429 16 8 16C7.68571 16 7.42857 15.7429 7.42857 15.4286V12.5714H4.57143C4.25714 12.5714 4 12.3143 4 12C4 11.6857 4.25714 11.4286 4.57143 11.4286H7.42857V8.57143C7.42857 8.25714 7.68571 8 8 8C8.31429 8 8.57143 8.25714 8.57143 8.57143V11.4286H11.4286C11.7429 11.4286 12 11.6857 12 12C12 12.3143 11.7429 12.5714 11.4286 12.5714Z" fill="#1D4676"/>
</g>
<defs>
<clipPath id="clip0_1968_28848">
<rect width="15.7764" height="20" fill="white"/>
</clipPath>
</defs>
</svg>
