<svg width="24" height="24" viewBox="0 0 24 24" fill="none" xmlns="http://www.w3.org/2000/svg">
<g clip-path="url(#clip0_1856_49915)">
<rect width="15.7764" height="20" transform="translate(4 2)" fill="white"/>
<path d="M19.446 22H4.33545C4.15248 22 4 21.8526 4 21.6645V2.33545C4 2.1474 4.1474 2 4.33545 2H14.1144C14.2008 2 14.2872 2.03558 14.3482 2.09657L19.6798 7.42821C19.7408 7.4892 19.7764 7.5756 19.7764 7.66201V21.6595C19.7764 21.8424 19.629 21.9949 19.4409 21.9949L19.446 22ZM4.6709 21.3342H19.1156V7.80432L13.972 2.66582H4.66582V21.3342H4.6709Z" fill="#2394D2" stroke="#2394D2" stroke-width="0.5"/>
<path d="M19.4459 7.99741H14.1143C13.9313 7.99741 13.7788 7.85001 13.7788 7.66196V2.3354C13.7788 2.19817 13.8601 2.08127 13.9821 2.02536C14.1041 1.97453 14.2515 1.99995 14.343 2.09652L19.6746 7.42816C19.7712 7.52473 19.7966 7.66704 19.7458 7.78902C19.6949 7.91609 19.573 7.99232 19.4357 7.99232L19.4459 7.99741ZM14.4446 7.33159H18.6378L14.4446 3.13845V7.33159Z" fill="#2394D2" stroke="#2394D2" stroke-width="0.5"/>
<path d="M9.89061 17.4053C9.75338 17.4053 9.62632 17.3138 9.58057 17.1868L7.65427 11.8551C7.59328 11.6823 7.67968 11.4892 7.85249 11.4282C8.0253 11.3672 8.21844 11.4536 8.27943 11.6264L9.90078 16.1194L11.578 11.7687C11.6441 11.5959 11.8372 11.5095 12.0101 11.5756C12.1829 11.6417 12.2693 11.8348 12.2032 12.0076L10.2057 17.1919C10.1549 17.3189 10.0329 17.4053 9.8957 17.4053H9.89061Z" fill="#2394D2" stroke="#2394D2" stroke-width="0.5"/>
<path d="M13.8907 17.4054C13.7535 17.4054 13.6315 17.319 13.5807 17.1919L11.5832 12.0077C11.5172 11.8349 11.6036 11.6418 11.7764 11.5757C11.9441 11.5096 12.1423 11.596 12.2084 11.7688L13.8856 16.1195L15.507 11.6265C15.568 11.4537 15.7611 11.3622 15.9339 11.4283C16.1067 11.4893 16.1982 11.6824 16.1322 11.8552L14.2059 17.1869C14.1601 17.319 14.033 17.4054 13.8958 17.4054H13.8907Z" fill="#2394D2" stroke="#2394D2" stroke-width="0.5"/>
</g>
<defs>
<clipPath id="clip0_1856_49915">
<rect width="15.7764" height="20" fill="white" transform="translate(4 2)"/>
</clipPath>
</defs>
</svg>
