<svg width="24" height="24" viewBox="0 0 24 24" fill="none" xmlns="http://www.w3.org/2000/svg">
<g clip-path="url(#clip0_1079_17315)">
<path d="M19.446 22H4.33545C4.15248 22 4 21.8526 4 21.6645V2.33545C4 2.1474 4.1474 2 4.33545 2H14.1144C14.2008 2 14.2872 2.03558 14.3482 2.09657L19.6798 7.42821C19.7408 7.4892 19.7764 7.5756 19.7764 7.66201V21.6595C19.7764 21.8424 19.629 21.9949 19.4409 21.9949L19.446 22ZM4.6709 21.3342H19.1156V7.80432L13.972 2.66582H4.66582V21.3342H4.6709Z" fill="#2394D2" stroke="#2394D2" stroke-width="0.5"/>
<path d="M19.446 7.99747H14.1144C13.9314 7.99747 13.7789 7.85007 13.7789 7.66202V2.33546C13.7789 2.19823 13.8602 2.08133 13.9822 2.02542C14.1042 1.9746 14.2516 2.00001 14.3431 2.09658L19.6747 7.42822C19.7713 7.52479 19.7967 7.6671 19.7459 7.78908C19.695 7.91615 19.5731 7.99238 19.4358 7.99238L19.446 7.99747ZM14.4447 7.33165H18.6379L14.4447 3.13851V7.33165Z" fill="#2394D2" stroke="#2394D2" stroke-width="0.5"/>
<path d="M9.89072 17.4053C9.75349 17.4053 9.62643 17.3138 9.58069 17.1868L7.65438 11.8551C7.59339 11.6823 7.6798 11.4892 7.85261 11.4282C8.02541 11.3672 8.21855 11.4536 8.27954 11.6264L9.90089 16.1194L11.5781 11.7687C11.6442 11.5959 11.8374 11.5095 12.0102 11.5756C12.183 11.6417 12.2694 11.8348 12.2033 12.0076L10.2058 17.1919C10.155 17.3189 10.033 17.4053 9.89581 17.4053H9.89072Z" fill="#2394D2" stroke="#2394D2" stroke-width="0.5"/>
<path d="M13.8907 17.4053C13.7535 17.4053 13.6315 17.3189 13.5807 17.1919L11.5832 12.0076C11.5172 11.8348 11.6036 11.6417 11.7764 11.5756C11.9441 11.5095 12.1423 11.5959 12.2084 11.7688L13.8856 16.1195L15.507 11.6264C15.568 11.4536 15.7611 11.3621 15.9339 11.4282C16.1067 11.4892 16.1982 11.6824 16.1321 11.8552L14.2058 17.1868C14.1601 17.3189 14.033 17.4053 13.8958 17.4053H13.8907Z" fill="#2394D2" stroke="#2394D2" stroke-width="0.5"/>
</g>
<defs>
<clipPath id="clip0_1079_17315">
<rect width="15.7764" height="20" fill="white" transform="translate(4 2)"/>
</clipPath>
</defs>
</svg>
