<svg width="24" height="24" viewBox="0 0 24 24" fill="none" xmlns="http://www.w3.org/2000/svg">
<g clip-path="url(#clip0_1856_49945)">
<rect width="15.7764" height="20" transform="translate(4 2)" fill="white"/>
<path d="M19.446 22H4.33545C4.15248 22 4 21.8526 4 21.6645V2.33545C4 2.1474 4.1474 2 4.33545 2H14.1144C14.2008 2 14.2872 2.03558 14.3482 2.09657L19.6798 7.42821C19.7408 7.4892 19.7764 7.5756 19.7764 7.66201V21.6595C19.7764 21.8424 19.629 21.9949 19.4409 21.9949L19.446 22ZM4.6709 21.3342H19.1156V7.80432L13.972 2.66582H4.66582V21.3342H4.6709Z" fill="#1D4676" stroke="#1D4676" stroke-width="0.5"/>
<path d="M19.4459 7.99741H14.1143C13.9313 7.99741 13.7788 7.85001 13.7788 7.66196V2.3354C13.7788 2.19817 13.8601 2.08127 13.9821 2.02536C14.1092 1.97453 14.2515 1.99995 14.343 2.09652L19.6746 7.42816C19.7712 7.52473 19.7966 7.66704 19.7458 7.78902C19.6949 7.91609 19.573 7.99232 19.4357 7.99232L19.4459 7.99741ZM14.4446 7.33159H18.6378L14.4446 3.13845V7.33159Z" fill="#1D4676" stroke="#1D4676" stroke-width="0.5"/>
<path d="M6.66846 3.88067C6.48549 3.88067 6.33301 3.73327 6.33301 3.54522V2.65576C6.33301 2.47279 6.4804 2.32031 6.66846 2.32031C6.85651 2.32031 7.00391 2.46771 7.00391 2.65576V3.54522C7.00391 3.72819 6.85651 3.88067 6.66846 3.88067Z" fill="#1D4676" stroke="#1D4676" stroke-width="0.5"/>
<path d="M6.66846 19.0674C6.48549 19.0674 6.33301 18.92 6.33301 18.7319V16.831C6.33301 16.648 6.4804 16.4956 6.66846 16.4956C6.85651 16.4956 7.00391 16.643 7.00391 16.831V18.7319C7.00391 18.9149 6.85651 19.0674 6.66846 19.0674ZM6.66846 15.2707C6.48549 15.2707 6.33301 15.1233 6.33301 14.9352V13.0343C6.33301 12.8513 6.4804 12.6989 6.66846 12.6989C6.85651 12.6989 7.00391 12.8463 7.00391 13.0343V14.9352C7.00391 15.1182 6.85651 15.2707 6.66846 15.2707ZM6.66846 11.474C6.48549 11.474 6.33301 11.3266 6.33301 11.1385V9.23762C6.33301 9.05464 6.4804 8.90217 6.66846 8.90217C6.85651 8.90217 7.00391 9.04956 7.00391 9.23762V11.1385C7.00391 11.3215 6.85651 11.474 6.66846 11.474ZM6.66846 7.67726C6.48549 7.67726 6.33301 7.52987 6.33301 7.34181V5.44092C6.33301 5.25795 6.4804 5.10547 6.66846 5.10547C6.85651 5.10547 7.00391 5.25286 7.00391 5.44092V7.34181C7.00391 7.52478 6.85651 7.67726 6.66846 7.67726Z" fill="#1D4676" stroke="#1D4676" stroke-width="0.5"/>
<path d="M6.66846 21.8577C6.48549 21.8577 6.33301 21.7103 6.33301 21.5223V20.6328C6.33301 20.4498 6.4804 20.2974 6.66846 20.2974C6.85651 20.2974 7.00391 20.4448 7.00391 20.6328V21.5223C7.00391 21.7052 6.85651 21.8577 6.66846 21.8577Z" fill="#1D4676" stroke="#1D4676" stroke-width="0.5"/>
<path d="M17.1079 9.01397C16.9249 9.01397 16.7725 8.86657 16.7725 8.67852V7.78906C16.7725 7.60609 16.9199 7.45361 17.1079 7.45361C17.296 7.45361 17.4434 7.60101 17.4434 7.78906V8.67852C17.4434 8.86149 17.296 9.01397 17.1079 9.01397Z" fill="#1D4676" stroke="#1D4676" stroke-width="0.5"/>
<path d="M17.1079 19.1639C16.9249 19.1639 16.7725 19.0165 16.7725 18.8285V17.136C16.7725 16.953 16.9199 16.8005 17.1079 16.8005C17.296 16.8005 17.4434 16.9479 17.4434 17.136V18.8285C17.4434 19.0115 17.296 19.1639 17.1079 19.1639ZM17.1079 15.7789C16.9249 15.7789 16.7725 15.6315 16.7725 15.4435V13.751C16.7725 13.568 16.9199 13.4155 17.1079 13.4155C17.296 13.4155 17.4434 13.5629 17.4434 13.751V15.4435C17.4434 15.6265 17.296 15.7789 17.1079 15.7789ZM17.1079 12.3939C16.9249 12.3939 16.7725 12.2465 16.7725 12.0585V10.366C16.7725 10.183 16.9199 10.0305 17.1079 10.0305C17.296 10.0305 17.4434 10.1779 17.4434 10.366V12.0585C17.4434 12.2414 17.296 12.3939 17.1079 12.3939Z" fill="#1D4676" stroke="#1D4676" stroke-width="0.5"/>
<path d="M17.1079 21.7459C16.9249 21.7459 16.7725 21.5985 16.7725 21.4105V20.521C16.7725 20.338 16.9199 20.1855 17.1079 20.1855C17.296 20.1855 17.4434 20.3329 17.4434 20.521V21.4105C17.4434 21.5934 17.296 21.7459 17.1079 21.7459Z" fill="#1D4676" stroke="#1D4676" stroke-width="0.5"/>
<path d="M10.2518 15.7231C10.1908 15.7231 10.1298 15.7079 10.0789 15.6723C9.9773 15.6113 9.92139 15.4995 9.92139 15.3826L9.98238 11.2708C9.98238 11.1488 10.0535 11.037 10.1603 10.9811C10.267 10.9252 10.3992 10.9303 10.5008 11.0014L13.8909 13.3292C13.9875 13.3953 14.0434 13.5071 14.0332 13.624C14.0281 13.7409 13.957 13.8477 13.8553 13.8985L10.4042 15.6876C10.3585 15.713 10.3026 15.7231 10.2518 15.7231ZM10.638 11.9061L10.5923 14.8388L13.0573 13.563L10.638 11.9061Z" fill="#1D4676" stroke="#1D4676" stroke-width="0.5"/>
</g>
<defs>
<clipPath id="clip0_1856_49945">
<rect width="15.7764" height="20" fill="white" transform="translate(4 2)"/>
</clipPath>
</defs>
</svg>
