<svg width="24" height="24" viewBox="0 0 24 24" fill="none" xmlns="http://www.w3.org/2000/svg">
<g clip-path="url(#clip0_1079_17283)">
<path d="M19.446 22H4.33545C4.15248 22 4 21.8526 4 21.6645V2.33545C4 2.1474 4.1474 2 4.33545 2H14.1144C14.2008 2 14.2872 2.03558 14.3482 2.09657L19.6798 7.42821C19.7408 7.4892 19.7764 7.5756 19.7764 7.66201V21.6595C19.7764 21.8424 19.629 21.9949 19.4409 21.9949L19.446 22ZM4.6709 21.3342H19.1156V7.80432L13.972 2.66582H4.66582V21.3342H4.6709Z" fill="#EF6224" stroke="#EF6224" stroke-width="0.5" stroke-linejoin="round"/>
<path d="M19.446 7.99747H14.1144C13.9314 7.99747 13.7789 7.85007 13.7789 7.66202V2.33546C13.7789 2.19823 13.8602 2.08133 13.9822 2.02542C14.1093 1.9746 14.2516 2.00001 14.3431 2.09658L19.6747 7.42822C19.7713 7.52479 19.7967 7.6671 19.7459 7.78908C19.695 7.91615 19.5731 7.99238 19.4358 7.99238L19.446 7.99747ZM14.4447 7.33165H18.6379L14.4447 3.13851V7.33165Z" fill="#EF6224" stroke="#EF6224" stroke-width="0.5" stroke-linejoin="round"/>
<path d="M9.9263 17.629C9.74333 17.629 9.59085 17.4816 9.59085 17.2935V11.662C9.59085 11.479 9.73825 11.3265 9.9263 11.3265C10.1144 11.3265 10.2618 11.4739 10.2618 11.662V17.2935C10.2618 17.4765 10.1144 17.629 9.9263 17.629Z" fill="#EF6224" stroke="#EF6224" stroke-width="0.5" stroke-linejoin="round"/>
<path d="M12.1474 15.4079H9.9263C9.74333 15.4079 9.59085 15.2605 9.59085 15.0724C9.59085 14.8844 9.73825 14.737 9.9263 14.737H12.1474C12.9047 14.737 13.5197 14.122 13.5197 13.3647C13.5197 12.6074 12.9047 11.9924 12.1474 11.9924H9.9263C9.74333 11.9924 9.59085 11.845 9.59085 11.6569C9.59085 11.4689 9.73825 11.3215 9.9263 11.3215H12.1474C13.2706 11.3215 14.1855 12.2363 14.1855 13.3596C14.1855 14.4828 13.2706 15.3977 12.1474 15.3977V15.4079Z" fill="#EF6224" stroke="#EF6224" stroke-width="0.5" stroke-linejoin="round"/>
</g>
<defs>
<clipPath id="clip0_1079_17283">
<rect width="15.7764" height="20" fill="white" transform="translate(4 2)"/>
</clipPath>
</defs>
</svg>
