<svg width="34" height="36" viewBox="0 0 34 36" fill="none" xmlns="http://www.w3.org/2000/svg">
<g filter="url(#filter0_d_3311_43323)">
<path d="M6.96049 28H27.0405C29.0938 28 30.3738 25.7734 29.3472 24L19.3072 6.65336C18.2805 4.88003 15.7205 4.88003 14.6938 6.65336L4.65382 24C3.62715 25.7734 4.90715 28 6.96049 28ZM17.0005 18.6667C16.2672 18.6667 15.6672 18.0667 15.6672 17.3334V14.6667C15.6672 13.9334 16.2672 13.3334 17.0005 13.3334C17.7338 13.3334 18.3338 13.9334 18.3338 14.6667V17.3334C18.3338 18.0667 17.7338 18.6667 17.0005 18.6667ZM18.3338 24H15.6672V21.3334H18.3338V24Z" fill="white"/>
</g>
<defs>
<filter id="filter0_d_3311_43323" x="-3" y="0" width="40" height="40" filterUnits="userSpaceOnUse" color-interpolation-filters="sRGB">
<feFlood flood-opacity="0" result="BackgroundImageFix"/>
<feColorMatrix in="SourceAlpha" type="matrix" values="0 0 0 0 0 0 0 0 0 0 0 0 0 0 0 0 0 0 127 0" result="hardAlpha"/>
<feOffset dy="4"/>
<feGaussianBlur stdDeviation="2"/>
<feComposite in2="hardAlpha" operator="out"/>
<feColorMatrix type="matrix" values="0 0 0 0 0 0 0 0 0 0 0 0 0 0 0 0 0 0 0.25 0"/>
<feBlend mode="normal" in2="BackgroundImageFix" result="effect1_dropShadow_3311_43323"/>
<feBlend mode="normal" in="SourceGraphic" in2="effect1_dropShadow_3311_43323" result="shape"/>
</filter>
</defs>
</svg>
