<svg width="24" height="24" viewBox="0 0 24 24" fill="none" xmlns="http://www.w3.org/2000/svg">
<path d="M3 8.59V4C3 3.45 3.45 3 4 3H8.59C9.48 3 9.93 4.08 9.3 4.71L7.71 6.3L17.71 16.3L19.3 14.71C19.92 14.08 21 14.52 21 15.41V20C21 20.55 20.55 21 20 21H15.41C14.52 21 14.07 19.92 14.7 19.29L16.29 17.7L6.29 7.7L4.7 9.29C4.08 9.92 3 9.48 3 8.59Z" fill="#D2D7E5"/>
<path d="M9.8725 14.2925C9.4825 13.9025 8.8525 13.9025 8.4625 14.2925L6.5825 16.1725L4.7025 14.2925C4.3125 13.9025 3.6825 13.9025 3.2925 14.2925C2.9025 14.6825 2.9025 15.3125 3.2925 15.7025L5.1725 17.5825L3.2925 19.4625C2.9025 19.8525 2.9025 20.4825 3.2925 20.8725C3.6825 21.2625 4.3125 21.2625 4.7025 20.8725L6.5825 18.9925L8.4625 20.8725C8.8525 21.2625 9.4825 21.2625 9.8725 20.8725C10.2625 20.4825 10.2625 19.8525 9.8725 19.4625L7.9925 17.5825L9.8725 15.7025C10.2625 15.3125 10.2625 14.6825 9.8725 14.2925Z" fill="#D2D7E5"/>
</svg>
