<svg width="24" height="24" viewBox="0 0 24 24" fill="none" xmlns="http://www.w3.org/2000/svg">
<g clip-path="url(#clip0_1548_19418)">
<path d="M3 8.59V4C3 3.45 3.45 3 4 3H8.59C9.48 3 9.93 4.08 9.3 4.71L7.71 6.3L17.71 16.3L19.3 14.71C19.92 14.08 21 14.52 21 15.41V20C21 20.55 20.55 21 20 21H15.41C14.52 21 14.07 19.92 14.7 19.29L16.29 17.7L6.29 7.7L4.7 9.29C4.08 9.92 3 9.48 3 8.59Z" fill="#2264DC"/>
</g>
<defs>
<clipPath id="clip0_1548_19418">
<rect width="24" height="24" fill="white" transform="matrix(-1 0 0 1 24 0)"/>
</clipPath>
</defs>
</svg>
