<svg width="24" height="24" viewBox="0 0 24 24" fill="none" xmlns="http://www.w3.org/2000/svg">
<path d="M5.00002 8.00047V11.0005H18.17L15.29 8.12047C14.9 7.73047 14.9 7.10047 15.29 6.71047C15.68 6.32047 16.31 6.32047 16.7 6.71047L21.29 11.3005C21.68 11.6905 21.68 12.3205 21.29 12.7105L16.7 17.3005C16.31 17.6905 15.68 17.6905 15.29 17.3005C14.9 16.9105 14.9 16.2805 15.29 15.8905L18.17 13.0005H4.00002C3.45002 13.0005 3.00002 12.5505 3.00002 12.0005V8.00047C3.00002 7.45047 3.45002 7.00047 4.00002 7.00047C4.55002 7.00047 5.00002 7.45047 5.00002 8.00047Z" fill="#BCC2D6"/>
</svg>
