<svg width="65" height="65" viewBox="0 0 65 65" fill="none" xmlns="http://www.w3.org/2000/svg">
<g clip-path="url(#clip0_789_11929)">
<path d="M35.3338 19.1666H30.0005V29.8333H19.3338V35.1666H30.0005V45.8333H35.3338V35.1666H46.0005V29.8333H35.3338V19.1666ZM32.6672 5.83325C17.9472 5.83325 6.00049 17.7799 6.00049 32.4999C6.00049 47.2199 17.9472 59.1666 32.6672 59.1666C47.3872 59.1666 59.3338 47.2199 59.3338 32.4999C59.3338 17.7799 47.3872 5.83325 32.6672 5.83325ZM32.6672 53.8333C20.9072 53.8333 11.3338 44.2599 11.3338 32.4999C11.3338 20.7399 20.9072 11.1666 32.6672 11.1666C44.4272 11.1666 54.0005 20.7399 54.0005 32.4999C54.0005 44.2599 44.4272 53.8333 32.6672 53.8333Z" fill="white"/>
</g>
<defs>
<clipPath id="clip0_789_11929">
<rect width="64" height="64" fill="white" transform="translate(0.666992 0.5)"/>
</clipPath>
</defs>
</svg>
