<svg width="32" height="32" viewBox="0 0 32 32" fill="none" xmlns="http://www.w3.org/2000/svg">
<g clip-path="url(#clip0_869_16167)">
<path d="M20.6666 18.6668H19.6133L19.24 18.3068C20.84 16.4401 21.6666 13.8934 21.2133 11.1868C20.5866 7.4801 17.4933 4.5201 13.76 4.06677C8.11998 3.37344 3.37331 8.1201 4.06665 13.7601C4.51998 17.4934 7.47998 20.5868 11.1866 21.2134C13.8933 21.6668 16.44 20.8401 18.3066 19.2401L18.6666 19.6134V20.6668L24.3333 26.3334C24.88 26.8801 25.7733 26.8801 26.32 26.3334C26.8666 25.7868 26.8666 24.8934 26.32 24.3468L20.6666 18.6668ZM12.6666 18.6668C9.34665 18.6668 6.66665 15.9868 6.66665 12.6668C6.66665 9.34677 9.34665 6.66677 12.6666 6.66677C15.9866 6.66677 18.6666 9.34677 18.6666 12.6668C18.6666 15.9868 15.9866 18.6668 12.6666 18.6668Z" fill="#D2D7E5"/>
</g>
<defs>
<clipPath id="clip0_869_16167">
<rect width="32" height="32" fill="white"/>
</clipPath>
</defs>
</svg>
