<svg width="19" height="18" viewBox="0 0 19 18" fill="none" xmlns="http://www.w3.org/2000/svg">
<g clip-path="url(#clip0_789_11662)">
<path d="M13.9038 4.7625C12.8163 3.675 11.3238 3 9.66633 3C6.35133 3 3.67383 5.685 3.67383 9C3.67383 12.315 6.35133 15 9.66633 15C12.4638 15 14.7963 13.0875 15.4638 10.5H13.9038C13.2888 12.2475 11.6238 13.5 9.66633 13.5C7.18383 13.5 5.16633 11.4825 5.16633 9C5.16633 6.5175 7.18383 4.5 9.66633 4.5C10.9113 4.5 12.0213 5.0175 12.8313 5.835L10.4163 8.25H15.6663V3L13.9038 4.7625Z" fill="#8E97B4"/>
</g>
<defs>
<clipPath id="clip0_789_11662">
<rect width="18" height="18" fill="white" transform="translate(0.666504)"/>
</clipPath>
</defs>
</svg>
