<svg width="16" height="16" viewBox="0 0 16 16" fill="none" xmlns="http://www.w3.org/2000/svg">
<path d="M2.82941 2.82928C-0.0216946 5.68039 -0.0216946 10.3196 2.82941 13.1707C5.68051 16.0218 10.3197 16.0218 13.1708 13.1707C16.022 10.3196 16.022 5.68039 13.1708 2.82928C10.3197 -0.0218225 5.68051 -0.0218224 2.82941 2.82928ZM11.1821 7.43768C11.2572 7.43576 11.3318 7.44889 11.4018 7.47628C11.4717 7.50368 11.5354 7.54479 11.5891 7.59719C11.6429 7.6496 11.6856 7.71224 11.7148 7.78142C11.744 7.8506 11.759 7.92492 11.759 8C11.759 8.07508 11.744 8.1494 11.7148 8.21858C11.6856 8.28776 11.6429 8.3504 11.5891 8.40281C11.5354 8.45521 11.4717 8.49632 11.4018 8.52372C11.3318 8.55111 11.2572 8.56424 11.1821 8.56232L8.56269 8.56256L8.56244 11.182C8.55869 11.3286 8.4978 11.468 8.39275 11.5704C8.28771 11.6728 8.14682 11.7301 8.00013 11.7301C7.85344 11.7301 7.71255 11.6728 7.60751 11.5704C7.50246 11.468 7.44157 11.3286 7.43781 11.182L7.43756 8.56256L4.81815 8.56232C4.67151 8.55856 4.53213 8.49767 4.42974 8.39262C4.32735 8.28758 4.27005 8.14669 4.27005 8C4.27005 7.85331 4.32735 7.71242 4.42974 7.60738C4.53213 7.50233 4.67151 7.44144 4.81815 7.43768L7.43756 7.43744L7.43781 4.81802C7.44157 4.67138 7.50246 4.532 7.60751 4.42961C7.71255 4.32722 7.85344 4.26992 8.00013 4.26992C8.14682 4.26992 8.28771 4.32722 8.39275 4.42961C8.4978 4.532 8.55869 4.67138 8.56244 4.81802L8.56269 7.43744L11.1821 7.43768Z" fill="#8E97B4"/>
</svg>
