<svg width="19" height="18" viewBox="0 0 19 18" fill="none" xmlns="http://www.w3.org/2000/svg">
<g opacity="0.3">
<g clip-path="url(#clip0_1793_46036)">
<rect x="0.667969" width="18" height="18" rx="4" fill="white"/>
<path d="M14.392 4.28254C14.0995 3.99004 13.627 3.99004 13.3345 4.28254L9.66703 7.94254L5.99953 4.27504C5.70703 3.98254 5.23453 3.98254 4.94203 4.27504C4.64953 4.56754 4.64953 5.04004 4.94203 5.33254L8.60953 9.00004L4.94203 12.6675C4.64953 12.96 4.64953 13.4325 4.94203 13.725C5.23453 14.0175 5.70703 14.0175 5.99953 13.725L9.66703 10.0575L13.3345 13.725C13.627 14.0175 14.0995 14.0175 14.392 13.725C14.6845 13.4325 14.6845 12.96 14.392 12.6675L10.7245 9.00004L14.392 5.33254C14.677 5.04754 14.677 4.56754 14.392 4.28254Z" fill="#1D4676"/>
</g>
</g>
<defs>
<clipPath id="clip0_1793_46036">
<rect x="0.667969" width="18" height="18" rx="4" fill="white"/>
</clipPath>
</defs>
</svg>
