<svg width="24" height="44" viewBox="0 0 24 44" fill="none" xmlns="http://www.w3.org/2000/svg">
<g clip-path="url(#clip0_1708_60442)">
<path d="M16.59 19H15V14C15 13.45 14.55 13 14 13H10C9.45 13 9 13.45 9 14V19H7.41C6.52 19 6.07 20.08 6.7 20.71L11.29 25.3C11.68 25.69 12.31 25.69 12.7 25.3L17.29 20.71C17.92 20.08 17.48 19 16.59 19ZM5 29C5 29.55 5.45 30 6 30H18C18.55 30 19 29.55 19 29C19 28.45 18.55 28 18 28H6C5.45 28 5 28.45 5 29Z" fill="#2264DC"/>
</g>
<defs>
<clipPath id="clip0_1708_60442">
<rect width="24" height="24" fill="white" transform="translate(0 10)"/>
</clipPath>
</defs>
</svg>
