<svg width="18" height="18" viewBox="0 0 18 18" fill="none" xmlns="http://www.w3.org/2000/svg">
<path d="M10.8527 7.64422C12.2251 9.90024 9.87039 12.2503 7.61677 10.8836C7.41453 10.7607 7.24117 10.5872 7.11838 10.3847C5.74599 8.12868 8.10072 5.77866 10.3543 7.14529C10.5566 7.26821 10.7299 7.44175 10.8527 7.64422ZM15.7428 10.0593V7.9696C15.7428 7.91176 15.6922 7.86114 15.6344 7.86114H13.9587C13.9081 7.86114 13.8648 7.82499 13.8575 7.7816C13.7348 7.3116 13.5542 6.86328 13.3086 6.45836C13.2797 6.41497 13.2869 6.36435 13.323 6.3282L14.4426 5.20742C14.551 5.09896 14.551 5.02665 14.5076 4.98326L13.0269 3.50094C12.9835 3.45755 12.9113 3.45755 12.868 3.50094L11.6834 4.6868C11.6834 4.6868 11.5967 4.73018 11.5534 4.70126C11.1489 4.45541 10.701 4.27464 10.2315 4.15171C10.181 4.13725 10.1521 4.09387 10.1521 4.05048V2.35846C10.1521 2.30062 10.1015 2.25 10.0437 2.25H7.95626C7.89847 2.25 7.84791 2.30062 7.84791 2.35846V4.03602C7.84791 4.08664 7.8118 4.13002 7.76846 4.13725C7.29896 4.26018 6.85112 4.44095 6.44663 4.6868C6.40329 4.71572 6.35273 4.70849 6.31661 4.67234L5.19703 3.55155C5.08868 3.44309 5.01645 3.44309 4.97311 3.48648L3.49238 4.9688C3.44904 5.01219 3.44904 5.08449 3.49238 5.12788L4.67697 6.31374C4.67697 6.31374 4.7203 6.40051 4.69141 6.44389C4.44583 6.84882 4.26525 7.29713 4.14246 7.76714C4.12801 7.81776 4.09189 7.84668 4.04133 7.84668C3.74518 7.84668 2.69783 7.84668 2.35835 7.84668C2.30056 7.84668 2.25 7.89729 2.25 7.95514V10.0449C2.25 10.1027 2.30056 10.1533 2.35835 10.1533H4.03411C4.08467 10.1533 4.12801 10.1895 4.13523 10.2329C4.25803 10.7029 4.4386 11.1512 4.68419 11.5561C4.71308 11.5995 4.70586 11.6501 4.66974 11.6863L3.55016 12.807C3.44181 12.9155 3.44181 12.9878 3.48515 13.0312L4.96589 14.5135C5.00923 14.5569 5.08146 14.5569 5.1248 14.5135L6.30939 13.3277C6.30939 13.3277 7.29173 13.7398 7.76846 13.8627C7.81902 13.8772 7.84791 13.9206 7.84791 13.964V15.6415C7.84791 15.6994 7.89847 15.75 7.95626 15.75H10.0437C10.1015 15.75 10.1521 15.6994 10.1521 15.6415V13.964C10.1521 13.9134 10.1882 13.87 10.2315 13.8627C10.701 13.7398 11.1489 13.5591 11.5534 13.3132C11.5967 13.2843 11.6473 13.2915 11.6834 13.3277L12.803 14.4484C12.9113 14.5569 12.9835 14.5569 13.0269 14.5135L14.5076 13.0312C14.551 12.9878 14.551 12.9155 14.5076 12.8721L13.323 11.6863C13.323 11.6863 13.2797 11.5995 13.3086 11.5561C13.5542 11.1512 13.7348 10.7029 13.8575 10.2329C13.872 10.1822 13.9081 10.1533 13.9587 10.1533C14.2548 10.1533 15.3022 10.1533 15.6417 10.1533C15.6994 10.1533 15.75 10.1027 15.75 10.0449L15.7428 10.0593Z" stroke="#858B93" stroke-width="1.6" stroke-linecap="round" stroke-linejoin="round"/>
</svg>
