<svg width="18" height="18" viewBox="0 0 18 18" fill="none" xmlns="http://www.w3.org/2000/svg">
<g clip-path="url(#clip0_911_29661)">
<path d="M11.25 2.25L12.975 3.975L10.8075 6.1275L11.8725 7.1925L14.025 5.025L15.75 6.75V2.25H11.25ZM2.25 6.75L3.975 5.025L6.1275 7.1925L7.1925 6.1275L5.025 3.975L6.75 2.25H2.25V6.75ZM6.75 15.75L5.025 14.025L7.1925 11.8725L6.1275 10.8075L3.975 12.975L2.25 11.25V15.75H6.75ZM15.75 11.25L14.025 12.975L11.8725 10.8075L10.8075 11.8725L12.975 14.025L11.25 15.75H15.75V11.25Z" fill="#858B93"/>
</g>
<defs>
<clipPath id="clip0_911_29661">
<rect width="18" height="18" fill="white"/>
</clipPath>
</defs>
</svg>
