<svg width="18" height="19" viewBox="0 0 18 19" fill="none" xmlns="http://www.w3.org/2000/svg">
<g clip-path="url(#clip0_2963_77499)">
<rect y="0.5" width="18" height="18" rx="2" fill="#F1F4F5"/>
<path d="M14.25 7.25H3.75C3.3375 7.25 3 7.5875 3 8C3 8.4125 3.3375 8.75 3.75 8.75H14.25C14.6625 8.75 15 8.4125 15 8C15 7.5875 14.6625 7.25 14.25 7.25ZM3.75 11.75H14.25C14.6625 11.75 15 11.4125 15 11C15 10.5875 14.6625 10.25 14.25 10.25H3.75C3.3375 10.25 3 10.5875 3 11C3 11.4125 3.3375 11.75 3.75 11.75Z" fill="#BCC2D6"/>
</g>
<rect x="0.5" y="1" width="17" height="17" rx="1.5" stroke="#E6E8F0"/>
<defs>
<clipPath id="clip0_2963_77499">
<rect y="0.5" width="18" height="18" rx="2" fill="white"/>
</clipPath>
</defs>
</svg>
