<svg width="25" height="24" viewBox="0 0 25 24" fill="none" xmlns="http://www.w3.org/2000/svg">
<g clip-path="url(#clip0_1859_13279)">
<path d="M18.15 6.34999C16.52 4.71999 14.21 3.77999 11.67 4.03999C8.00002 4.40999 4.98002 7.38999 4.57002 11.06C4.02002 15.91 7.77002 20 12.5 20C15.69 20 18.43 18.13 19.71 15.44C20.03 14.77 19.55 14 18.81 14C18.44 14 18.09 14.2 17.93 14.53C16.8 16.96 14.09 18.5 11.13 17.84C8.91002 17.35 7.12002 15.54 6.65002 13.32C5.81002 9.43999 8.76002 5.99999 12.5 5.99999C14.16 5.99999 15.64 6.68999 16.72 7.77999L15.21 9.28999C14.58 9.91999 15.02 11 15.91 11H19.5C20.05 11 20.5 10.55 20.5 9.99999V6.40999C20.5 5.51999 19.42 5.06999 18.79 5.69999L18.15 6.34999Z" fill="#4F5A7E"/>
</g>
<defs>
<clipPath id="clip0_1859_13279">
<rect width="24" height="24" fill="white" transform="translate(0.5)"/>
</clipPath>
</defs>
</svg>
