<svg width="18" height="18" viewBox="0 0 18 18" fill="none" xmlns="http://www.w3.org/2000/svg">
<rect x="1.5" y="1.5" width="15" height="15" rx="7.5" fill="#FFD028"/>
<path fill-rule="evenodd" clip-rule="evenodd" d="M7.57326 4.7798C7.50835 4.97842 7.48622 5.18837 7.50829 5.39603L8.0884 9.66867C8.10789 9.89544 8.21237 10.1067 8.38118 10.2606C8.54998 10.4146 8.77082 10.5 9 10.5C9.22918 10.5 9.45002 10.4146 9.61882 10.2606C9.78763 10.1067 9.89211 9.89544 9.9116 9.66867L10.4917 5.39603C10.5138 5.18837 10.4916 4.97842 10.4267 4.7798C10.3618 4.58119 10.2556 4.39834 10.1149 4.24313C9.97428 4.08792 9.80233 3.96381 9.61026 3.87886C9.41818 3.7939 9.21027 3.75 9 3.75C8.78974 3.75 8.58182 3.7939 8.38974 3.87886C8.19766 3.96381 8.02572 4.08792 7.88506 4.24313C7.7444 4.39834 7.63817 4.58119 7.57326 4.7798Z" fill="#222222"/>
<rect x="7.875" y="11.25" width="2.25" height="2.25" rx="1.125" fill="#222222"/>
</svg>
