<svg width="24" height="25" viewBox="0 0 24 25" fill="none" xmlns="http://www.w3.org/2000/svg">
<g clip-path="url(#clip0_2844_64962)">
<path d="M11 7.5H13V9.5H11V7.5ZM12 17.5C12.55 17.5 13 17.05 13 16.5V12.5C13 11.95 12.55 11.5 12 11.5C11.45 11.5 11 11.95 11 12.5V16.5C11 17.05 11.45 17.5 12 17.5ZM12 2.5C6.48 2.5 2 6.98 2 12.5C2 18.02 6.48 22.5 12 22.5C17.52 22.5 22 18.02 22 12.5C22 6.98 17.52 2.5 12 2.5ZM12 20.5C7.59 20.5 4 16.91 4 12.5C4 8.09 7.59 4.5 12 4.5C16.41 4.5 20 8.09 20 12.5C20 16.91 16.41 20.5 12 20.5Z" fill="#8E97B4"/>
</g>
<defs>
<clipPath id="clip0_2844_64962">
<rect width="24" height="24" fill="white" transform="translate(0 0.5)"/>
</clipPath>
</defs>
</svg>
