<svg width="25" height="24" viewBox="0 0 25 24" fill="none" xmlns="http://www.w3.org/2000/svg">
<g clip-path="url(#clip0_1793_46320)">
<path d="M13.76 2.99958C8.67003 2.85958 4.50003 6.94958 4.50003 11.9996H2.71003C2.26003 11.9996 2.04003 12.5396 2.36003 12.8496L5.15003 15.6496C5.35003 15.8496 5.66003 15.8496 5.86003 15.6496L8.65003 12.8496C8.96003 12.5396 8.74003 11.9996 8.29003 11.9996H6.50003C6.50003 8.09958 9.68003 4.94958 13.6 4.99958C17.32 5.04958 20.45 8.17958 20.5 11.8996C20.55 15.8096 17.4 18.9996 13.5 18.9996C11.89 18.9996 10.4 18.4496 9.22003 17.5196C8.82003 17.2096 8.26003 17.2396 7.90003 17.5996C7.48003 18.0196 7.51003 18.7296 7.98003 19.0896C9.50003 20.2896 11.41 20.9996 13.5 20.9996C18.55 20.9996 22.64 16.8296 22.5 11.7396C22.37 7.04958 18.45 3.12958 13.76 2.99958ZM13.25 7.99958C12.84 7.99958 12.5 8.33958 12.5 8.74958V12.4296C12.5 12.7796 12.69 13.1096 12.99 13.2896L16.11 15.1396C16.47 15.3496 16.93 15.2296 17.14 14.8796C17.35 14.5196 17.23 14.0596 16.88 13.8496L14 12.1396V8.73958C14 8.33958 13.66 7.99958 13.25 7.99958Z" fill="#FFB142"/>
</g>
<defs>
<clipPath id="clip0_1793_46320">
<rect width="24" height="24" fill="white" transform="translate(0.5)"/>
</clipPath>
</defs>
</svg>
