<svg width="25" height="24" viewBox="0 0 25 24" fill="none" xmlns="http://www.w3.org/2000/svg">
<g clip-path="url(#clip0_1895_7499)">
<path d="M10.8 7.7C10.41 8.09 10.41 8.71 10.8 9.1L12.7 11H3.5C2.95 11 2.5 11.45 2.5 12C2.5 12.55 2.95 13 3.5 13H12.7L10.8 14.9C10.41 15.29 10.41 15.91 10.8 16.3C11.19 16.69 11.81 16.69 12.2 16.3L15.79 12.71C16.18 12.32 16.18 11.69 15.79 11.3L12.2 7.7C11.81 7.31 11.19 7.31 10.8 7.7ZM20.5 19H13.5C12.95 19 12.5 19.45 12.5 20C12.5 20.55 12.95 21 13.5 21H20.5C21.6 21 22.5 20.1 22.5 19V5C22.5 3.9 21.6 3 20.5 3H13.5C12.95 3 12.5 3.45 12.5 4C12.5 4.55 12.95 5 13.5 5H20.5V19Z" fill="#BCC2D6"/>
</g>
<defs>
<clipPath id="clip0_1895_7499">
<rect width="24" height="24" fill="white" transform="translate(0.5)"/>
</clipPath>
</defs>
</svg>
