<svg width="18" height="19" viewBox="0 0 18 19" fill="none" xmlns="http://www.w3.org/2000/svg">
<g clip-path="url(#clip0_1708_57927)">
<path d="M13.725 4.78254C13.4325 4.49004 12.96 4.49004 12.6675 4.78254L9.00004 8.44254L5.33254 4.77504C5.04004 4.48254 4.56754 4.48254 4.27504 4.77504C3.98254 5.06754 3.98254 5.54004 4.27504 5.83254L7.94254 9.50004L4.27504 13.1675C3.98254 13.46 3.98254 13.9325 4.27504 14.225C4.56754 14.5175 5.04004 14.5175 5.33254 14.225L9.00004 10.5575L12.6675 14.225C12.96 14.5175 13.4325 14.5175 13.725 14.225C14.0175 13.9325 14.0175 13.46 13.725 13.1675L10.0575 9.50004L13.725 5.83254C14.01 5.54754 14.01 5.06754 13.725 4.78254Z" fill="#F71010"/>
</g>
<defs>
<clipPath id="clip0_1708_57927">
<rect width="18" height="18" fill="white" transform="translate(0 0.5)"/>
</clipPath>
</defs>
</svg>
