<svg width="32" height="33" viewBox="0 0 32 33" fill="none" xmlns="http://www.w3.org/2000/svg">
<g clip-path="url(#clip0_2125_12454)">
<path d="M15.5391 9.34473H16.4878V21.2711C16.4878 21.5341 16.2764 21.7454 16.0134 21.7454C15.7504 21.7454 15.5391 21.5341 15.5391 21.2711V9.34473Z" fill="#8E97B4" stroke="#8E97B4"/>
<path d="M16.3535 7.14019C16.5387 7.32543 16.5387 7.62578 16.3535 7.81103L11.301 12.8635C11.1158 13.0488 10.8154 13.0488 10.6302 12.8635C10.4449 12.6783 10.4449 12.3779 10.6302 12.1927L15.6826 7.14019C15.8679 6.95494 16.1682 6.95494 16.3535 7.14019Z" fill="#8E97B4" stroke="#8E97B4"/>
<path d="M21.3969 12.8598C21.2117 13.0451 20.9113 13.0451 20.7261 12.8598L15.6736 7.80735C15.4883 7.6221 15.4883 7.32175 15.6736 7.1365C15.8588 6.95125 16.1592 6.95125 16.3444 7.1365L21.3969 12.189C21.5822 12.3742 21.5822 12.6746 21.3969 12.8598Z" fill="#8E97B4" stroke="#8E97B4"/>
<path d="M24.5227 15.4053H25.4775C26.1531 15.4053 26.7182 15.8989 26.7962 16.555L27.6861 24.3629C27.7705 25.1294 27.1599 25.7984 26.3674 25.7984H5.63309C4.84061 25.7984 4.23001 25.1294 4.31445 24.3629L5.20437 16.555C5.27582 15.8989 5.84745 15.4053 6.523 15.4053H7.49086" stroke="#8E97B4" stroke-width="2" stroke-linecap="round" stroke-linejoin="round"/>
</g>
<defs>
<clipPath id="clip0_2125_12454">
<rect width="25.3333" height="20.2732" fill="white" transform="translate(3.3335 6.5)"/>
</clipPath>
</defs>
</svg>
