<svg width="24" height="24" viewBox="0 0 24 24" fill="none" xmlns="http://www.w3.org/2000/svg">
<g clip-path="url(#clip0_789_5330)">
<path d="M11.19 1.36012L4.19 4.47012C3.47 4.79012 3 5.51012 3 6.30012V11.0001C3 16.5501 6.84 21.7401 12 23.0001C17.16 21.7401 21 16.5501 21 11.0001V6.30012C21 5.51012 20.53 4.79012 19.81 4.47012L12.81 1.36012C12.3 1.13012 11.7 1.13012 11.19 1.36012ZM9.29 16.2901L6.7 13.7001C6.31 13.3101 6.31 12.6801 6.7 12.2901C7.09 11.9001 7.72 11.9001 8.11 12.2901L10 14.1701L15.88 8.29012C16.27 7.90012 16.9 7.90012 17.29 8.29012C17.68 8.68012 17.68 9.31012 17.29 9.70012L10.7 16.2901C10.32 16.6801 9.68 16.6801 9.29 16.2901Z" fill="#858B93"/>
</g>
<defs>
<clipPath id="clip0_789_5330">
<rect width="24" height="24" fill="white"/>
</clipPath>
</defs>
</svg>
