<svg width="24" height="24" viewBox="0 0 24 24" fill="none" xmlns="http://www.w3.org/2000/svg">
<path d="M12.3862 6.31208C16.1858 6.31208 19.2713 9.40293 19.2713 13.1972C19.2713 16.9915 16.1805 20.0823 12.3862 20.0823C8.5919 20.0823 5.50105 16.9915 5.50105 13.1972C5.50105 9.40293 8.5919 6.31208 12.3862 6.31208ZM12.3862 4.83594C7.76589 4.83594 4.0249 8.58226 4.0249 13.1972C4.0249 17.8122 7.77122 21.5585 12.3862 21.5585C17.0011 21.5585 20.7475 17.8122 20.7475 13.1972C20.7475 8.58226 17.0065 4.83594 12.3862 4.83594Z" fill="#8E97B4" stroke="#8E97B4" stroke-width="0.4"/>
<path d="M11.9682 8.18064C13.1227 8.18064 14.0586 7.24477 14.0586 6.09032C14.0586 4.93587 13.1227 4 11.9682 4C10.8138 4 9.87793 4.93587 9.87793 6.09032C9.87793 7.24477 10.8138 8.18064 11.9682 8.18064Z" fill="#325FEB" stroke="#325FEB" stroke-width="2" stroke-miterlimit="10"/>
<path d="M5.15114 17.8091C6.3195 17.8091 7.26665 16.862 7.26665 15.6936C7.26665 14.5253 6.3195 13.5781 5.15114 13.5781C3.98279 13.5781 3.03564 14.5253 3.03564 15.6936C3.03564 16.862 3.98279 17.8091 5.15114 17.8091Z" fill="#325FEB" stroke="#325FEB" stroke-width="2" stroke-miterlimit="10"/>
<path d="M19.1028 17.8091C20.2712 17.8091 21.2183 16.862 21.2183 15.6936C21.2183 14.5253 20.2712 13.5781 19.1028 13.5781C17.9344 13.5781 16.9873 14.5253 16.9873 15.6936C16.9873 16.862 17.9344 17.8091 19.1028 17.8091Z" fill="#325FEB" stroke="#325FEB" stroke-width="2" stroke-miterlimit="10"/>
</svg>
