<svg width="18" height="18" viewBox="0 0 18 18" fill="none" xmlns="http://www.w3.org/2000/svg">
<g clip-path="url(#clip0_1260_11356)">
<path d="M7.87497 6.74997H10.125C10.335 6.74997 10.5 6.58497 10.5 6.37497V4.49997H11.8425C12.18 4.49997 12.345 4.09497 12.105 3.86247L9.26247 1.01997C9.11247 0.869971 8.87997 0.869971 8.72997 1.01997L5.88747 3.86247C5.65497 4.09497 5.81997 4.49997 6.15747 4.49997H7.49997V6.37497C7.49997 6.58497 7.66497 6.74997 7.87497 6.74997ZM6.37497 7.49997H4.49997V6.15747C4.49997 5.81997 4.09497 5.65497 3.86247 5.89497L1.01997 8.73747C0.869971 8.88747 0.869971 9.11997 1.01997 9.26997L3.86247 12.1125C4.09497 12.345 4.49997 12.18 4.49997 11.8425V10.5H6.37497C6.58497 10.5 6.74997 10.335 6.74997 10.125V7.87497C6.74997 7.66497 6.58497 7.49997 6.37497 7.49997ZM16.9875 8.73747L14.145 5.89497C13.905 5.65497 13.5 5.81997 13.5 6.15747V7.49997H11.625C11.415 7.49997 11.25 7.66497 11.25 7.87497V10.125C11.25 10.335 11.415 10.5 11.625 10.5H13.5V11.8425C13.5 12.18 13.905 12.345 14.1375 12.105L16.98 9.26247C17.13 9.11997 17.13 8.87997 16.9875 8.73747ZM10.125 11.25H7.87497C7.66497 11.25 7.49997 11.415 7.49997 11.625V13.5H6.15747C5.81997 13.5 5.65497 13.905 5.89497 14.1375L8.73747 16.98C8.88747 17.13 9.11997 17.13 9.26997 16.98L12.1125 14.1375C12.345 13.905 12.18 13.5 11.85 13.5H10.5V11.625C10.5 11.415 10.335 11.25 10.125 11.25Z" fill="#2264DC"/>
</g>
<defs>
<clipPath id="clip0_1260_11356">
<rect width="18" height="18" fill="white"/>
</clipPath>
</defs>
</svg>
