<svg width="17" height="16" viewBox="0 0 17 16" fill="none" xmlns="http://www.w3.org/2000/svg">
<g clip-path="url(#clip0_1859_1683)">
<path d="M12.8666 3.80665C12.6066 3.54665 12.1866 3.54665 11.9266 3.80665L8.66661 7.05998L5.40661 3.79998C5.14661 3.53998 4.72661 3.53998 4.46661 3.79998C4.20661 4.05998 4.20661 4.47998 4.46661 4.73998L7.72661 7.99998L4.46661 11.26C4.20661 11.52 4.20661 11.94 4.46661 12.2C4.72661 12.46 5.14661 12.46 5.40661 12.2L8.66661 8.93998L11.9266 12.2C12.1866 12.46 12.6066 12.46 12.8666 12.2C13.1266 11.94 13.1266 11.52 12.8666 11.26L9.60661 7.99998L12.8666 4.73998C13.1199 4.48665 13.1199 4.05998 12.8666 3.80665Z" fill="#8E97B4"/>
</g>
<defs>
<clipPath id="clip0_1859_1683">
<rect width="16" height="16" fill="white" transform="translate(0.666626)"/>
</clipPath>
</defs>
</svg>
