<svg width="18" height="19" viewBox="0 0 18 19" fill="none" xmlns="http://www.w3.org/2000/svg">
<g clip-path="url(#clip0_2125_12432)">
<path d="M9 2C4.86 2 1.5 5.36 1.5 9.5C1.5 13.64 4.86 17 9 17C13.14 17 16.5 13.64 16.5 9.5C16.5 5.36 13.14 2 9 2ZM9.75 14.75H8.25V13.25H9.75V14.75ZM11.3025 8.9375L10.6275 9.6275C10.0875 10.175 9.75 10.625 9.75 11.75H8.25V11.375C8.25 10.55 8.5875 9.8 9.1275 9.2525L10.0575 8.3075C10.335 8.0375 10.5 7.6625 10.5 7.25C10.5 6.425 9.825 5.75 9 5.75C8.175 5.75 7.5 6.425 7.5 7.25H6C6 5.5925 7.3425 4.25 9 4.25C10.6575 4.25 12 5.5925 12 7.25C12 7.91 11.73 8.51 11.3025 8.9375Z" fill="#3855E8"/>
</g>
<defs>
<clipPath id="clip0_2125_12432">
<rect width="18" height="18" fill="white" transform="translate(0 0.5)"/>
</clipPath>
</defs>
</svg>
