<svg width="32" height="33" viewBox="0 0 32 33" fill="none" xmlns="http://www.w3.org/2000/svg">
<g clip-path="url(#clip0_1708_59219)">
<path d="M21.9999 9.49954V23.6062C21.9999 26.3929 19.9599 28.8729 17.1866 29.1395C13.9999 29.4462 11.3333 26.9529 11.3333 23.8329V7.35288C11.3333 5.60621 12.5866 4.01954 14.3199 3.84621C16.3199 3.64621 17.9999 5.20621 17.9999 7.16621V21.1662C17.9999 21.8995 17.3999 22.4995 16.6666 22.4995C15.9333 22.4995 15.3333 21.8995 15.3333 21.1662V9.49954C15.3333 8.95288 14.8799 8.49954 14.3333 8.49954C13.7866 8.49954 13.3333 8.95288 13.3333 9.49954V20.9795C13.3333 22.7262 14.5866 24.3129 16.3199 24.4862C18.3199 24.6862 19.9999 23.1262 19.9999 21.1662V7.39288C19.9999 4.60621 17.9599 2.12621 15.1866 1.85954C12.0133 1.55288 9.33325 4.04621 9.33325 7.16621V23.5262C9.33325 27.3529 12.1333 30.7795 15.9466 31.1395C20.3333 31.5395 23.9999 28.1262 23.9999 23.8329V9.49954C23.9999 8.95288 23.5466 8.49954 22.9999 8.49954C22.4533 8.49954 21.9999 8.95288 21.9999 9.49954Z" fill="#222222"/>
</g>
<defs>
<clipPath id="clip0_1708_59219">
<rect width="32" height="32" fill="white" transform="translate(0 0.5)"/>
</clipPath>
</defs>
</svg>
