<svg width="24" height="24" viewBox="0 0 24 24" fill="none" xmlns="http://www.w3.org/2000/svg">
<path d="M15 9.49973H14.5V9.99973V14.9997C14.5 15.2736 14.2739 15.4997 14 15.4997H10C9.72614 15.4997 9.5 15.2736 9.5 14.9997V9.99973V9.49973H9H7.41C6.9738 9.49973 6.74262 8.96422 7.06355 8.64328L11.6536 4.05328C11.8483 3.85854 12.1617 3.85854 12.3564 4.05328L16.9464 8.64328C17.2598 8.95666 17.0369 9.49973 16.59 9.49973H15ZM6 18.4997H18C18.2739 18.4997 18.5 18.7259 18.5 18.9997C18.5 19.2736 18.2739 19.4997 18 19.4997H6C5.72614 19.4997 5.5 19.2736 5.5 18.9997C5.5 18.7259 5.72614 18.4997 6 18.4997Z" fill="#2A2C3B" stroke="#2A2C3B"/>
</svg>
