<svg width="104" height="81" viewBox="0 0 104 81" fill="none" xmlns="http://www.w3.org/2000/svg">
<g clip-path="url(#clip0_911_29555)">
<path d="M39.5524 69.9229C38.5687 69.9229 37.772 69.1217 37.772 68.1326V57.6328C37.772 56.6437 38.5687 55.8425 39.5524 55.8425C40.5361 55.8425 41.3329 56.6437 41.3329 57.6328V68.1326C41.3329 69.1217 40.5361 69.9229 39.5524 69.9229Z" fill="#50555C"/>
<path d="M56.0614 69.9228H23.0431C22.0594 69.9228 21.2627 69.1217 21.2627 68.1325C21.2627 67.1434 22.0594 66.3423 23.0431 66.3423H56.0614C57.0451 66.3423 57.8419 67.1434 57.8419 68.1325C57.8419 69.1217 57.0451 69.9228 56.0614 69.9228Z" fill="#50555C"/>
<path d="M77.3199 5.6259C77.3199 3.50893 75.6107 1.79028 73.5053 1.79028H5.59487C3.48505 1.79028 1.78027 3.50893 1.78027 5.6259V46.7614H77.3199V5.6259Z" fill="white"/>
<g clip-path="url(#clip1_911_29555)">
<path d="M23.854 23.4351C22.5966 23.4351 21.5029 24.0445 20.8482 25.0273V29.0931H17.2144V16.5598H20.8482V20.9288C21.7693 20.3193 22.741 19.9818 23.854 19.9818C24.9671 19.9818 25.9388 20.3193 26.8584 20.9288V16.5598H30.4922V29.0916H26.8584V25.0259C26.2037 24.043 25.1114 23.4336 23.854 23.4336V23.4351Z" fill="url(#paint0_linear_911_29555)"/>
<path d="M34.9907 19.0095H32.8196V17.1873H31.8003V21.8534H32.8196V19.9206H34.9907V21.8534H36.0085V17.1873H34.9907V19.0095Z" fill="#1D2C58"/>
<path d="M57.1227 17.4531C56.9099 17.6712 56.9009 17.9923 56.8965 18.179V21.8534H57.9143V20.3643H60.0765V21.8534H61.0987V17.1873H57.9218C57.6197 17.1902 57.3384 17.2336 57.1242 17.4546L57.1227 17.4531ZM58.1732 18.0984H60.075V19.4531H57.9128V18.3658C57.9158 18.312 57.9054 18.2164 57.9515 18.1581C57.9991 18.0984 58.0765 18.1029 58.1732 18.0999V18.0984Z" fill="#1D2C58"/>
<path d="M49.9144 17.1873H46.73V21.8549H47.7493V18.0984H49.66C49.7567 18.1014 49.8341 18.0984 49.8802 18.1566C49.9263 18.2149 49.9159 18.3105 49.9204 18.3643V21.8534H50.9397V18.1805C50.9337 17.9938 50.9248 17.6727 50.712 17.4546C50.4977 17.2351 50.2165 17.1917 49.9129 17.1873H49.9144Z" fill="#1D2C58"/>
<path d="M44.8105 20.6749C44.8075 20.7302 44.8164 20.8243 44.7718 20.8826C44.7227 20.9438 44.6453 20.9393 44.5516 20.9408H42.6409V17.1873H41.6216V21.8549H44.8045C45.1081 21.8519 45.3893 21.8056 45.6021 21.5861C45.8164 21.368 45.8238 21.0484 45.8298 20.8602V17.1873H44.812V20.6749H44.8105Z" fill="#1D2C58"/>
<path d="M56.051 18.1805C56.0465 17.9938 56.0376 17.6727 55.8248 17.4546C55.612 17.2351 55.3293 17.1917 55.0272 17.1873H51.8442V21.8549H55.0272C55.3293 21.8519 55.612 21.8056 55.8248 21.5861C56.0376 21.368 56.0465 21.0484 56.051 20.8602V18.1805ZM55.0361 20.6749C55.0316 20.7302 55.0421 20.8243 54.9974 20.8826C54.9498 20.9438 54.8694 20.9393 54.7772 20.9408H52.8621V18.0984H54.7772C54.8694 18.1014 54.9498 18.0984 54.9974 18.1566C55.0421 18.2149 55.0316 18.3105 55.0361 18.3643V20.6734V20.6749Z" fill="#1D2C58"/>
<path d="M38.8165 19.2276L37.5799 17.1873H36.3687L38.2719 20.1283V21.8534H39.3596V20.1283L41.2614 17.1873H40.0516L38.8165 19.2276Z" fill="#1D2C58"/>
<path d="M62.1177 17.1873V18.0984V20.9408V21.8534H63.2054V20.9408V18.0984V17.1873H62.1177Z" fill="#1D2C58"/>
<path d="M52.2475 27.5263V23.7981H51.1895V28.4658H54.6521V27.5263H52.2475Z" fill="#1D2C58"/>
<path d="M42.8134 24.766H45.5797V23.7981H41.7539V28.4658H45.5797V27.4979H42.8134V26.5703H45.2166V25.6935H42.8134V25.6876V24.766Z" fill="#1D2C58"/>
<path d="M47.5307 24.766H50.2984V23.7981H46.4727V28.4658H50.2984V27.4979H47.5307V26.5703H49.9339V25.6935H47.5307V25.6876V24.766Z" fill="#1D2C58"/>
<path d="M35.071 25.6443H33.0726C32.8999 25.6443 32.8151 25.5561 32.8151 25.3799V24.9736C32.8151 24.8347 32.8999 24.766 33.0726 24.766H35.8716V23.7981H32.8211C32.141 23.7981 31.8018 24.1282 31.8018 24.7884V25.6562C31.8018 26.2925 32.1262 26.6121 32.7764 26.6121H34.7645C34.9371 26.6121 35.0219 26.7003 35.0219 26.8765V27.2903C35.0219 27.4292 34.9356 27.4994 34.7645 27.4994H31.8419V28.4658H35.0219C35.7049 28.4658 36.0472 28.1342 36.0472 27.471V26.6017C36.0472 25.9639 35.7228 25.6457 35.0725 25.6457L35.071 25.6443Z" fill="#1D2C58"/>
<path d="M36.7109 23.7981V24.766H38.2838V28.4658H39.3433V24.766H40.9177V23.7981H36.7109Z" fill="#1D2C58"/>
</g>
<path d="M77.3201 48.5517H1.78044C0.796747 48.5517 0 47.7505 0 46.7614V5.62587C0 2.52426 2.51042 0 5.59504 0H73.5055C76.5901 0 79.1005 2.52426 79.1005 5.62587V46.7614C79.1005 47.7505 78.3038 48.5517 77.3201 48.5517ZM3.56088 44.9712H75.5397V5.62587C75.5397 4.49801 74.6272 3.58051 73.5055 3.58051H5.59504C4.47336 3.58051 3.56088 4.49801 3.56088 5.62587V44.9712Z" fill="#50555C"/>
<path d="M1.78027 46.7615V53.5376C1.78027 55.6546 3.4895 57.3732 5.59487 57.3732H73.5053C75.6107 57.3732 77.3199 55.6546 77.3199 53.5376V46.7615H1.78027Z" fill="#4C9AED"/>
<path d="M73.5055 59.1634H5.59504C2.51042 59.1634 0 56.6392 0 53.5376V46.7614C0 45.7723 0.796747 44.9712 1.78044 44.9712H77.3201C78.3038 44.9712 79.1005 45.7723 79.1005 46.7614V53.5376C79.1005 56.6392 76.5901 59.1634 73.5055 59.1634ZM3.56088 48.5517V53.5376C3.56088 54.6654 4.47336 55.5829 5.59504 55.5829H73.5055C74.6272 55.5829 75.5397 54.6654 75.5397 53.5376V48.5517H3.56088Z" fill="#50555C"/>
<path d="M57.9536 30.1436H100.252C101.628 30.1436 102.745 31.2669 102.745 32.6499V77.2317C102.745 78.6147 101.628 79.738 100.252 79.738H57.9536C56.5782 79.738 55.4609 78.6147 55.4609 77.2317V32.6499C55.4609 31.2669 56.5782 30.1436 57.9536 30.1436Z" fill="white"/>
<path d="M100.252 81.0001H57.9534C55.8881 81.0001 54.2056 79.3083 54.2056 77.2316V32.6498C54.2056 30.5731 55.8881 28.8813 57.9534 28.8813H100.252C102.318 28.8813 104 30.5731 104 32.6498V77.2316C104 79.3083 102.318 81.0001 100.252 81.0001ZM57.9534 31.4101C57.2724 31.4101 56.7204 31.9651 56.7204 32.6498V77.2316C56.7204 77.9164 57.2724 78.4714 57.9534 78.4714H100.252C100.933 78.4714 101.485 77.9164 101.485 77.2316V32.6498C101.485 31.9651 100.933 31.4101 100.252 31.4101H57.9534Z" fill="#50555C"/>
<path d="M67.3495 37.5998C66.6551 37.5998 66.0898 37.0359 66.0898 36.3332V30.1389C66.0898 29.4407 66.6507 28.8723 67.3495 28.8723C68.0483 28.8723 68.6092 29.4362 68.6092 30.1389V36.3332C68.6092 37.0314 68.0483 37.5998 67.3495 37.5998Z" fill="#50555C"/>
<path d="M67.3497 42.6437C65.3111 42.6437 63.6509 40.9743 63.6509 38.92C63.6509 36.8657 65.3111 35.1963 67.3497 35.1963C69.3884 35.1963 71.0531 36.8657 71.0531 38.92C71.0531 40.9743 69.3928 42.6437 67.3497 42.6437ZM67.3497 37.7295C66.6954 37.7295 66.1657 38.2666 66.1657 38.9245C66.1657 39.5824 66.6999 40.1195 67.3497 40.1195C67.9996 40.1195 68.5382 39.5824 68.5382 38.9245C68.5382 38.2666 68.0041 37.7295 67.3497 37.7295Z" fill="#50555C"/>
<path d="M79.101 37.5998C78.4066 37.5998 77.8413 37.0359 77.8413 36.3332V30.1389C77.8413 29.4407 78.4021 28.8723 79.101 28.8723C79.7998 28.8723 80.3606 29.4362 80.3606 30.1389V36.3332C80.3606 37.0314 79.7998 37.5998 79.101 37.5998Z" fill="#50555C"/>
<path d="M79.1008 42.6437C77.0577 42.6437 75.3975 40.9743 75.3975 38.92C75.3975 36.8657 77.0577 35.1963 79.1008 35.1963C81.1438 35.1963 82.8041 36.8657 82.8041 38.92C82.8041 40.9743 81.1438 42.6437 79.1008 42.6437ZM79.1008 37.7295C78.4465 37.7295 77.9123 38.2666 77.9123 38.9245C77.9123 39.5824 78.4465 40.1195 79.1008 40.1195C79.7551 40.1195 80.2892 39.5824 80.2892 38.9245C80.2892 38.2666 79.7551 37.7295 79.1008 37.7295Z" fill="#50555C"/>
<path d="M90.6293 37.5998C89.9349 37.5998 89.3696 37.0359 89.3696 36.3332V30.1389C89.3696 29.4407 89.9305 28.8723 90.6293 28.8723C91.3281 28.8723 91.889 29.4362 91.889 30.1389V36.3332C91.889 37.0314 91.3281 37.5998 90.6293 37.5998Z" fill="#50555C"/>
<path d="M90.6291 42.6437C88.586 42.6437 86.9258 40.9743 86.9258 38.92C86.9258 36.8657 88.586 35.1963 90.6291 35.1963C92.6722 35.1963 94.328 36.8657 94.328 38.92C94.328 40.9743 92.6677 42.6437 90.6291 42.6437ZM90.6291 37.7295C89.9748 37.7295 89.4407 38.2666 89.4407 38.9245C89.4407 39.5824 89.9748 40.1195 90.6291 40.1195C91.2834 40.1195 91.8131 39.5824 91.8131 38.9245C91.8131 38.2666 91.279 37.7295 90.6291 37.7295Z" fill="#50555C"/>
<path d="M94.1942 50.7849H64.0068V54.6429H94.1942V50.7849Z" fill="#4C9AED"/>
<path d="M94.1942 58.7917H64.0068V62.6497H94.1942V58.7917Z" fill="#4C9AED"/>
<path d="M94.1942 66.7988H64.0068V70.6568H94.1942V66.7988Z" fill="#4C9AED"/>
</g>
<defs>
<linearGradient id="paint0_linear_911_29555" x1="25.6112" y1="30.2744" x2="25.6112" y2="17.366" gradientUnits="userSpaceOnUse">
<stop stop-color="#0E3485"/>
<stop offset="1" stop-color="#1A97BA"/>
</linearGradient>
<clipPath id="clip0_911_29555">
<rect width="104" height="81" fill="white"/>
</clipPath>
<clipPath id="clip1_911_29555">
<rect width="47.1817" height="12.5318" fill="white" transform="translate(16.0239 16.5598)"/>
</clipPath>
</defs>
</svg>
