<svg width="227" height="60" viewBox="0 0 227 60" fill="none" xmlns="http://www.w3.org/2000/svg">
<g clip-path="url(#clip0_9_62)">
<path d="M37.6305 32.9178C31.5876 32.9178 26.3313 35.8355 23.1847 40.5411V60.0072H5.7211V0H23.1847V20.9178C27.6114 18 32.2813 16.3838 37.6305 16.3838C42.9797 16.3838 47.6496 18 52.0691 20.9178V0H69.5328V60H52.0691V40.534C48.9225 35.8284 43.6734 32.9106 37.6305 32.9106V32.9178Z" fill="white"/>
<path d="M91.1514 11.7282H80.7175V3.00354H75.8188V25.3444H80.7175V16.0905H91.1514V25.3444H96.0429V3.00354H91.1514V11.7282Z" fill="white"/>
<path d="M197.514 4.27648C196.491 5.32058 196.448 6.85813 196.427 7.75205V25.3444H201.318V18.2145H211.709V25.3444H216.622V3.00354H201.354C199.902 3.01784 198.551 3.22523 197.521 4.28364L197.514 4.27648ZM202.563 7.36588H211.702V13.8522H201.311V8.64597C201.325 8.38852 201.275 7.93083 201.497 7.65193C201.726 7.36588 202.098 7.38733 202.563 7.37303V7.36588Z" fill="white"/>
<path d="M162.872 3.00354H147.569V25.3516H152.467V7.36588H161.65C162.114 7.38018 162.486 7.36588 162.708 7.64478C162.93 7.92368 162.88 8.38137 162.901 8.63882V25.3444H167.8V7.7592C167.771 6.86528 167.728 5.32774 166.706 4.28364C165.676 3.23238 164.324 3.02499 162.865 3.00354H162.872Z" fill="white"/>
<path d="M138.343 19.702C138.329 19.9666 138.372 20.4171 138.157 20.696C137.921 20.9892 137.549 20.9678 137.099 20.9749H127.917V3.00354H123.018V25.3516H138.315C139.774 25.3373 141.125 25.1156 142.148 24.0643C143.178 23.0202 143.213 21.4898 143.242 20.5888V3.00354H138.35V19.702H138.343Z" fill="white"/>
<path d="M192.365 7.7592C192.343 6.86528 192.3 5.32774 191.278 4.28364C190.255 3.23238 188.896 3.02499 187.445 3.00354H172.148V25.3516H187.445C188.896 25.3373 190.255 25.1156 191.278 24.0643C192.3 23.0202 192.343 21.4898 192.365 20.5888V7.7592ZM187.487 19.702C187.466 19.9666 187.516 20.4171 187.302 20.696C187.073 20.9892 186.687 20.9678 186.243 20.9749H177.039V7.36588H186.243C186.687 7.38018 187.073 7.36588 187.302 7.64478C187.516 7.92368 187.466 8.38137 187.487 8.63882V19.6948V19.702Z" fill="white"/>
<path d="M109.538 12.7723L103.595 3.00354H97.7735L106.92 17.0846V25.3444H112.148V17.0846L121.287 3.00354H115.473L109.538 12.7723Z" fill="white"/>
<path d="M221.521 3.00354V7.36588V20.9749V25.3444H226.749V20.9749V7.36588V3.00354H221.521Z" fill="white"/>
<path d="M174.086 52.5053V34.6555H169.001V57.0036H185.642V52.5053H174.086Z" fill="white"/>
<path d="M128.746 39.2896H142.04V34.6555H123.654V57.0036H142.04V52.3695H128.746V47.9285H140.296V43.7306H128.746V43.702V39.2896Z" fill="white"/>
<path d="M151.416 39.2896H164.717V34.6555H146.331V57.0036H164.717V52.3695H151.416V47.9285H162.965V43.7306H151.416V43.702V39.2896Z" fill="white"/>
<path d="M91.5375 43.4946H81.9332C81.1037 43.4946 80.696 43.0727 80.696 42.2288V40.2836C80.696 39.6186 81.1037 39.2896 81.9332 39.2896H95.385V34.6555H80.7246C77.4565 34.6555 75.826 36.236 75.826 39.3969V43.5518C75.826 46.5983 77.385 48.1287 80.5101 48.1287H90.0643C90.8939 48.1287 91.3015 48.5506 91.3015 49.3945V51.3754C91.3015 52.0405 90.8867 52.3766 90.0643 52.3766H76.019V57.0036H91.3015C94.584 57.0036 96.2288 55.4159 96.2288 52.2407V48.0786C96.2288 45.025 94.6698 43.5018 91.5447 43.5018L91.5375 43.4946Z" fill="white"/>
<path d="M99.4183 34.6555V39.2896H106.977V57.0036H112.069V39.2896H119.635V34.6555H99.4183Z" fill="white"/>
</g>
<defs>
<clipPath id="clip0_9_62">
<rect width="226.749" height="60" fill="white"/>
</clipPath>
</defs>
</svg>
