<svg width="25" height="24" viewBox="0 0 25 24" fill="none" xmlns="http://www.w3.org/2000/svg">
<g clip-path="url(#clip0_1895_3838)">
<path d="M12.5 20L11.64 19.14C10.46 17.96 10.47 16.04 11.66 14.88L12.5 14.06C12.11 14.02 11.82 14 11.5 14C8.83 14 3.5 15.34 3.5 18V20H12.5ZM11.5 12C13.71 12 15.5 10.21 15.5 8C15.5 5.79 13.71 4 11.5 4C9.29 4 7.5 5.79 7.5 8C7.5 10.21 9.29 12 11.5 12Z" fill="#8E97B4"/>
<path d="M16.68 19.78C16.29 20.17 15.65 20.17 15.26 19.78L13.19 17.69C12.81 17.3 12.81 16.68 13.19 16.3L13.2 16.29C13.59 15.9 14.22 15.9 14.6 16.29L15.97 17.66L20.4 13.2C20.79 12.81 21.42 12.81 21.81 13.2L21.82 13.21C22.2 13.6 22.2 14.22 21.82 14.6L16.68 19.78Z" fill="#8E97B4"/>
</g>
<defs>
<clipPath id="clip0_1895_3838">
<rect width="24" height="24" fill="white" transform="translate(0.5)"/>
</clipPath>
</defs>
</svg>
