<svg width="25" height="24" viewBox="0 0 25 24" fill="none" xmlns="http://www.w3.org/2000/svg">
<g clip-path="url(#clip0_1895_6078)">
<path d="M19.5 9.5H20V9V6C20 5.17386 19.3261 4.5 18.5 4.5H6.5C5.67386 4.5 5 5.17386 5 6V9V9.5H5.5H8.64C8.84919 9.5 9.04996 9.64368 9.12948 9.91821C9.54715 11.3786 10.913 12.5 12.5 12.5C14.087 12.5 15.4529 11.3786 15.8706 9.91807C15.9501 9.64363 16.1509 9.5 16.36 9.5H19.5ZM5.5 3.5H19.5C20.3239 3.5 21 4.17614 21 5V12C21 12.8239 20.3239 13.5 19.5 13.5H5.5C4.67614 13.5 4 12.8239 4 12V5C4 4.17614 4.67614 3.5 5.5 3.5ZM16.37 16.5H20.5C20.7739 16.5 21 16.7261 21 17V19C21 19.8239 20.3239 20.5 19.5 20.5H5.5C4.67614 20.5 4 19.8239 4 19V17C4 16.7261 4.22614 16.5 4.5 16.5H8.63C8.83555 16.5 9.04731 16.6494 9.12846 16.9346C9.53726 18.4149 10.8898 19.5 12.5 19.5C14.1102 19.5 15.4627 18.4149 15.8715 16.9346C15.9527 16.6494 16.1645 16.5 16.37 16.5Z" fill="#8E97B4" stroke="#8E97B4"/>
</g>
<defs>
<clipPath id="clip0_1895_6078">
<rect width="24" height="24" fill="white" transform="translate(0.5)"/>
</clipPath>
</defs>
</svg>
