<svg width="25" height="24" viewBox="0 0 25 24" fill="none" xmlns="http://www.w3.org/2000/svg">
<g clip-path="url(#clip0_1895_11711)">
<path d="M1.5 9H3.5V7H1.5V9ZM1.5 13H3.5V11H1.5V13ZM1.5 5H3.5V3C2.4 3 1.5 3.9 1.5 5ZM9.5 21H11.5V19H9.5V21ZM1.5 17H3.5V15H1.5V17ZM3.5 21V19H1.5C1.5 20.1 2.4 21 3.5 21ZM21.5 3H13.5V8C13.5 8.55 13.95 9 14.5 9H23.5V5C23.5 3.9 22.6 3 21.5 3ZM21.5 17H23.5V15H21.5V17ZM9.5 5H11.5V3H9.5V5ZM5.5 21H7.5V19H5.5V21ZM5.5 5H7.5V3H5.5V5ZM21.5 21C22.6 21 23.5 20.1 23.5 19H21.5V21ZM21.5 13H23.5V11H21.5V13ZM13.5 21H15.5V19H13.5V21ZM17.5 21H19.5V19H17.5V21Z" fill="#8E97B4"/>
</g>
<defs>
<clipPath id="clip0_1895_11711">
<rect width="24" height="24" fill="white" transform="translate(0.5)"/>
</clipPath>
</defs>
</svg>
