<svg width="24" height="24" viewBox="0 0 24 24" fill="none" xmlns="http://www.w3.org/2000/svg">
<path d="M12.3862 6.31233C16.1858 6.31233 19.2713 9.40318 19.2713 13.1975C19.2713 16.9917 16.1805 20.0826 12.3862 20.0826C8.5919 20.0826 5.50105 16.9917 5.50105 13.1975C5.50105 9.40318 8.5919 6.31233 12.3862 6.31233ZM12.3862 4.83618C7.76589 4.83618 4.0249 8.5825 4.0249 13.1975C4.0249 17.8124 7.77122 21.5587 12.3862 21.5587C17.0011 21.5587 20.7475 17.8124 20.7475 13.1975C20.7475 8.5825 17.0065 4.83618 12.3862 4.83618Z" fill="#8E97B4" stroke="#8E97B4" stroke-width="0.4"/>
<path d="M11.9682 8.18064C13.1227 8.18064 14.0586 7.24477 14.0586 6.09032C14.0586 4.93587 13.1227 4 11.9682 4C10.8138 4 9.87793 4.93587 9.87793 6.09032C9.87793 7.24477 10.8138 8.18064 11.9682 8.18064Z" fill="#8E97B4" stroke="#8E97B4" stroke-width="2" stroke-miterlimit="10"/>
<path d="M5.15114 17.809C6.3195 17.809 7.26665 16.8619 7.26665 15.6935C7.26665 14.5251 6.3195 13.578 5.15114 13.578C3.98279 13.578 3.03564 14.5251 3.03564 15.6935C3.03564 16.8619 3.98279 17.809 5.15114 17.809Z" fill="#8E97B4" stroke="#8E97B4" stroke-width="2" stroke-miterlimit="10"/>
<path d="M19.103 17.809C20.2714 17.809 21.2186 16.8619 21.2186 15.6935C21.2186 14.5251 20.2714 13.578 19.103 13.578C17.9347 13.578 16.9875 14.5251 16.9875 15.6935C16.9875 16.8619 17.9347 17.809 19.103 17.809Z" fill="#8E97B4" stroke="#8E97B4" stroke-width="2" stroke-miterlimit="10"/>
</svg>
