<svg width="24" height="24" viewBox="0 0 24 24" fill="none" xmlns="http://www.w3.org/2000/svg">
<path d="M17.1429 21H6.85714C5.28 21 4 19.74 4 18.1875V16.5C4 15.8812 4.51429 15.375 5.14286 15.375C6.49143 15.375 7.42857 14.6325 7.42857 13.9687V13.125C7.42857 12.5062 7.94286 12 8.57143 12H15.4286C16.0571 12 16.5714 12.5062 16.5714 13.125V13.9687C16.5714 14.6325 17.5086 15.375 18.8571 15.375C19.4857 15.375 20 15.8812 20 16.5V18.1875C20 19.74 18.72 21 17.1429 21Z" fill="#8E97B4"/>
<path d="M14 14H10C9.45 14 9 13.4734 9 12.8298V8.85106H8C7.45 8.85106 7 8.32447 7 7.68085V4.17021C7 3.5266 7.45 3 8 3H16C16.55 3 17 3.5266 17 4.17021V7.68085C17 8.32447 16.55 8.85106 16 8.85106H15V12.8298C15 13.4734 14.55 14 14 14Z" fill="#8E97B4"/>
</svg>
