<svg width="125" height="125" viewBox="0 0 125 125" fill="none" xmlns="http://www.w3.org/2000/svg">
<g clip-path="url(#clip0_2442_46370)">
<path d="M18.2305 20.34H45.6367C47.8011 20.34 49.5567 18.5844 49.5567 16.42C49.5567 14.2556 47.8011 12.5 45.6367 12.5H18.2305C16.0661 12.5 14.3105 14.2556 14.3105 16.42C14.3105 18.5844 16.0661 20.34 18.2305 20.34Z" fill="#4C9AED"/>
<path d="M64.3432 59.5833C65.7501 53.5138 61.9703 47.4531 55.9008 46.0463C49.8313 44.6394 43.7705 48.4193 42.3637 54.4887C40.9569 60.5582 44.7367 66.619 50.8062 68.0258C56.8757 69.4326 62.9364 65.6528 64.3432 59.5833Z" fill="#4F5A7E"/>
<path d="M110.147 67.4051C115.877 64.9607 118.542 58.3334 116.097 52.6025C113.653 46.8716 107.025 44.2075 101.295 46.6519C95.5637 49.0963 92.8996 55.7237 95.344 61.4545C97.7884 67.1854 104.416 69.8495 110.147 67.4051Z" fill="#4F5A7E"/>
<path d="M106.513 72.596C99.306 72.302 92.9724 76.0456 89.5312 81.7407C96.548 85.1847 101.557 92.1007 102.24 100.254H117.859C121.616 100.254 124.665 97.2078 124.665 93.4475V92.3863C124.665 82.0795 116.809 73.016 106.513 72.596Z" fill="#4F5A7E"/>
<path d="M69.5424 81.7407C66.104 76.0456 59.7676 72.302 52.5605 72.596C42.2622 73.016 34.4082 82.0795 34.4082 92.3863V93.4475C34.4082 97.205 37.4546 100.254 41.215 100.254H56.8361C57.5193 92.1007 62.5284 85.1847 69.5452 81.7407H69.5424Z" fill="#4F5A7E"/>
<path d="M87.5149 75.6586C91.9204 71.253 91.9204 64.1102 87.5149 59.7047C83.1093 55.2991 75.9665 55.2991 71.5609 59.7047C67.1554 64.1102 67.1554 71.253 71.5609 75.6586C75.9665 80.0642 83.1093 80.0642 87.5149 75.6586Z" fill="#4F5A7E"/>
<path d="M77.6773 83.3116C67.827 84.2496 60.5918 93.0863 60.5918 102.981V104.488C60.5918 108.027 63.4618 110.894 66.9982 110.894H92.0748C95.614 110.894 98.4812 108.024 98.4812 104.488V102.167C98.4812 91.0899 88.9752 82.2336 77.6745 83.3088L77.6773 83.3116Z" fill="#4F5A7E"/>
<path d="M110.147 67.4051C115.877 64.9607 118.542 58.3334 116.097 52.6025C113.653 46.8716 107.025 44.2075 101.295 46.6519C95.5637 49.0963 92.8996 55.7237 95.344 61.4545C97.7884 67.1854 104.416 69.8495 110.147 67.4051Z" fill="#4F5A7E"/>
<path d="M106.513 72.596C99.306 72.302 92.9724 76.0456 89.5312 81.7407C96.548 85.1819 101.557 92.1007 102.24 100.254H117.859C121.616 100.254 124.665 97.2078 124.665 93.4475V92.3863C124.665 82.0795 116.809 73.016 106.513 72.596Z" fill="#4F5A7E"/>
<path d="M37.9786 68.5081C35.5874 65.3105 34.1734 61.3402 34.1734 57.0394C34.1734 46.4471 42.7609 37.8595 53.3533 37.8595C54.0477 37.8595 54.7337 37.8987 55.4085 37.9715L55.7305 34.0179H59.2808C61.4452 34.0179 63.2008 32.2623 63.2008 30.098C63.2008 27.9336 61.4452 26.178 59.2808 26.178H4.58599C2.4216 26.178 0.666016 27.9336 0.666016 30.098C0.666016 32.2623 2.4216 34.0179 4.58599 34.0179H8.13637L11.4907 75.2281C11.6559 77.2636 13.3555 78.8288 15.3967 78.8288H28.0134C30.539 74.6793 33.941 71.1261 37.9758 68.5081H37.9786Z" fill="#4C9AED"/>
<path d="M87.5149 75.6586C91.9204 71.253 91.9204 64.1102 87.5149 59.7047C83.1093 55.2991 75.9665 55.2991 71.5609 59.7047C67.1554 64.1102 67.1554 71.253 71.5609 75.6586C75.9665 80.0642 83.1093 80.0642 87.5149 75.6586Z" fill="#4F5A7E"/>
<path d="M77.6773 83.3116C67.827 84.2496 60.5918 93.0863 60.5918 102.981V104.488C60.5918 108.027 63.4618 110.894 66.9982 110.894H92.0748C95.614 110.894 98.4812 108.024 98.4812 104.488V102.167C98.4812 91.0899 88.9752 82.2336 77.6745 83.3088L77.6773 83.3116Z" fill="#4F5A7E"/>
</g>
<defs>
<clipPath id="clip0_2442_46370">
<rect width="124" height="98.3942" fill="white" transform="translate(0.666016 12.5)"/>
</clipPath>
</defs>
</svg>
