<svg width="21" height="18" viewBox="0 0 21 18" fill="none" xmlns="http://www.w3.org/2000/svg">
<path d="M3.50052 9.50007H3.00052H1.21761L4.00407 12.2965C4.00412 12.2966 4.00417 12.2966 4.00421 12.2967C4.00468 12.2971 4.00511 12.2975 4.00552 12.2979C4.00592 12.2975 4.00636 12.2971 4.00683 12.2967C4.00687 12.2966 4.00692 12.2966 4.00697 12.2965L6.79335 9.50014C6.79255 9.5001 6.79161 9.50007 6.79052 9.50007H5.00052H4.50052V9.00007C4.50052 4.82145 7.90827 1.44656 12.1069 1.50011L12.1072 1.50012C16.0981 1.55376 19.4468 4.90247 19.5005 8.89335L19.5005 8.89368C19.554 13.0819 16.1796 16.5001 12.0005 16.5001C10.2759 16.5001 8.67827 15.9109 7.41293 14.9143C7.20887 14.7571 6.93274 14.775 6.75407 14.9536C6.53632 15.1714 6.56719 15.5266 6.78456 15.6931L6.79037 15.6976L6.79034 15.6976C8.22481 16.8301 10.0264 17.5001 12.0005 17.5001C16.7699 17.5001 20.6329 13.5615 20.5007 8.75382C20.378 4.32918 16.6714 0.622586 12.2468 0.499883L3.50052 9.50007ZM3.50052 9.50007V9.00007M3.50052 9.50007V9.00007M3.50052 9.00007C3.50052 4.23075 7.43902 0.367705 12.2467 0.49988L3.50052 9.00007ZM12.0005 9.14007V9.42469L12.2452 9.57L15.1233 11.2788C15.1235 11.279 15.1237 11.2791 15.1239 11.2792C15.2367 11.3474 15.2806 11.5014 15.2102 11.6254C15.1411 11.7373 14.9872 11.7801 14.8636 11.7088C14.8632 11.7086 14.8628 11.7084 14.8625 11.7082L11.7478 9.86133C11.7475 9.86114 11.7471 9.86095 11.7468 9.86077C11.5954 9.76943 11.5005 9.60107 11.5005 9.43007V5.75007C11.5005 5.61621 11.6167 5.50007 11.7505 5.50007C11.8887 5.50007 12.0005 5.62055 12.0005 5.74007V9.14007Z" fill="#222222" stroke="#222222"/>
</svg>
