<svg width="124" height="125" viewBox="0 0 124 125" fill="none" xmlns="http://www.w3.org/2000/svg">
<path d="M59.3997 100.498C59.7955 99.646 59.8377 98.6916 59.5162 97.8096C57.8527 93.2488 57.4207 88.2982 58.2686 83.4922C59.8417 74.5776 65.7105 66.9949 73.8356 63.1695C73.9079 64.3027 74.5288 65.3816 75.5856 65.9924C77.215 66.9286 79.4512 66.3199 80.3855 64.7045L83.5359 59.2496C84.006 58.4359 84.1306 57.4896 83.8875 56.5814C83.6444 55.6753 83.0637 54.9158 82.25 54.4457L76.7911 51.2953C75.9794 50.8271 75.0311 50.7006 74.1229 50.9437C73.2148 51.1868 72.4573 51.7674 71.9892 52.5812C71.3081 53.7625 71.3904 55.179 72.0856 56.2519C61.2622 60.8368 53.3963 70.6336 51.3449 82.2707C50.2821 88.2922 50.8226 94.4985 52.9101 100.219C53.4124 101.601 54.7384 102.531 56.2132 102.531C56.6271 102.531 57.0309 102.459 57.4167 102.318C58.2987 101.997 59.0019 101.35 59.3977 100.5L59.3997 100.498Z" fill="#4C9AED"/>
<path d="M109.288 104.926C108.354 105.006 107.506 105.446 106.902 106.166C100.531 113.742 90.5349 117.375 80.7964 115.665C76.9388 114.984 73.254 113.481 70.0112 111.279C70.8892 110.64 71.4618 109.603 71.4618 108.436C71.4618 106.497 69.8866 104.92 67.9478 104.92L61.9765 104.926C61.0262 104.836 60.114 105.123 59.3867 105.732C58.6815 106.324 58.2435 107.156 58.147 108.09L58.127 114.735C58.127 116.674 59.7021 118.251 61.641 118.251C63.0474 118.251 64.265 117.419 64.8255 116.222C69.1754 119.458 74.2305 121.646 79.5708 122.587C81.5418 122.936 83.5611 123.113 85.5742 123.113C95.9094 123.113 105.644 118.584 112.278 110.69C112.883 109.971 113.17 109.061 113.09 108.125C113.009 107.188 112.569 106.34 111.85 105.738C111.131 105.133 110.223 104.856 109.284 104.926H109.288Z" fill="#4C9AED"/>
<path d="M123.531 94.4161C122.822 93.1885 121.486 92.5677 120.154 92.6742C121.249 84.0749 119.139 75.4978 114.132 68.3491C108.798 60.7324 100.82 55.6512 91.6657 54.0378C89.747 53.6983 87.9307 54.9841 87.5952 56.8908C87.4324 57.815 87.6394 58.7493 88.1778 59.5188C88.7163 60.2883 89.522 60.8007 90.4462 60.9634C97.7535 62.2513 104.119 66.3078 108.374 72.3835C112.147 77.7701 113.859 84.1774 113.3 90.6549C113.136 90.5826 112.965 90.5223 112.788 90.4741C111.882 90.233 110.936 90.3556 110.122 90.8237C109.308 91.2919 108.726 92.0513 108.483 92.9575C108.239 93.8656 108.364 94.8119 108.832 95.6256L111.982 101.083C112.453 101.896 113.21 102.479 114.12 102.724C114.418 102.802 114.725 102.843 115.028 102.843C115.643 102.843 116.25 102.68 116.786 102.372L122.245 99.2221C123.923 98.2516 124.502 96.0978 123.531 94.4201V94.4161Z" fill="#4C9AED"/>
<path fill-rule="evenodd" clip-rule="evenodd" d="M41.7405 80.583C41.7405 60.0151 58.4749 43.2787 79.0448 43.2787C80.1458 43.2787 81.2308 43.349 82.3077 43.4435V27.6895C82.3077 21.4913 77.2828 16.4663 71.0845 16.4663H42.0379C40.6194 16.4663 39.3255 15.6667 38.6906 14.3989L35.3453 7.70633C33.4427 3.90297 29.5569 1.5 25.3055 1.5H11.2232C5.02494 1.5 0 6.52494 0 12.7232V72.5825C0 78.7808 5.02494 83.8057 11.2232 83.8057H41.9033C41.8108 82.7408 41.7405 81.6679 41.7405 80.579V80.583Z" fill="#4F5A7E"/>
</svg>
