<svg width="62" height="76" viewBox="0 0 62 76" fill="none" xmlns="http://www.w3.org/2000/svg">
<path d="M47.8144 65.1232C48.0527 65.1232 49.0504 65.1232 49.2887 65.1232C50.0482 65.0637 50.1077 64.2744 50.2417 63.6788C50.4056 62.8597 50.7332 61.8769 51.4926 61.5344H51.4628C51.6564 61.4599 51.8351 61.3855 52.0138 61.311H51.9989C52.7733 61.0281 53.7114 61.4897 54.3965 61.9514C54.9177 62.2939 55.5133 62.8002 56.0941 62.3088C56.2877 62.145 56.9727 61.4451 57.1365 61.2664C57.3152 61.0877 58.0151 60.4027 58.1789 60.2091C58.6703 59.6283 58.164 59.0326 57.8215 58.5114C57.3598 57.8115 56.8982 56.8883 57.196 56.1139H57.1812C57.2556 55.9501 57.3301 55.7714 57.4045 55.5778V55.6076C57.747 54.8482 58.7299 54.5205 59.5489 54.3567C60.1594 54.2376 60.9338 54.178 60.9934 53.4037C61.0083 53.1505 60.9934 52.1677 60.9934 51.9294C60.9934 51.6912 60.9934 50.6934 60.9934 50.4552C60.9338 49.6957 60.1445 49.6362 59.5489 49.5021C58.7299 49.3383 57.747 49.0107 57.4045 48.2512V48.281C57.3301 48.0874 57.2556 47.9087 57.1812 47.73H57.196C56.8982 46.9706 57.3598 46.0473 57.8215 45.3474C58.164 44.8262 58.6703 44.2306 58.1789 43.6498C58.0151 43.4562 57.3152 42.7712 57.1365 42.5925C56.9578 42.4138 56.2728 41.7139 56.0941 41.5501C55.5133 41.0587 54.9177 41.565 54.3965 41.9075C53.6966 42.3691 52.7733 42.8308 51.9989 42.5329H52.0138C51.8351 42.4734 51.6415 42.3989 51.4628 42.3245H51.4926C50.7332 41.982 50.4056 40.9991 50.2417 40.1801C50.1226 39.5695 50.063 38.7952 49.2887 38.7356C49.0355 38.7207 48.0527 38.7356 47.8144 38.7356C47.5762 38.7356 46.5785 38.7356 46.3402 38.7356C45.5807 38.7952 45.5212 39.5844 45.3871 40.1801C45.2233 40.9991 44.8957 41.982 44.1363 42.3245H44.166C43.9725 42.3989 43.7938 42.4734 43.6151 42.5478H43.6299C42.8556 42.8308 41.9174 42.3691 41.2324 41.9075C40.7112 41.565 40.1156 41.0587 39.5348 41.5501C39.3412 41.7139 38.6562 42.4138 38.4924 42.5925C38.3137 42.7712 37.6138 43.4562 37.45 43.6498C36.9586 44.2306 37.4649 44.8262 37.8074 45.3474C38.269 46.0473 38.7307 46.9706 38.4328 47.7449H38.4477C38.3733 47.9087 38.2988 48.0874 38.2244 48.281V48.2512C37.8819 49.0107 36.899 49.3383 36.08 49.5021C35.4694 49.6213 34.6951 49.6808 34.6355 50.4552C34.6206 50.7083 34.6355 51.6912 34.6355 51.9294C34.6355 52.1677 34.6355 53.1654 34.6355 53.4037C34.6951 54.1631 35.4843 54.2227 36.08 54.3567C36.899 54.5205 37.8819 54.8482 38.2244 55.6076V55.5778C38.2988 55.7714 38.3733 55.9501 38.4477 56.1288H38.4328C38.7307 56.8883 38.269 57.8115 37.8074 58.5114C37.4649 59.0326 36.9586 59.6283 37.45 60.2091C37.6138 60.4027 38.3137 61.0877 38.4924 61.2664C38.6711 61.4451 39.3561 62.145 39.5348 62.3088C40.1156 62.8002 40.7112 62.2939 41.2324 61.9514C41.9323 61.4897 42.8556 61.0281 43.6299 61.3259H43.6151C43.7938 61.3855 43.9873 61.4599 44.166 61.5344H44.1363C44.8957 61.8769 45.2233 62.8597 45.3871 63.6788C45.5063 64.2893 45.5658 65.0637 46.3402 65.1232C46.5933 65.1381 47.5762 65.1232 47.8144 65.1232Z" stroke="#2264DC" stroke-width="1.42" stroke-linecap="round" stroke-linejoin="round"/>
<path d="M47.8153 57.3053C50.7842 57.3053 53.1911 54.8985 53.1911 51.9295C53.1911 48.9605 50.7842 46.5537 47.8153 46.5537C44.8463 46.5537 42.4395 48.9605 42.4395 51.9295C42.4395 54.8985 44.8463 57.3053 47.8153 57.3053Z" stroke="#2264DC" stroke-width="1.42" stroke-linecap="round" stroke-linejoin="round"/>
<path d="M11.2695 74.7281H45.2965C46.6814 74.7281 47.8131 73.5963 47.8131 72.2114V68.8459" stroke="#2264DC" stroke-width="1.42" stroke-linecap="round" stroke-linejoin="round"/>
<path d="M39.4297 9.45898H45.2969C46.6967 9.45898 47.8136 10.5758 47.8136 11.9756V35.2212" stroke="#2264DC" stroke-width="1.42" stroke-linecap="round" stroke-linejoin="round"/>
<path d="M1.17383 64.8253V11.9905C1.17383 10.5907 2.29069 9.47388 3.67559 9.47388H9.5577" stroke="#2264DC" stroke-width="1.42" stroke-linecap="round" stroke-linejoin="round"/>
<path d="M1.17383 64.8254H9.36412C10.4214 64.8254 11.2702 65.6742 11.2702 66.7315V74.7431L1.17383 64.8403V64.8254Z" stroke="#2264DC" stroke-width="1.42" stroke-linecap="round" stroke-linejoin="round"/>
<path d="M19.7432 25.0354V26.9118C19.7432 27.6861 19.1029 28.3264 18.3285 28.3264H11.9401C11.1657 28.3264 10.5254 27.6861 10.5254 26.9118V20.5233C10.5254 19.749 11.1657 19.1086 11.9401 19.1086H14.6801" stroke="#2264DC" stroke-width="1.42" stroke-linecap="round" stroke-linejoin="round"/>
<path d="M24.2109 21.6104H37.4345" stroke="#2264DC" stroke-width="1.42" stroke-linecap="round" stroke-linejoin="round"/>
<path d="M24.2109 25.8396H31.061" stroke="#2264DC" stroke-width="1.42" stroke-linecap="round" stroke-linejoin="round"/>
<path d="M13.8906 23.3825L15.1266 24.8567L19.8323 18.7661" stroke="#2264DC" stroke-width="1.42" stroke-linecap="round" stroke-linejoin="round"/>
<path d="M19.7432 40.4629V42.3392C19.7432 43.1136 19.1029 43.7539 18.3285 43.7539H11.9401C11.1657 43.7539 10.5254 43.1136 10.5254 42.3392V35.9508C10.5254 35.1765 11.1657 34.5361 11.9401 34.5361H14.6801" stroke="#2264DC" stroke-width="1.42" stroke-linecap="round" stroke-linejoin="round"/>
<path d="M24.2109 37.0378H30.8227" stroke="#2264DC" stroke-width="1.42" stroke-linecap="round" stroke-linejoin="round"/>
<path d="M24.2109 41.2671H30.8227" stroke="#2264DC" stroke-width="1.42" stroke-linecap="round" stroke-linejoin="round"/>
<path d="M13.8906 38.8248L15.1266 40.2842L19.8323 34.1936" stroke="#2264DC" stroke-width="1.42" stroke-linecap="round" stroke-linejoin="round"/>
<path d="M33.6517 5.27456H28.9014V4.8576C28.9014 2.66856 27.1144 0.866699 24.9104 0.866699H24.0616C21.8726 0.866699 20.0707 2.65367 20.0707 4.8576V5.27456H15.3204C13.9652 5.27456 12.8633 6.37653 12.8633 7.73165V10.01C12.8633 11.3503 13.9652 12.4671 15.3204 12.4671H33.6517C34.992 12.4671 36.1088 11.3652 36.1088 10.01V7.73165C36.1088 6.39142 35.0068 5.27456 33.6517 5.27456Z" stroke="#2264DC" stroke-width="1.42" stroke-linecap="round" stroke-linejoin="round"/>
<circle cx="24.4948" cy="5.21501" r="1.05729" fill="#2264DC"/>
</svg>
