<svg width="61" height="76" viewBox="0 0 61 76" fill="none" xmlns="http://www.w3.org/2000/svg">
<path d="M11.0977 74.8652H45.1263C46.5112 74.8652 47.643 73.7334 47.643 72.3484V65.5576" stroke="#2264DC" stroke-width="1.42" stroke-linecap="round" stroke-linejoin="round"/>
<path d="M39.2578 9.59277H45.1253C46.5252 9.59277 47.6421 10.7097 47.6421 12.1096V33.6585" stroke="#2264DC" stroke-width="1.42" stroke-linecap="round" stroke-linejoin="round"/>
<path d="M1 64.9619V12.1244C1 10.7246 2.11691 9.60767 3.50188 9.60767H9.38429" stroke="#2264DC" stroke-width="1.42" stroke-linecap="round" stroke-linejoin="round"/>
<path d="M1 64.9619H9.19069C10.248 64.9619 11.0969 65.8108 11.0969 66.8681V74.8801L1 64.9768V64.9619Z" stroke="#2264DC" stroke-width="1.42" stroke-linecap="round" stroke-linejoin="round"/>
<path d="M19.5698 25.17V27.0464C19.5698 27.8208 18.9295 28.4612 18.1551 28.4612H11.7663C10.9919 28.4612 10.3516 27.8208 10.3516 27.0464V20.6577C10.3516 19.8833 10.9919 19.2429 11.7663 19.2429H14.5065" stroke="#2264DC" stroke-width="1.42" stroke-linecap="round" stroke-linejoin="round"/>
<path d="M24.0391 21.7449H37.2633" stroke="#2264DC" stroke-width="1.42" stroke-linecap="round" stroke-linejoin="round"/>
<path d="M24.0391 25.9741H30.8895" stroke="#2264DC" stroke-width="1.42" stroke-linecap="round" stroke-linejoin="round"/>
<path d="M13.7188 23.517L14.9548 24.9913L19.6607 18.9004" stroke="#2264DC" stroke-width="1.42" stroke-linecap="round" stroke-linejoin="round"/>
<path d="M19.5698 40.5982V42.4746C19.5698 43.249 18.9295 43.8894 18.1551 43.8894H11.7663C10.9919 43.8894 10.3516 43.249 10.3516 42.4746V36.0859C10.3516 35.3115 10.9919 34.6711 11.7663 34.6711H14.5065" stroke="#2264DC" stroke-width="1.42" stroke-linecap="round" stroke-linejoin="round"/>
<path d="M24.0391 37.1731H30.6512" stroke="#2264DC" stroke-width="1.42" stroke-linecap="round" stroke-linejoin="round"/>
<path d="M24.0391 41.4023H30.6512" stroke="#2264DC" stroke-width="1.42" stroke-linecap="round" stroke-linejoin="round"/>
<path d="M13.7188 38.9601L14.9548 40.4195L19.6607 34.3286" stroke="#2264DC" stroke-width="1.42" stroke-linecap="round" stroke-linejoin="round"/>
<path d="M33.4789 5.40808H28.7283V4.9911C28.7283 2.80195 26.9413 1 24.7372 1H23.8884C21.6992 1 19.8973 2.78706 19.8973 4.9911V5.40808H15.1467C13.7915 5.40808 12.6895 6.5101 12.6895 7.86529V10.1438C12.6895 11.499 13.7915 12.601 15.1467 12.601H33.4789C34.8192 12.601 35.9361 11.499 35.9361 10.1438V7.86529C35.9361 6.5101 34.8341 5.40808 33.4789 5.40808Z" stroke="#2264DC" stroke-width="1.42" stroke-linecap="round" stroke-linejoin="round"/>
<circle cx="24.321" cy="5.34836" r="1.05734" fill="#2264DC"/>
<path d="M38.1113 57.2179C39.5559 55.1628 43.2491 53.7034 47.5976 53.7034C51.9462 53.7034 55.8181 55.2373 57.1733 57.3668" stroke="#2264DC" stroke-width="1.42" stroke-linecap="round" stroke-linejoin="round"/>
<path d="M47.6425 62.1175C54.5266 62.1175 60.1072 56.5368 60.1072 49.6527C60.1072 42.7686 54.5266 37.188 47.6425 37.188C40.7584 37.188 35.1777 42.7686 35.1777 49.6527C35.1777 56.5368 40.7584 62.1175 47.6425 62.1175Z" stroke="#2264DC" stroke-width="1.42" stroke-linecap="round" stroke-linejoin="round"/>
<path d="M52.8098 48.536C52.8098 51.3953 50.5015 53.7036 47.6422 53.7036C44.7829 53.7036 42.4746 51.3953 42.4746 48.536C42.4746 45.6767 44.7829 43.3684 47.6422 43.3684C50.5015 43.3684 52.8098 45.6767 52.8098 48.536Z" stroke="#2264DC" stroke-width="1.42" stroke-linecap="round" stroke-linejoin="round"/>
</svg>
