<svg width="72" height="72" viewBox="0 0 72 72" fill="none" xmlns="http://www.w3.org/2000/svg">
<g clip-path="url(#clip0_2803_23738)">
<path d="M69.4128 43.8849C73.7652 25.4441 62.3443 6.96656 43.9035 2.61414C25.4627 -1.73829 6.98514 9.6826 2.63271 28.1234C-1.71971 46.5642 9.70118 65.0418 28.142 69.3942C46.5828 73.7466 65.0603 62.3257 69.4128 43.8849Z" stroke="#2264DC" stroke-width="1.6" stroke-linecap="round" stroke-linejoin="round"/>
<path d="M19.5898 7.58643L21.5345 10.9475" stroke="#2264DC" stroke-width="1.6" stroke-linecap="round" stroke-linejoin="round"/>
<path d="M22.832 28.4014L36.0124 36.0119" stroke="#2264DC" stroke-width="1.6" stroke-linecap="round" stroke-linejoin="round"/>
<path d="M7.58594 19.5906L10.9471 21.5352" stroke="#2264DC" stroke-width="1.6" stroke-linecap="round" stroke-linejoin="round"/>
<path d="M3.19336 36.012H7.08266" stroke="#2264DC" stroke-width="1.6" stroke-linecap="round" stroke-linejoin="round"/>
<path d="M7.58594 52.4095L10.9471 50.4648" stroke="#2264DC" stroke-width="1.6" stroke-linecap="round" stroke-linejoin="round"/>
<path d="M19.5898 64.4135L21.5345 61.0764" stroke="#2264DC" stroke-width="1.6" stroke-linecap="round" stroke-linejoin="round"/>
<path d="M36.0117 68.8069V64.9417" stroke="#2264DC" stroke-width="1.6" stroke-linecap="round" stroke-linejoin="round"/>
<path d="M52.4095 64.4135L50.4648 61.0764" stroke="#2264DC" stroke-width="1.6" stroke-linecap="round" stroke-linejoin="round"/>
<path d="M64.4133 52.4095L61.0762 50.4648" stroke="#2264DC" stroke-width="1.6" stroke-linecap="round" stroke-linejoin="round"/>
<path d="M68.8067 36.012H64.9414" stroke="#2264DC" stroke-width="1.6" stroke-linecap="round" stroke-linejoin="round"/>
<path d="M51.6649 26.9609L36.0117 36.012" stroke="#2264DC" stroke-width="1.6" stroke-linecap="round" stroke-linejoin="round"/>
<path d="M64.4133 19.5906L61.0762 21.5352" stroke="#2264DC" stroke-width="1.6" stroke-linecap="round" stroke-linejoin="round"/>
<path d="M52.4095 7.58643L50.4648 10.9475" stroke="#2264DC" stroke-width="1.6" stroke-linecap="round" stroke-linejoin="round"/>
</g>
<defs>
<clipPath id="clip0_2803_23738">
<rect width="72" height="72" fill="white"/>
</clipPath>
</defs>
</svg>
