<svg width="21" height="20" viewBox="0 0 21 20" fill="none" xmlns="http://www.w3.org/2000/svg">
<path d="M10.3867 3.31233C14.1863 3.31233 17.2718 6.40318 17.2718 10.1975C17.2718 13.9917 14.1809 17.0826 10.3867 17.0826C6.59239 17.0826 3.50154 13.9917 3.50154 10.1975C3.50154 6.40318 6.59239 3.31233 10.3867 3.31233ZM10.3867 1.83618C5.76638 1.83618 2.02539 5.5825 2.02539 10.1975C2.02539 14.8124 5.77171 18.5587 10.3867 18.5587C15.0016 18.5587 18.7479 14.8124 18.7479 10.1975C18.7479 5.5825 15.007 1.83618 10.3867 1.83618Z" fill="#BCC2D6" stroke="#BCC2D6"/>
<path d="M9.96727 5.18064C11.1217 5.18064 12.0576 4.24477 12.0576 3.09032C12.0576 1.93587 11.1217 1 9.96727 1C8.81282 1 7.87695 1.93587 7.87695 3.09032C7.87695 4.24477 8.81282 5.18064 9.96727 5.18064Z" fill="#BCC2D6" stroke="#BCC2D6" stroke-width="2" stroke-miterlimit="10"/>
<path d="M3.15066 14.809C4.31902 14.809 5.26616 13.8619 5.26616 12.6935C5.26616 11.5251 4.31902 10.578 3.15066 10.578C1.9823 10.578 1.03516 11.5251 1.03516 12.6935C1.03516 13.8619 1.9823 14.809 3.15066 14.809Z" fill="#BCC2D6" stroke="#BCC2D6" stroke-width="2" stroke-miterlimit="10"/>
<path d="M17.1018 14.809C18.2702 14.809 19.2173 13.8619 19.2173 12.6935C19.2173 11.5251 18.2702 10.578 17.1018 10.578C15.9335 10.578 14.9863 11.5251 14.9863 12.6935C14.9863 13.8619 15.9335 14.809 17.1018 14.809Z" fill="#BCC2D6" stroke="#BCC2D6" stroke-width="2" stroke-miterlimit="10"/>
</svg>
