<svg width="19" height="16" viewBox="0 0 19 16" fill="none" xmlns="http://www.w3.org/2000/svg">
<path d="M1 8C1 7.44614 1.44614 7 2 7C2.55386 7 3 7.44614 3 8C3 8.55386 2.55386 9 2 9C1.44614 9 1 8.55386 1 8ZM1 2C1 1.44614 1.44614 1 2 1C2.55386 1 3 1.44614 3 2C3 2.55386 2.55386 3 2 3C1.44614 3 1 2.55386 1 2ZM1 14C1 13.454 1.44831 13 2 13C2.55169 13 3 13.454 3 14C3 14.5439 2.54386 15 2 15C1.45614 15 1 14.5439 1 14ZM18 14.5H6C5.72614 14.5 5.5 14.2739 5.5 14C5.5 13.7261 5.72614 13.5 6 13.5H18C18.2739 13.5 18.5 13.7261 18.5 14C18.5 14.2739 18.2739 14.5 18 14.5ZM18 8.5H6C5.72614 8.5 5.5 8.27386 5.5 8C5.5 7.72614 5.72614 7.5 6 7.5H18C18.2739 7.5 18.5 7.72614 18.5 8C18.5 8.27386 18.2739 8.5 18 8.5ZM6 2.5C5.72614 2.5 5.5 2.27386 5.5 2C5.5 1.72614 5.72614 1.5 6 1.5H18C18.2739 1.5 18.5 1.72614 18.5 2C18.5 2.27386 18.2739 2.5 18 2.5H6Z" fill="#222222" stroke="#222222"/>
</svg>
