<svg width="24" height="24" viewBox="0 0 24 24" fill="none" xmlns="http://www.w3.org/2000/svg">
<path d="M12.3862 6.31233C16.1858 6.31233 19.2713 9.40318 19.2713 13.1975C19.2713 16.9917 16.1805 20.0826 12.3862 20.0826C8.5919 20.0826 5.50105 16.9917 5.50105 13.1975C5.50105 9.40318 8.5919 6.31233 12.3862 6.31233ZM12.3862 4.83618C7.76589 4.83618 4.0249 8.5825 4.0249 13.1975C4.0249 17.8124 7.77122 21.5587 12.3862 21.5587C17.0011 21.5587 20.7475 17.8124 20.7475 13.1975C20.7475 8.5825 17.0065 4.83618 12.3862 4.83618Z" fill="#BCC2D6" stroke="#BCC2D6"/>
<path d="M11.9682 8.18064C13.1227 8.18064 14.0586 7.24477 14.0586 6.09032C14.0586 4.93587 13.1227 4 11.9682 4C10.8138 4 9.87793 4.93587 9.87793 6.09032C9.87793 7.24477 10.8138 8.18064 11.9682 8.18064Z" fill="#BCC2D6" stroke="#BCC2D6" stroke-width="2" stroke-miterlimit="10"/>
<path d="M5.15114 17.8089C6.3195 17.8089 7.26665 16.8617 7.26665 15.6934C7.26665 14.525 6.3195 13.5779 5.15114 13.5779C3.98279 13.5779 3.03564 14.525 3.03564 15.6934C3.03564 16.8617 3.98279 17.8089 5.15114 17.8089Z" fill="#BCC2D6" stroke="#BCC2D6" stroke-width="2" stroke-miterlimit="10"/>
<path d="M19.1028 17.8089C20.2712 17.8089 21.2183 16.8617 21.2183 15.6934C21.2183 14.525 20.2712 13.5779 19.1028 13.5779C17.9344 13.5779 16.9873 14.525 16.9873 15.6934C16.9873 16.8617 17.9344 17.8089 19.1028 17.8089Z" fill="#BCC2D6" stroke="#BCC2D6" stroke-width="2" stroke-miterlimit="10"/>
</svg>
