<svg width="80" height="80" viewBox="0 0 80 80" fill="none" xmlns="http://www.w3.org/2000/svg">
<path d="M21.0977 76.8651H55.1263C56.5112 76.8651 57.643 75.7333 57.643 74.3483V72.2039" stroke="#2264DC" stroke-width="1.42" stroke-linecap="round" stroke-linejoin="round"/>
<path d="M49.2578 11.5928H55.1253C56.5252 11.5928 57.6421 12.7097 57.6421 14.1096V36.0606" stroke="#2264DC" stroke-width="1.42" stroke-linecap="round" stroke-linejoin="round"/>
<path d="M11 66.9619V14.1244C11 12.7246 12.1169 11.6077 13.5019 11.6077H19.3843" stroke="#2264DC" stroke-width="1.42" stroke-linecap="round" stroke-linejoin="round"/>
<path d="M11 66.9619H19.1907C20.248 66.9619 21.0969 67.8108 21.0969 68.8681V76.8801L11 66.9768V66.9619Z" stroke="#2264DC" stroke-width="1.42" stroke-linecap="round" stroke-linejoin="round"/>
<path d="M29.5698 27.17V29.0464C29.5698 29.8208 28.9295 30.4612 28.1551 30.4612H21.7663C20.9919 30.4612 20.3516 29.8208 20.3516 29.0464V22.6577C20.3516 21.8833 20.9919 21.2429 21.7663 21.2429H24.5065" stroke="#2264DC" stroke-width="1.42" stroke-linecap="round" stroke-linejoin="round"/>
<path d="M34.0391 23.7449H47.2633" stroke="#2264DC" stroke-width="1.42" stroke-linecap="round" stroke-linejoin="round"/>
<path d="M34.0391 27.9741H40.8895" stroke="#2264DC" stroke-width="1.42" stroke-linecap="round" stroke-linejoin="round"/>
<path d="M23.7188 25.517L24.9548 26.9913L29.6607 20.9004" stroke="#2264DC" stroke-width="1.42" stroke-linecap="round" stroke-linejoin="round"/>
<path d="M29.5698 42.5982V44.4746C29.5698 45.249 28.9295 45.8894 28.1551 45.8894H21.7663C20.9919 45.8894 20.3516 45.249 20.3516 44.4746V38.0859C20.3516 37.3115 20.9919 36.6711 21.7663 36.6711H24.5065" stroke="#2264DC" stroke-width="1.42" stroke-linecap="round" stroke-linejoin="round"/>
<path d="M34.0391 39.1731H40.6512" stroke="#2264DC" stroke-width="1.42" stroke-linecap="round" stroke-linejoin="round"/>
<path d="M34.0391 43.4023H40.6512" stroke="#2264DC" stroke-width="1.42" stroke-linecap="round" stroke-linejoin="round"/>
<path d="M23.7188 40.9601L24.9548 42.4195L29.6607 36.3286" stroke="#2264DC" stroke-width="1.42" stroke-linecap="round" stroke-linejoin="round"/>
<path d="M43.4789 7.40808H38.7283V6.9911C38.7283 4.80195 36.9413 3 34.7372 3H33.8884C31.6992 3 29.8973 4.78706 29.8973 6.9911V7.40808H25.1467C23.7915 7.40808 22.6895 8.5101 22.6895 9.86529V12.1438C22.6895 13.499 23.7915 14.601 25.1467 14.601H43.4789C44.8192 14.601 45.9361 13.499 45.9361 12.1438V9.86529C45.9361 8.5101 44.8341 7.40808 43.4789 7.40808Z" stroke="#2264DC" stroke-width="1.42" stroke-linecap="round" stroke-linejoin="round"/>
<ellipse cx="34.321" cy="7.34836" rx="1.05734" ry="1.05734" fill="#2264DC"/>
<path d="M62.6444 54.0952V58.3544C62.6444 58.8011 62.5699 59.1437 62.3317 59.5309C62.0338 60.0074 61.6019 60.3648 61.1254 60.6478C60.8573 60.8116 60.5893 60.9456 60.3063 61.0499C59.3532 61.4371 58.4746 61.8391 57.6406 62.2412" stroke="#2264DC" stroke-width="1.42" stroke-linecap="round" stroke-linejoin="round"/>
<path d="M63.762 65.6514C60.6942 66.9023 58.8029 68.0639 57.6413 69.017C56.4648 68.0639 54.5735 66.9023 51.5206 65.6514C50.642 65.294 49.7931 64.8174 49.0783 64.1919C48.1401 63.3878 47.4104 62.3006 47.1125 61.0795C46.9934 60.6029 46.9785 60.1562 46.9785 59.6796V42.2856C48.2741 42.2856 49.6293 41.9728 51.059 41.3027C51.0739 41.3027 51.1036 41.2878 51.1334 41.2729C51.4164 41.1389 51.6993 41.0048 51.9674 40.8708C52.8609 40.4389 53.6949 40.0368 54.5437 39.7241C55.4671 39.3816 56.5095 39.2029 57.6413 39.188C58.7731 39.188 59.8156 39.3816 60.7389 39.7241C61.5877 40.0368 62.4366 40.4389 63.3152 40.8708C63.5982 41.0048 63.8662 41.1389 64.1045 41.2431C64.1045 41.2431 64.1641 41.2729 64.179 41.2878C65.6384 41.9728 66.9787 42.2707 68.2892 42.2856C68.2892 42.2856 68.2892 42.8366 68.2892 42.8515V58.9201C68.2892 59.1733 68.2892 59.4116 68.2892 59.6647C68.319 62.5091 66.249 64.6238 63.7471 65.6514H63.762Z" stroke="#2264DC" stroke-width="1.42" stroke-linecap="round" stroke-linejoin="round"/>
</svg>
