<svg width="24" height="24" viewBox="0 0 24 24" fill="none" xmlns="http://www.w3.org/2000/svg">
<g clip-path="url(#clip0_3302_42658)">
<path d="M4.51 4.00031V4C4.51 3.17287 5.1794 2.5 6 2.5H12.5V3.5V9V9.5H13H18.5H19.5V20C19.5 20.8239 18.8239 21.5 18 21.5H5.99C5.16945 21.5 4.50008 20.8272 4.5 20.0002C4.5 20.0001 4.5 20.0001 4.5 20L4.51 4.00031ZM13.3536 3.14645L12.7071 2.5H13.7929L19.5 8.20711V9.29289L18.8536 8.64645L13.3536 3.14645ZM16 18.5H16.5V18V16V15.5H16H8H7.5V16V18V18.5H8H16ZM16 14.5H16.5V14V12V11.5H16H8H7.5V12V14V14.5H8H16Z" fill="#BCC2D6" stroke="#BCC2D6"/>
</g>
<defs>
<clipPath id="clip0_3302_42658">
<rect width="24" height="24" fill="white"/>
</clipPath>
</defs>
</svg>
