<svg width="24" height="24" viewBox="0 0 24 24" fill="none" xmlns="http://www.w3.org/2000/svg">
<path d="M17.1429 21H6.85714C5.28 21 4 19.74 4 18.1875V16.5C4 15.8812 4.51429 15.375 5.14286 15.375C6.49143 15.375 7.42857 14.6325 7.42857 13.9687V13.125C7.42857 12.5062 7.94286 12 8.57143 12H15.4286C16.0571 12 16.5714 12.5062 16.5714 13.125V13.9687C16.5714 14.6325 17.5086 15.375 18.8571 15.375C19.4857 15.375 20 15.8812 20 16.5V18.1875C20 19.74 18.72 21 17.1429 21Z" fill="#BCC2D6"/>
<path d="M9.5 8.85106V8.35106H9H8C7.79698 8.35106 7.5 8.12493 7.5 7.68085V4.17021C7.5 3.72613 7.79698 3.5 8 3.5H16C16.203 3.5 16.5 3.72613 16.5 4.17021V7.68085C16.5 8.12493 16.203 8.35106 16 8.35106H15H14.5V8.85106V12.8298C14.5 13.2739 14.203 13.5 14 13.5H10C9.79698 13.5 9.5 13.2739 9.5 12.8298V8.85106Z" fill="#BCC2D6" stroke="#BCC2D6"/>
</svg>
