<svg width="24" height="24" viewBox="0 0 24 24" fill="none" xmlns="http://www.w3.org/2000/svg">
<g clip-path="url(#clip0_3302_42244)">
<path d="M18.9337 12.918L18.8985 13.1993L19.1218 13.3739L21.2247 15.0183C21.2246 15.0206 21.2241 15.0239 21.2221 15.0282L19.227 18.4798L19.2268 18.4797L19.2257 18.4818L16.7462 17.486L16.485 17.3811L16.2598 17.55C15.7657 17.9206 15.2425 18.2369 14.6802 18.4673L14.4155 18.5758L14.3749 18.859L13.9962 21.5H10.0035L9.62478 18.859L9.58417 18.5758L9.31945 18.4673C8.75365 18.2355 8.23208 17.9286 7.74469 17.5537L7.51842 17.3796L7.2535 17.486L4.77797 18.4802C4.77744 18.4803 4.77675 18.4803 4.7759 18.4803C4.77487 18.4803 4.77387 18.4803 4.77294 18.4802L4.77272 18.4798L2.77758 15.0282C2.77561 15.0239 2.77503 15.0206 2.77494 15.0183L4.87784 13.3739L5.10114 13.1993L5.06598 12.918C5.02726 12.6082 4.99984 12.301 4.99984 12C4.99984 11.699 5.02726 11.3918 5.06598 11.082L5.10114 10.8007L4.87784 10.6261L2.77283 8.98003L4.77272 5.52022L4.77286 5.5203L4.774 5.5182L7.2535 6.51398L7.51468 6.61887L7.73984 6.45C8.23399 6.07939 8.75717 5.7631 9.31945 5.53265L9.58417 5.42416L9.62478 5.14097L10.0035 2.5H13.9962L14.3749 5.14097L14.4155 5.42416L14.6802 5.53265C15.246 5.76454 15.7676 6.0714 16.255 6.44631L16.4813 6.62037L16.7462 6.51398L19.2217 5.51979C19.2222 5.51973 19.2229 5.51969 19.2238 5.51968C19.2248 5.51968 19.2258 5.51974 19.2267 5.51984L19.227 5.52022L21.2221 8.97181C21.2241 8.97608 21.2246 8.97944 21.2247 8.98168L19.1218 10.6261L18.8985 10.8007L18.9337 11.082C18.9725 11.3923 18.9998 11.6893 18.9998 12C18.9998 12.3107 18.9725 12.6077 18.9337 12.918ZM7.99984 12C7.99984 14.2061 9.7937 16 11.9998 16C14.206 16 15.9998 14.2061 15.9998 12C15.9998 9.79386 14.206 8 11.9998 8C9.7937 8 7.99984 9.79386 7.99984 12Z" fill="#BCC2D6" stroke="#BCC2D6"/>
</g>
<defs>
<clipPath id="clip0_3302_42244">
<rect width="24" height="24" fill="white"/>
</clipPath>
</defs>
</svg>
