<svg width="22" height="22" viewBox="0 0 22 22" fill="none" xmlns="http://www.w3.org/2000/svg">
<path d="M1.95068 8.74243L10.7639 11.6449" stroke="#BCC2D6" stroke-width="2.4" stroke-miterlimit="10"/>
<path d="M4.88037 19.8485L10.8975 11.4475" stroke="#BCC2D6" stroke-width="2.4" stroke-miterlimit="10"/>
<path d="M20.7499 8.43604L11.0098 11.6448" stroke="#BCC2D6" stroke-width="2.4" stroke-miterlimit="10"/>
<path d="M16.8992 19.8485L10.877 11.4475" stroke="#BCC2D6" stroke-width="2.4" stroke-miterlimit="10"/>
<path d="M10.7643 14.8952C12.5348 14.8952 13.9701 13.44 13.9701 11.6449C13.9701 9.84976 12.5348 8.39453 10.7643 8.39453C8.99385 8.39453 7.55859 9.84976 7.55859 11.6449C7.55859 13.44 8.99385 14.8952 10.7643 14.8952Z" fill="white" stroke="#BCC2D6" stroke-width="2.4" stroke-miterlimit="10"/>
<path d="M10.7643 5.31032C11.8673 5.31032 12.7615 4.40139 12.7615 3.28016C12.7615 2.15893 11.8673 1.25 10.7643 1.25C9.66126 1.25 8.76709 2.15893 8.76709 3.28016C8.76709 4.40139 9.66126 5.31032 10.7643 5.31032Z" fill="white" stroke="#BCC2D6" stroke-width="2.4" stroke-miterlimit="10"/>
<path d="M5.2232 8.65417C5.43316 10.0249 4.28606 11.188 2.93412 10.9803C2.09428 10.8505 1.40295 10.1495 1.27492 9.29801C1.06496 7.92726 2.21206 6.7642 3.564 6.97189C4.40384 7.10169 5.09518 7.80264 5.2232 8.65417Z" fill="white" stroke="#BCC2D6" stroke-width="2.4" stroke-miterlimit="10"/>
<path d="M20.2125 8.65417C20.4224 10.0249 19.2753 11.188 17.9234 10.9803C17.0835 10.8505 16.3922 10.1495 16.2642 9.29801C16.0542 7.92726 17.2013 6.7642 18.5533 6.97189C19.3931 7.10169 20.0844 7.80264 20.2125 8.65417Z" fill="white" stroke="#BCC2D6" stroke-width="2.4" stroke-miterlimit="10"/>
<path d="M8.02447 17.8651C8.23443 19.2359 7.08733 20.3989 5.73539 20.1912C4.89555 20.0614 4.20422 19.3605 4.07619 18.5089C3.86623 17.1382 5.01333 15.9751 6.36527 16.1828C7.20511 16.3126 7.89645 17.0136 8.02447 17.8651Z" fill="white" stroke="#BCC2D6" stroke-width="2.4" stroke-miterlimit="10"/>
<path d="M17.6773 17.8651C17.8873 19.2359 16.7402 20.3989 15.3882 20.1912C14.5484 20.0614 13.8571 19.3605 13.729 18.5089C13.5191 17.1382 14.6662 15.9751 16.0181 16.1828C16.8579 16.3126 17.5493 17.0136 17.6773 17.8651Z" fill="white" stroke="#BCC2D6" stroke-width="2.4" stroke-miterlimit="10"/>
</svg>
