<svg width="16" height="18" viewBox="0 0 16 18" fill="none" xmlns="http://www.w3.org/2000/svg">
<path d="M13.1429 18H2.85714C1.28 18 0 16.74 0 15.1875V13.5C0 12.8812 0.514286 12.375 1.14286 12.375C2.49143 12.375 3.42857 11.6325 3.42857 10.9687V10.125C3.42857 9.50625 3.94286 9 4.57143 9H11.4286C12.0571 9 12.5714 9.50625 12.5714 10.125V10.9687C12.5714 11.6325 13.5086 12.375 14.8571 12.375C15.4857 12.375 16 12.8812 16 13.5V15.1875C16 16.74 14.72 18 13.1429 18Z" fill="#BCC2D6"/>
<path d="M5.5 5.85106V5.35106H5H4C3.79698 5.35106 3.5 5.12493 3.5 4.68085V1.17021C3.5 0.726132 3.79698 0.5 4 0.5H12C12.203 0.5 12.5 0.726132 12.5 1.17021V4.68085C12.5 5.12493 12.203 5.35106 12 5.35106H11H10.5V5.85106V9.82979C10.5 10.2739 10.203 10.5 10 10.5H6C5.79698 10.5 5.5 10.2739 5.5 9.82979V5.85106Z" fill="#BCC2D6" stroke="#BCC2D6"/>
</svg>
