<svg width="16" height="20" viewBox="0 0 16 20" fill="none" xmlns="http://www.w3.org/2000/svg">
<path d="M0.51 2.00031V2C0.51 1.17287 1.1794 0.5 2 0.5H8.5V1.5V7V7.5H9H14.5H15.5V18C15.5 18.8239 14.8239 19.5 14 19.5H1.99C1.16945 19.5 0.500085 18.8272 0.5 18.0002C0.5 18.0001 0.5 18.0001 0.5 18L0.51 2.00031ZM9.35355 1.14645L8.70711 0.5H9.79289L15.5 6.20711V7.29289L14.8536 6.64645L9.35355 1.14645ZM12 16.5H12.5V16V14V13.5H12H4H3.5V14V16V16.5H4H12ZM12 12.5H12.5V12V10V9.5H12H4H3.5V10V12V12.5H4H12Z" fill="#BCC2D6" stroke="#BCC2D6"/>
</svg>
