<svg width="125" height="125" viewBox="0 0 125 125" fill="none" xmlns="http://www.w3.org/2000/svg">
<path d="M98.8086 73.2861C84.7113 73.2861 73.2852 84.7145 73.2852 98.8096C73.2852 112.905 84.7135 124.333 98.8086 124.333C112.904 124.333 124.332 112.905 124.332 98.8096C124.332 84.7145 112.904 73.2861 98.8086 73.2861ZM113.137 92.7303L93.5775 110.957L84.3907 101.77C83.0217 100.401 83.0217 98.1841 84.3907 96.8173C85.7575 95.4483 87.9768 95.4483 89.3436 96.8173L93.7489 101.22L108.36 87.6038C109.776 86.286 111.993 86.3639 113.313 87.7775C114.631 89.1932 114.553 91.4103 113.137 92.7281V92.7303Z" fill="#4F5A7E"/>
<path d="M25.8574 0.5C11.7623 0.5 0.333984 11.9283 0.333984 26.0235C0.333984 40.1186 11.7623 51.5469 25.8574 51.5469C39.9525 51.5469 51.3809 40.1186 51.3809 26.0235C51.3809 11.9283 39.9548 0.5 25.8574 0.5ZM26.0444 7.99276C30.4586 7.99276 34.038 11.5722 34.038 15.9864C34.038 20.4005 30.4586 23.98 26.0444 23.98C21.6302 23.98 18.0508 20.4005 18.0508 15.9864C18.0508 11.5722 21.6302 7.99276 26.0444 7.99276ZM37.012 38.5848C37.012 41.6055 34.5634 44.0542 31.5427 44.0542H20.1744C17.1537 44.0542 14.7051 41.6055 14.7051 38.5848C14.7051 32.7594 18.9635 27.5572 24.7645 27.0051C31.4158 26.3707 37.012 31.584 37.012 38.1062V38.5848Z" fill="#4F5A7E"/>
<path d="M91.612 21.9854H56.9441V29.0129H91.612C93.1057 29.0129 94.3233 30.2283 94.3233 31.7242V57.2454C94.3233 58.7413 93.1079 59.9567 91.612 59.9567H29.8713C24.5022 59.9567 20.1348 64.3241 20.1348 69.6933V94.1104C20.1348 99.4795 24.5022 103.847 29.8713 103.847H48.7657V112.662L69.7949 100.27L48.7657 87.8776V96.8195H29.8713C28.3777 96.8195 27.1601 95.604 27.1601 94.1082V69.691C27.1601 68.1974 28.3755 66.9798 29.8713 66.9798H91.612C96.9811 66.9798 101.349 62.6101 101.349 57.241V31.7197C101.349 26.3506 96.9811 21.9832 91.612 21.9832V21.9854Z" fill="#4C9AED"/>
</svg>
