<svg width="14" height="18" viewBox="0 0 14 18" fill="none" xmlns="http://www.w3.org/2000/svg">
<path d="M10.2929 1.5L10.1464 1.35355L9.43645 0.643553M10.2929 1.5L9.43645 0.643553M10.2929 1.5H10.5M10.2929 1.5H10.5M9.43645 0.643553C9.34914 0.556251 9.21589 0.5 9.09 0.5H4.91C4.78411 0.5 4.65086 0.556251 4.56355 0.643553L4.21 0.29M9.43645 0.643553L4.21 0.29M4.21 0.29L4.56355 0.643553L3.85355 1.35355L3.70711 1.5H3.5H1C0.726142 1.5 0.5 1.72614 0.5 2C0.5 2.27386 0.726142 2.5 1 2.5H13C13.2739 2.5 13.5 2.27386 13.5 2C13.5 1.72614 13.2739 1.5 13 1.5H10.5M4.21 0.29L10.5 1.5M3 17.5C2.17614 17.5 1.5 16.8239 1.5 16V6C1.5 5.17614 2.17614 4.5 3 4.5H11C11.8239 4.5 12.5 5.17614 12.5 6V16C12.5 16.8239 11.8239 17.5 11 17.5H3Z" fill="#BCC2D6" stroke="#BCC2D6"/>
</svg>
