<svg width="21" height="14" viewBox="0 0 21 14" fill="none" xmlns="http://www.w3.org/2000/svg">
<path d="M11 4H1C0.45 4 0 4.45 0 5C0 5.55 0.45 6 1 6H11C11.55 6 12 5.55 12 5C12 4.45 11.55 4 11 4ZM11 0H1C0.45 0 0 0.45 0 1C0 1.55 0.45 2 1 2H11C11.55 2 12 1.55 12 1C12 0.45 11.55 0 11 0ZM1 10H7C7.55 10 8 9.55 8 9C8 8.45 7.55 8 7 8H1C0.45 8 0 8.45 0 9C0 9.55 0.45 10 1 10ZM20.21 6.21L20.3 6.3C20.69 6.69 20.69 7.32 20.3 7.71L14.72 13.3C14.33 13.69 13.7 13.69 13.31 13.3L10.22 10.21C9.83 9.82 9.83 9.19 10.22 8.8L10.31 8.71C10.7 8.32 11.33 8.32 11.72 8.71L14.02 11.01L18.8 6.22C19.18 5.82 19.82 5.82 20.21 6.21Z" fill="#BCC2D6"/>
</svg>
