<svg width="24" height="24" viewBox="0 0 24 24" fill="none" xmlns="http://www.w3.org/2000/svg">
<g clip-path="url(#clip0_3302_42285)">
<path d="M3 12C3 11.4461 3.44614 11 4 11C4.55386 11 5 11.4461 5 12C5 12.5539 4.55386 13 4 13C3.44614 13 3 12.5539 3 12ZM3 6C3 5.44614 3.44614 5 4 5C4.55386 5 5 5.44614 5 6C5 6.55386 4.55386 7 4 7C3.44614 7 3 6.55386 3 6ZM3 18C3 17.454 3.44831 17 4 17C4.55169 17 5 17.454 5 18C5 18.5439 4.54386 19 4 19C3.45614 19 3 18.5439 3 18ZM20 18.5H8C7.72614 18.5 7.5 18.2739 7.5 18C7.5 17.7261 7.72614 17.5 8 17.5H20C20.2739 17.5 20.5 17.7261 20.5 18C20.5 18.2739 20.2739 18.5 20 18.5ZM20 12.5H8C7.72614 12.5 7.5 12.2739 7.5 12C7.5 11.7261 7.72614 11.5 8 11.5H20C20.2739 11.5 20.5 11.7261 20.5 12C20.5 12.2739 20.2739 12.5 20 12.5ZM8 6.5C7.72614 6.5 7.5 6.27386 7.5 6C7.5 5.72614 7.72614 5.5 8 5.5H20C20.2739 5.5 20.5 5.72614 20.5 6C20.5 6.27386 20.2739 6.5 20 6.5H8Z" fill="#BCC2D6" stroke="#BCC2D6"/>
</g>
<defs>
<clipPath id="clip0_3302_42285">
<rect width="24" height="24" fill="white"/>
</clipPath>
</defs>
</svg>
