<svg width="22" height="22" viewBox="0 0 22 22" fill="none" xmlns="http://www.w3.org/2000/svg">
<path d="M10.7637 1.26044V11.6449" stroke="#8E97B4" stroke-width="1.6" stroke-miterlimit="10"/>
<path d="M1.95117 8.74243L10.7644 11.6449" stroke="#8E97B4" stroke-width="1.6" stroke-miterlimit="10"/>
<path d="M4.88086 19.8486L10.898 11.4475" stroke="#8E97B4" stroke-width="1.6" stroke-miterlimit="10"/>
<path d="M20.7499 8.43613L11.0098 11.6449" stroke="#8E97B4" stroke-width="1.6" stroke-miterlimit="10"/>
<path d="M16.8992 19.8486L10.877 11.4475" stroke="#8E97B4" stroke-width="1.6" stroke-miterlimit="10"/>
<path d="M10.7643 14.8953C12.5348 14.8953 13.9701 13.44 13.9701 11.6449C13.9701 9.84982 12.5348 8.39459 10.7643 8.39459C8.99385 8.39459 7.55859 9.84982 7.55859 11.6449C7.55859 13.44 8.99385 14.8953 10.7643 14.8953Z" fill="#E4F7FB" stroke="#8E97B4" stroke-width="1.6" stroke-miterlimit="10"/>
<path d="M10.7648 5.31032C11.8678 5.31032 12.7619 4.40139 12.7619 3.28016C12.7619 2.15893 11.8678 1.25 10.7648 1.25C9.66175 1.25 8.76758 2.15893 8.76758 3.28016C8.76758 4.40139 9.66175 5.31032 10.7648 5.31032Z" fill="#E4F7FB" stroke="#8E97B4" stroke-width="1.6" stroke-miterlimit="10"/>
<path d="M5.2232 8.65411C5.43316 10.0249 4.28606 11.1879 2.93412 10.9802C2.09428 10.8504 1.40295 10.1495 1.27492 9.29795C1.06496 7.9272 2.21206 6.76414 3.564 6.97183C4.40384 7.10163 5.09518 7.80258 5.2232 8.65411Z" fill="#E4F7FB" stroke="#8E97B4" stroke-width="1.6" stroke-miterlimit="10"/>
<path d="M20.2115 8.65411C20.4214 10.0249 19.2743 11.1879 17.9224 10.9802C17.0826 10.8504 16.3912 10.1495 16.2632 9.29795C16.0532 7.9272 17.2003 6.76414 18.5523 6.97183C19.3921 7.10163 20.0835 7.80258 20.2115 8.65411Z" fill="#E4F7FB" stroke="#8E97B4" stroke-width="1.6" stroke-miterlimit="10"/>
<path d="M8.02398 17.8652C8.23394 19.2359 7.08684 20.399 5.7349 20.1913C4.89506 20.0615 4.20373 19.3605 4.07571 18.509C3.86575 17.1383 5.01285 15.9752 6.36478 16.1829C7.20463 16.3127 7.89596 17.0136 8.02398 17.8652Z" fill="#E4F7FB" stroke="#8E97B4" stroke-width="1.6" stroke-miterlimit="10"/>
<path d="M17.6783 17.8652C17.8882 19.2359 16.7411 20.399 15.3892 20.1913C14.5494 20.0615 13.858 19.3605 13.73 18.509C13.52 17.1383 14.6671 15.9752 16.0191 16.1829C16.8589 16.3127 17.5503 17.0136 17.6783 17.8652Z" fill="#E4F7FB" stroke="#8E97B4" stroke-width="1.6" stroke-miterlimit="10"/>
</svg>
