<svg width="8" height="8" viewBox="0 0 8 8" fill="none" xmlns="http://www.w3.org/2000/svg">
<path d="M7.67492 0.330755C7.44742 0.103255 7.07992 0.103255 6.85242 0.330755L3.99992 3.17742L1.14742 0.324922C0.919922 0.0974219 0.552422 0.0974219 0.324922 0.324922C0.0974219 0.552422 0.0974219 0.919922 0.324922 1.14742L3.17742 3.99992L0.324922 6.85242C0.0974219 7.07992 0.0974219 7.44742 0.324922 7.67492C0.552422 7.90242 0.919922 7.90242 1.14742 7.67492L3.99992 4.82242L6.85242 7.67492C7.07992 7.90242 7.44742 7.90242 7.67492 7.67492C7.90242 7.44742 7.90242 7.07992 7.67492 6.85242L4.82242 3.99992L7.67492 1.14742C7.89659 0.925755 7.89659 0.552422 7.67492 0.330755Z" fill="#8E97B4"/>
</svg>
