<svg width="32" height="32" viewBox="0 0 32 32" fill="none" xmlns="http://www.w3.org/2000/svg">
<path fill-rule="evenodd" clip-rule="evenodd" d="M16.0288 22.6662C17.4877 22.65 18.6654 21.4624 18.6654 19.9997C18.6654 18.5269 17.4715 17.333 15.9987 17.333C14.5259 17.333 13.332 18.5269 13.332 19.9997C13.332 21.4624 14.5097 22.65 15.9686 22.6662C15.9786 22.6663 15.9887 22.6663 15.9987 22.6663C16.0087 22.6663 16.0188 22.6663 16.0288 22.6662ZM22.6654 10.6663H23.9987C25.4654 10.6663 26.6654 11.8663 26.6654 13.333V26.6663C26.6654 28.133 25.4654 29.333 23.9987 29.333H7.9987C6.53203 29.333 5.33203 28.133 5.33203 26.6663V13.333C5.33203 11.8663 6.53203 10.6663 7.9987 10.6663H19.9987V7.99967C19.9987 5.79967 18.1987 3.99967 15.9987 3.99967C14.172 3.99967 12.5854 5.23967 12.132 6.99967C11.9454 7.71967 11.212 8.14634 10.5054 7.95967C9.78536 7.77301 9.3587 7.05301 9.54536 6.33301C10.3054 3.38634 12.9587 1.33301 15.9987 1.33301C19.6787 1.33301 22.6654 4.31967 22.6654 7.99967V10.6663Z" fill="#D2D7E5"/>
</svg>
