<svg width="18" height="18" viewBox="0 0 18 18" fill="none" xmlns="http://www.w3.org/2000/svg">
<g clip-path="url(#clip0_2720_55886)">
<path d="M6 0.75C5.175 0.75 4.5075 1.425 4.5075 2.25L4.5 13.5C4.5 14.325 5.1675 15 5.9925 15H14.25C15.075 15 15.75 14.325 15.75 13.5V5.8725C15.75 5.475 15.5925 5.0925 15.3075 4.815L11.685 1.1925C11.4075 0.9075 11.025 0.75 10.6275 0.75H6ZM10.5 5.25V1.875L14.625 6H11.25C10.8375 6 10.5 5.6625 10.5 5.25Z" fill="#222222"/>
<path d="M12.75 15.75H4.5C4.0875 15.75 3.75 15.4125 3.75 15V6.75C3.75 6.3375 3.4125 6 3 6C2.5875 6 2.25 6.3375 2.25 6.75V15.75C2.25 16.575 2.925 17.25 3.75 17.25H12.75C13.1625 17.25 13.5 16.9125 13.5 16.5C13.5 16.0875 13.1625 15.75 12.75 15.75Z" fill="#222222"/>
</g>
<defs>
<clipPath id="clip0_2720_55886">
<rect width="18" height="18" fill="white"/>
</clipPath>
</defs>
</svg>
