<svg width="32" height="32" viewBox="0 0 32 32" fill="none" xmlns="http://www.w3.org/2000/svg">
<g clip-path="url(#clip0_2720_57126)">
<path d="M23.9987 10.6663H22.6654V7.99967C22.6654 4.31967 19.6787 1.33301 15.9987 1.33301C12.3187 1.33301 9.33203 4.31967 9.33203 7.99967V10.6663H7.9987C6.53203 10.6663 5.33203 11.8663 5.33203 13.333V26.6663C5.33203 28.133 6.53203 29.333 7.9987 29.333H23.9987C25.4654 29.333 26.6654 28.133 26.6654 26.6663V13.333C26.6654 11.8663 25.4654 10.6663 23.9987 10.6663ZM15.9987 22.6663C14.532 22.6663 13.332 21.4663 13.332 19.9997C13.332 18.533 14.532 17.333 15.9987 17.333C17.4654 17.333 18.6654 18.533 18.6654 19.9997C18.6654 21.4663 17.4654 22.6663 15.9987 22.6663ZM11.9987 10.6663V7.99967C11.9987 5.78634 13.7854 3.99967 15.9987 3.99967C18.212 3.99967 19.9987 5.78634 19.9987 7.99967V10.6663H11.9987Z" fill="#4F5A7E"/>
</g>
<defs>
<clipPath id="clip0_2720_57126">
<rect width="32" height="32" fill="white"/>
</clipPath>
</defs>
</svg>
