<svg width="21" height="15" viewBox="0 0 21 15" fill="none" xmlns="http://www.w3.org/2000/svg">
<path d="M11 4.5H1C0.45 4.5 0 4.95 0 5.5C0 6.05 0.45 6.5 1 6.5H11C11.55 6.5 12 6.05 12 5.5C12 4.95 11.55 4.5 11 4.5ZM11 0.5H1C0.45 0.5 0 0.95 0 1.5C0 2.05 0.45 2.5 1 2.5H11C11.55 2.5 12 2.05 12 1.5C12 0.95 11.55 0.5 11 0.5ZM1 10.5H7C7.55 10.5 8 10.05 8 9.5C8 8.95 7.55 8.5 7 8.5H1C0.45 8.5 0 8.95 0 9.5C0 10.05 0.45 10.5 1 10.5ZM20.21 6.71L20.3 6.8C20.69 7.19 20.69 7.82 20.3 8.21L14.72 13.8C14.33 14.19 13.7 14.19 13.31 13.8L10.22 10.71C9.83 10.32 9.83 9.69 10.22 9.3L10.31 9.21C10.7 8.82 11.33 8.82 11.72 9.21L14.02 11.51L18.8 6.72C19.18 6.32 19.82 6.32 20.21 6.71Z" fill="white"/>
</svg>
