<svg width="123" height="124" viewBox="0 0 123 124" fill="none" xmlns="http://www.w3.org/2000/svg">
<rect x="0.5" y="1" width="122" height="122" rx="7.5" fill="#F4F5F8"/>
<rect x="0.5" y="1" width="122" height="122" rx="7.5" stroke="#E6E8F0"/>
<g clip-path="url(#clip0_2594_46881)">
<path d="M61.4992 66.8C64.1502 66.8 66.2992 64.651 66.2992 62C66.2992 59.349 64.1502 57.2 61.4992 57.2C58.8483 57.2 56.6992 59.349 56.6992 62C56.6992 64.651 58.8483 66.8 61.4992 66.8Z" fill="#D2D7E5"/>
<path d="M73.5 50H68.745L66.885 47.975C66.33 47.36 65.52 47 64.68 47H58.32C57.48 47 56.67 47.36 56.1 47.975L54.255 50H49.5C47.85 50 46.5 51.35 46.5 53V71C46.5 72.65 47.85 74 49.5 74H73.5C75.15 74 76.5 72.65 76.5 71V53C76.5 51.35 75.15 50 73.5 50ZM61.5 69.5C57.36 69.5 54 66.14 54 62C54 57.86 57.36 54.5 61.5 54.5C65.64 54.5 69 57.86 69 62C69 66.14 65.64 69.5 61.5 69.5Z" fill="#D2D7E5"/>
</g>
<defs>
<clipPath id="clip0_2594_46881">
<rect width="36" height="36" fill="white" transform="translate(43.5 44)"/>
</clipPath>
</defs>
</svg>
