<svg width="56" height="56" viewBox="0 0 56 56" fill="none" xmlns="http://www.w3.org/2000/svg">
<rect x="0.5" y="0.5" width="55" height="55" fill="#F4F5F8"/>
<rect x="0.5" y="0.5" width="55" height="55" stroke="#E6E8F0"/>
<g clip-path="url(#clip0_2594_22168)">
<path d="M28.0002 32.7999C30.6512 32.7999 32.8002 30.6509 32.8002 28C32.8002 25.349 30.6512 23.2 28.0002 23.2C25.3492 23.2 23.2002 25.349 23.2002 28C23.2002 30.6509 25.3492 32.7999 28.0002 32.7999Z" fill="#D2D7E5"/>
<path d="M40 16H35.245L33.385 13.975C32.83 13.36 32.02 13 31.18 13H24.82C23.98 13 23.17 13.36 22.6 13.975L20.755 16H16C14.35 16 13 17.35 13 19V37C13 38.65 14.35 40 16 40H40C41.65 40 43 38.65 43 37V19C43 17.35 41.65 16 40 16ZM28 35.5C23.86 35.5 20.5 32.14 20.5 28C20.5 23.86 23.86 20.5 28 20.5C32.14 20.5 35.5 23.86 35.5 28C35.5 32.14 32.14 35.5 28 35.5Z" fill="#D2D7E5"/>
</g>
<defs>
<clipPath id="clip0_2594_22168">
<rect width="36" height="36" fill="white" transform="translate(10 10)"/>
</clipPath>
</defs>
</svg>
