<svg width="72" height="72" viewBox="0 0 72 72" fill="none" xmlns="http://www.w3.org/2000/svg">
<path d="M25.5737 42.5478H16.8213V38.026H24.5291C24.7634 38.026 24.9554 37.839 24.9554 37.6108V35.0152C24.9554 34.787 24.7634 34.6 24.5291 34.6H16.8213V30.4522H25.3817C25.616 30.4522 25.808 30.2652 25.808 30.037V27.4152C25.808 27.187 25.616 27 25.3817 27H13.4263C13.192 27 13 27.187 13 27.4152V45.5848C13 45.813 13.192 46 13.4263 46H25.5737C25.808 46 26 45.813 26 45.5848V42.963C26 42.7348 25.808 42.5478 25.5737 42.5478Z" stroke="#BCC2D6" stroke-width="1.4" stroke-miterlimit="10"/>
<path d="M43.5699 27H28.4301C28.1938 27 28 27.187 28 27.4152V30.037C28 30.2652 28.1938 30.4522 28.4301 30.4522H34.0722V45.5848C34.0722 45.813 34.2659 46 34.5023 46H37.4977C37.7341 46 37.9278 45.813 37.9278 45.5848V30.4522H43.5699C43.8062 30.4522 44 30.2652 44 30.037V27.4152C44 27.187 43.8062 27 43.5699 27Z" stroke="#BCC2D6" stroke-width="1.4" stroke-miterlimit="10"/>
<path d="M59.847 43.1768C59.7513 43.0932 59.6251 43.0574 59.5065 43.0773C58.1331 43.3001 56.7177 43.3837 55.2907 43.328C53.3053 43.2564 51.7138 42.6596 50.5547 41.5496C49.4109 40.4556 48.8294 38.8205 48.8294 36.6801V36.3658C48.8294 34.3528 49.4223 32.7017 50.6044 31.4605C51.5953 30.3585 53.1561 29.7538 55.241 29.6623C56.4805 29.6066 57.8883 29.7219 59.4185 29.9964C59.5409 30.0203 59.6672 29.9845 59.7666 29.901C59.8623 29.8174 59.9197 29.6941 59.9197 29.5628V26.8058C59.9197 26.5949 59.7743 26.4119 59.5715 26.3721C57.9954 26.0658 56.404 25.9465 54.8508 26.022C51.798 26.1573 49.3688 27.1519 47.6282 28.97C45.8837 30.7921 45 33.2468 45 36.2544V36.7398C45 39.8867 45.8761 42.3732 47.6052 44.1276C49.3267 45.8781 51.7827 46.8369 54.9044 46.9722C55.3022 46.992 55.6924 47 56.0788 47C57.3412 47 58.5386 46.9045 59.6442 46.7096C59.8508 46.6738 60 46.4908 60 46.272V43.511C60 43.3837 59.9464 43.2603 59.8508 43.1768H59.847Z" stroke="#BCC2D6" stroke-width="1.4" stroke-miterlimit="10"/>
<circle cx="36" cy="36" r="31.2" stroke="#BCC2D6" stroke-width="1.6"/>
</svg>
