<svg width="72" height="72" viewBox="0 0 72 72" fill="none" xmlns="http://www.w3.org/2000/svg">
<path d="M25.632 59.994L15.3499 61.8839C13.5986 62.196 11.9167 61.017 11.622 59.2657L8.0501 39.0136C7.738 37.2624 8.91706 35.5805 10.6683 35.2857L20.9504 33.3958L25.632 59.994Z" stroke="#BCC2D6" stroke-width="1.6" stroke-linejoin="round"/>
<path d="M14.136 34.6792L18.8349 61.2601" stroke="#BCC2D6" stroke-width="1.6" stroke-linejoin="round"/>
<path d="M56.1314 61.8842L46.0741 60.1091L50.7667 33.523L60.824 35.2982C62.5828 35.6086 63.7498 37.276 63.4394 39.0348L59.868 59.2688C59.5575 61.0276 57.8901 62.1947 56.1314 61.8842Z" stroke="#BCC2D6" stroke-width="1.6" stroke-linejoin="round"/>
<path d="M57.3451 34.6794L52.6462 61.2603" stroke="#BCC2D6" stroke-width="1.6" stroke-linejoin="round"/>
<path d="M14.1533 34.6789C14.3267 30.5522 15.6098 26.7202 17.7252 23.4604" stroke="#BCC2D6" stroke-width="1.6" stroke-linejoin="round"/>
<path d="M57.241 34.6789C57.0677 30.5522 55.7846 26.7202 53.6692 23.4604" stroke="#BCC2D6" stroke-width="1.6" stroke-linejoin="round"/>
<path d="M54.1027 17.4442C51.155 14.0457 47.2884 11.4795 42.8842 10.127C40.5781 9.3988 38.1333 9 35.6018 9C33.0703 9 30.6081 9.3988 28.3194 10.127C23.9326 11.4795 20.0486 14.0457 17.101 17.4442C15.7312 19.0047 15.9739 21.1374 17.205 22.3858C17.8292 23.0274 18.7135 23.4608 19.7712 23.4608C20.8289 23.4608 21.7999 23.01 22.4761 22.2298C24.0713 20.3571 26.0653 18.8486 28.302 17.8083C30.5214 16.7853 33.0009 16.2131 35.5845 16.2131C38.168 16.2131 40.6475 16.7853 42.8669 17.8256C45.121 18.866 47.0976 20.3745 48.6928 22.2298C49.3864 23.01 50.3747 23.4608 51.3978 23.4608C52.4208 23.4608 53.3397 23.0447 53.9639 22.3858C55.195 21.12 55.4378 18.9873 54.068 17.4442H54.1027Z" stroke="#BCC2D6" stroke-width="1.6" stroke-linejoin="round"/>
</svg>
