<svg width="72" height="72" viewBox="0 0 72 72" fill="none" xmlns="http://www.w3.org/2000/svg">
<path d="M50.104 31.4671H12.1958V25.7785C12.1958 15.4244 19.7811 7.14087 31.3275 7.00136C41.6797 6.87598 50.104 15.4244 50.104 25.7778V31.4665V31.4671ZM14.4796 29.1827H47.8202V25.7778C47.8202 16.6837 40.4217 9.25139 31.3275 9.2852C22.2819 9.319 14.4796 16.6837 14.4796 25.7778V29.1827Z" fill="#BCC2D6"/>
<path d="M44.6365 34.5815V35.9539C44.6365 40.2014 41.1173 43.6837 37.3259 43.79C34.9283 43.8576 32.6863 42.4373 31.3581 40.2229C30.0392 42.4373 28.1328 43.8078 25.3831 43.79C21.395 43.7642 18.1689 40.3753 18.1689 36.174V34.5815H20.4534V36.174C20.4534 39.1142 23.0083 41.5455 25.3831 41.5056C27.0984 41.4767 28.7105 40.4362 29.5863 38.7104C29.9225 38.0472 30.6581 37.6152 31.36 37.6041C32.0828 37.5931 32.768 38.0036 33.1214 38.6981C34.007 40.4306 35.6222 41.6137 37.3252 41.5056C39.8672 41.3445 42.3539 38.9114 42.3539 35.9539V34.5815H44.6358H44.6365Z" fill="#BCC2D6"/>
<path d="M58.2449 46.0218L53.5014 43.4853C52.9526 43.1909 52.255 43.3956 51.9551 43.9549L49.7917 48.0038L45.4576 45.7095C45.4601 45.7046 45.4625 45.6973 45.465 45.693C47.0721 42.1621 47.9965 38.2269 47.9965 34.4883H45.712C45.712 40.6766 43.1031 47.1569 39.2336 51.1573C37.6338 48.4224 34.6672 46.5835 31.2789 46.5835C27.8906 46.5835 24.8244 48.4857 23.2468 51.2956C19.3023 47.3149 16.6282 40.7516 16.6282 34.4889H14.3438C14.3438 41.4393 17.5433 49.0622 22.3562 53.5174C22.17 54.2456 22.0704 55.0077 22.0704 55.792C22.0704 60.8691 26.2011 65.0004 31.2789 65.0004C36.3567 65.0004 40.4868 60.8697 40.4868 55.792C40.4868 54.9475 40.3731 54.1319 40.1579 53.3551C41.8014 51.7989 43.2481 49.8728 44.4392 47.7309C44.4417 47.7285 44.4417 47.726 44.4417 47.7236L48.7156 50.0179L46.5694 54.033C46.2738 54.5898 46.4846 55.2819 47.039 55.5793L51.7824 58.1127C51.9496 58.2024 52.8567 58.3659 53.3287 57.6456L58.7132 47.5662C59.0106 47.0119 58.7998 46.3198 58.2461 46.0224L58.2449 46.0218ZM31.2789 62.7148C27.4598 62.7148 24.3549 59.6098 24.3549 55.7907C24.3549 51.9716 27.4598 48.8673 31.2789 48.8673C35.098 48.8673 38.2023 51.9723 38.2023 55.7907C38.2023 59.6092 35.0974 62.7148 31.2789 62.7148ZM51.8512 55.559L49.1218 54.1018L53.432 46.0384L56.1595 47.4956L51.8518 55.559H51.8512Z" fill="#BCC2D6"/>
<path d="M31.278 49.6487C27.8922 49.6487 25.1357 52.4051 25.1357 55.7909C25.1357 59.1767 27.8922 61.9307 31.278 61.9307C34.6638 61.9307 37.4203 59.1767 37.4203 55.7909C37.4203 52.4051 34.6638 49.6487 31.278 49.6487ZM31.278 59.6481C29.1509 59.6481 27.4202 57.9181 27.4202 55.7903C27.4202 53.6626 29.1503 51.9325 31.278 51.9325C33.4057 51.9325 35.1358 53.6632 35.1358 55.7903C35.1358 57.9174 33.4051 59.6481 31.278 59.6481Z" fill="#BCC2D6"/>
</svg>
