<svg width="72" height="72" viewBox="0 0 72 72" fill="none" xmlns="http://www.w3.org/2000/svg">
<path d="M38.59 35.8511C38.1 36.5336 37.295 36.9361 36.4375 36.9361H35.545C34.6875 36.9361 33.8825 36.5336 33.3925 35.8511C32.9025 35.1686 32.0975 34.7661 31.24 34.7661H8V40.3136C8 48.1886 14.615 54.5586 22.77 54.5586H26.6025C28.9825 54.5586 31.0125 52.9311 31.45 50.6736L31.5025 50.3936C31.905 48.3111 33.795 46.7886 36 46.7886C38.205 46.7886 40.095 48.2936 40.4975 50.3936L40.55 50.6736C40.9875 52.9311 43.0175 54.5586 45.3975 54.5586H49.23C57.385 54.5586 64 48.1711 64 40.3136V34.7661H40.7425C39.885 34.7661 39.08 35.1686 38.59 35.8511Z" stroke="#BCC2D6" stroke-width="1.6" stroke-linejoin="round"/>
<path d="M8 34.7658L21.685 19.4358C23.3125 17.6158 26.2 17.5108 27.9675 19.2083" stroke="#BCC2D6" stroke-width="1.6" stroke-linejoin="round"/>
<path d="M64.0003 34.7658L50.3328 19.4358C48.7053 17.6158 45.8178 17.5108 44.0503 19.2083" stroke="#BCC2D6" stroke-width="1.6" stroke-linejoin="round"/>
<path d="M56.9302 34.7661V52.1261" stroke="#BCC2D6" stroke-width="1.6" stroke-linejoin="round"/>
<path d="M15.0703 34.7661V52.1261" stroke="#BCC2D6" stroke-width="1.6" stroke-linejoin="round"/>
</svg>
