<svg width="72" height="72" viewBox="0 0 72 72" fill="none" xmlns="http://www.w3.org/2000/svg">
<path d="M41.3939 11.3079H51.2533C53.1709 11.3079 54.7321 12.8521 54.7321 14.7866V44.7042C54.7321 54.9879 46.4 63.303 36.1164 63.303C25.8327 63.303 17.5176 54.9709 17.5176 44.7042V14.7866C17.5176 12.8521 19.0788 11.3079 20.9964 11.3079H30.8558" stroke="#BCC2D6" stroke-width="1.6" stroke-linejoin="round"/>
<path d="M49.3188 22.3892H22.9309V32.6558H49.3188V22.3892Z" stroke="#BCC2D6" stroke-width="1.6" stroke-linejoin="round"/>
<path d="M54.7322 41.7007V22.3892H62.2498V34.2001C62.2498 38.3407 58.8898 41.7176 54.7322 41.7176V41.7007Z" stroke="#BCC2D6" stroke-width="1.6" stroke-linejoin="round"/>
<path d="M42.0217 9H30.2278V14.4473H42.0217V9Z" stroke="#BCC2D6" stroke-width="1.6" stroke-linejoin="round"/>
<path d="M17.5176 41.7007V22.3892H10V34.2001C10 38.3407 13.36 41.7176 17.5176 41.7176V41.7007Z" stroke="#BCC2D6" stroke-width="1.6" stroke-linejoin="round"/>
</svg>
