<svg width="72" height="72" viewBox="0 0 72 72" fill="none" xmlns="http://www.w3.org/2000/svg">
<path d="M49.2467 10.4927H23.6862C22.6185 10.4927 21.7529 11.3665 21.7529 12.4444V28.7993C21.7529 29.8773 22.6185 30.7511 23.6862 30.7511H49.2467C50.3144 30.7511 51.18 29.8773 51.18 28.7993V12.4444C51.18 11.3665 50.3144 10.4927 49.2467 10.4927Z" stroke="#BCC2D6" stroke-width="1.6" stroke-linecap="round" stroke-linejoin="round"/>
<path d="M22.9036 7.30984H50.0293C50.6643 7.30984 51.18 6.78924 51.18 6.14819V4.60069C41.3703 2.95928 31.5626 2.95928 21.7529 4.60069V6.14819C21.7529 6.78924 22.2686 7.30984 22.9036 7.30984Z" fill="#BCC2D6"/>
<path d="M17.8765 45.0273H15.646C15.7046 46.1645 15.7673 47.3037 15.8341 48.4408H17.8765V45.0273Z" stroke="#BCC2D6" stroke-width="1.6" stroke-linecap="round" stroke-linejoin="round"/>
<path d="M17.8766 49.7886H15.9131C15.9818 50.9257 16.0546 52.0649 16.1315 53.2021H17.8766V49.7886Z" stroke="#BCC2D6" stroke-width="1.6" stroke-linecap="round" stroke-linejoin="round"/>
<path d="M17.8766 12.1504C17.7371 10.066 16.8372 8.62874 15.2963 7.78149C15.2619 7.92032 15.2356 8.06119 15.2195 8.19797C14.8332 21.0292 14.9586 30.8225 15.5814 43.6782H17.8766V12.1504Z" stroke="#BCC2D6" stroke-width="1.6" stroke-linecap="round" stroke-linejoin="round"/>
<path d="M54.7251 12.1504V43.6802H57.354C57.9768 30.8245 58.1022 21.0311 57.7159 8.19994C57.7018 7.99783 57.6735 7.80388 57.6411 7.61401C55.8959 8.43064 54.8747 9.92098 54.7251 12.1504Z" stroke="#BCC2D6" stroke-width="1.6" stroke-linecap="round" stroke-linejoin="round"/>
<path d="M54.7251 48.4408H57.1012C57.1679 47.3037 57.2306 46.1645 57.2892 45.0273H54.7251V48.4408Z" stroke="#BCC2D6" stroke-width="1.6" stroke-linecap="round" stroke-linejoin="round"/>
<path d="M54.7247 61.6012C54.7247 61.6012 54.9027 64.1776 53.7925 67.2624C54.9027 66.5111 55.7156 65.4209 55.9583 63.9347C56.2373 60.805 56.486 57.6753 56.7065 54.5476H54.7247V61.5991V61.6012Z" stroke="#BCC2D6" stroke-width="1.6" stroke-linecap="round" stroke-linejoin="round"/>
<path d="M17.8762 61.6011V54.5496H16.2261C16.4465 57.6772 16.6932 60.8069 16.9743 63.9367C17.1785 65.2616 17.8196 66.2457 18.7033 66.9622C17.7104 64.0102 17.8762 61.6011 17.8762 61.6011Z" stroke="#BCC2D6" stroke-width="1.6" stroke-linecap="round" stroke-linejoin="round"/>
<path d="M54.7252 53.2021H56.802C56.8788 52.0649 56.9516 50.9257 57.0204 49.7886H54.7231V53.2021H54.7252Z" stroke="#BCC2D6" stroke-width="1.6" stroke-linecap="round" stroke-linejoin="round"/>
<path d="M54.7247 43.6802V12.1504C54.8744 9.91895 55.8956 8.43066 57.6407 7.61403C57.2666 5.41732 55.752 4.11072 53.3051 3.61258C42.0799 1.46281 30.8547 1.46281 19.6274 3.61054C17.676 4.03314 15.7408 5.95425 15.2959 7.78144C16.8368 8.62869 17.7367 10.0659 17.8762 12.1504V43.6802H21.8337L21.9328 45.0276H17.8762V48.4411H22.1855L22.2846 49.7886H17.8762V53.2021H22.5374L22.6365 54.5495H17.8762V61.601C17.8762 61.601 17.7104 64.0121 18.7033 66.9622C19.4576 67.5726 20.3878 67.9911 21.3827 68.2545C31.4391 70.5818 41.4955 70.5818 51.5499 68.2545C52.3648 68.036 53.1312 67.7094 53.7925 67.2623C54.9006 64.1754 54.7247 61.601 54.7247 61.601V54.5495H50.2314L50.3305 53.2021H54.7247V49.7886H50.5833L50.6823 48.4411H54.7247V45.0276H50.9351L51.0342 43.6802H54.7247Z" stroke="#BCC2D6" stroke-width="1.6" stroke-linecap="round" stroke-linejoin="round"/>
<path d="M54.7247 43.6802H51.0341L50.9351 45.0276H57.2888C57.311 44.5785 57.3333 44.1293 57.3535 43.6802H54.7247Z" fill="#BCC2D6" stroke="#BCC2D6" stroke-width="1.6" stroke-linecap="round"/>
<path d="M21.9328 45.0276L21.8337 43.6802H15.5811C15.6033 44.1293 15.6235 44.5785 15.6458 45.0276H21.9328Z" fill="#BCC2D6" stroke="#BCC2D6" stroke-width="1.6" stroke-linecap="round"/>
<path d="M50.6826 48.4412L50.5835 49.7886H57.0222C57.0505 49.3394 57.0748 48.8903 57.101 48.4412H50.6826Z" fill="#BCC2D6" stroke="#BCC2D6" stroke-width="1.6" stroke-linecap="round"/>
<path d="M22.2853 49.7886L22.1862 48.4412H15.8345C15.8608 48.8903 15.887 49.3394 15.9133 49.7886H22.2853Z" fill="#BCC2D6" stroke="#BCC2D6" stroke-width="1.6" stroke-linecap="round"/>
<path d="M17.8765 53.2021H16.1313C16.1617 53.6513 16.1961 54.1004 16.2264 54.5496H22.6368L22.5377 53.2021H17.8765Z" fill="#BCC2D6" stroke="#BCC2D6" stroke-width="1.6" stroke-linecap="round"/>
<path d="M50.331 53.2021L50.2319 54.5496H56.709C56.7414 54.1004 56.7737 53.6513 56.8041 53.2021H50.333H50.331Z" fill="#BCC2D6" stroke="#BCC2D6" stroke-width="1.6" stroke-linecap="round"/>
<path d="M41.5428 40.4154C40.0767 39.4681 38.3377 38.9189 36.4691 38.9189C34.6006 38.9189 32.8959 39.4579 31.4399 40.3868" stroke="#BCC2D6" stroke-width="1.6" stroke-linecap="round" stroke-linejoin="round"/>
<path d="M44.481 53.4634C45.3809 52.0058 45.9006 50.2847 45.9006 48.4412C45.9006 46.5977 45.3728 44.8562 44.4648 43.3904" stroke="#BCC2D6" stroke-width="1.6" stroke-linecap="round" stroke-linejoin="round"/>
<path d="M31.4175 56.4807C32.8775 57.4178 34.6105 57.9629 36.4689 57.9629C38.3273 57.9629 40.0947 57.4076 41.5649 56.4521" stroke="#BCC2D6" stroke-width="1.6" stroke-linecap="round" stroke-linejoin="round"/>
<path d="M28.4972 43.3513C27.5731 44.8233 27.0352 46.5688 27.0352 48.4389C27.0352 50.309 27.567 52.0361 28.481 53.502" stroke="#BCC2D6" stroke-width="1.6" stroke-linecap="round" stroke-linejoin="round"/>
<path d="M31.9114 39.7838C31.4666 39.2517 30.8006 38.9143 30.057 38.9143C28.7156 38.9143 27.6284 40.0119 27.6284 41.3661C27.6284 42.1145 27.9626 42.7845 28.4874 43.2359C28.9109 43.5994 29.4593 43.8203 30.057 43.8203C31.3984 43.8203 32.4856 42.7227 32.4856 41.3685C32.4856 40.7651 32.2691 40.2139 31.909 39.7862L31.9114 39.7838Z" fill="#BCC2D6"/>
<path d="M43.5018 38.9167C42.7417 38.9167 42.064 39.2683 41.6192 39.8195C41.278 40.2424 41.0732 40.7817 41.0732 41.3685C41.0732 42.7227 42.1604 43.8203 43.5018 43.8203C44.076 43.8203 44.6031 43.6184 45.0173 43.281C45.5727 42.832 45.9304 42.143 45.9304 41.3661C45.9304 40.0119 44.8432 38.9143 43.5018 38.9143V38.9167Z" fill="#BCC2D6"/>
<path d="M30.1862 52.9875C29.5793 52.9875 29.0242 53.2155 28.5985 53.5883C28.0857 54.0371 27.7588 54.6997 27.7588 55.4406C27.7588 56.7941 28.8455 57.8912 30.1862 57.8912C30.9153 57.8912 31.5669 57.5659 32.0138 57.0506C32.3878 56.6184 32.6159 56.058 32.6159 55.4382C32.6159 54.0846 31.5292 52.9875 30.1885 52.9875H30.1862Z" fill="#BCC2D6"/>
<path d="M45.0385 53.5411C44.6196 53.1966 44.0854 52.9875 43.5018 52.9875C42.1604 52.9875 41.0732 54.0852 41.0732 55.4394C41.0732 56.0405 41.2874 56.5916 41.6451 57.0169C42.0899 57.5515 42.7582 57.8912 43.5018 57.8912C44.8432 57.8912 45.9304 56.7936 45.9304 55.4394C45.9304 54.6744 45.5821 53.9901 45.0385 53.5411Z" fill="#BCC2D6"/>
<path d="M28.7272 16.9295L29.3096 15.8006C29.2793 15.7965 29.249 15.7944 29.2166 15.7944H26.6504C26.3289 15.7944 26.0519 15.9925 25.9346 16.2742L27.1236 16.9275H28.7252L28.7272 16.9295Z" fill="#BCC2D6"/>
<path d="M28.8203 19.1061L29.5665 19.8594L29.9649 19.4572V16.4949C29.9649 16.1744 29.7748 15.8988 29.5018 15.7783L28.8203 17.0992V19.1081V19.1061Z" fill="#BCC2D6"/>
<path d="M26.9927 20.9352L26.2465 20.1819L25.8481 20.5841V23.5464C25.8481 23.5974 25.8542 23.6464 25.8623 23.6934L26.9947 23.0707V20.9332L26.9927 20.9352Z" fill="#BCC2D6"/>
<path d="M27.2353 23.1953L25.937 23.9099C26.0664 24.1589 26.3273 24.3304 26.6246 24.3304H29.1907C29.2089 24.3304 29.2271 24.3304 29.2453 24.3284L28.6609 23.1974H27.2353V23.1953Z" fill="#BCC2D6"/>
<path d="M29.5665 20.1799L28.8203 20.9333V23.0177L29.4715 24.2753C29.7606 24.161 29.9669 23.8772 29.9669 23.5444V20.5821L29.5685 20.1799H29.5665Z" fill="#BCC2D6"/>
<path d="M26.2446 19.8591L26.9908 19.1057V17.0458L25.8483 16.417C25.8463 16.4415 25.8442 16.468 25.8442 16.4946V19.4569L26.2426 19.8591H26.2446Z" fill="#BCC2D6"/>
<path d="M29.4093 20.0209L28.8208 19.4268H26.9928L26.4043 20.0209L26.9928 20.6129H28.8208L29.4093 20.0209Z" fill="#BCC2D6"/>
<path d="M34.4343 16.9295L35.0166 15.8006C34.9863 15.7965 34.956 15.7944 34.9236 15.7944H32.3575C32.0359 15.7944 31.7589 15.9925 31.6416 16.2742L32.8307 16.9275H34.4322L34.4343 16.9295Z" fill="#BCC2D6"/>
<path d="M34.5273 19.1061L35.2735 19.8594L35.6719 19.4572V16.4949C35.6719 16.1744 35.4818 15.8988 35.2088 15.7783L34.5273 17.0992V19.1081V19.1061Z" fill="#BCC2D6"/>
<path d="M32.6993 20.9352L31.9531 20.1819L31.5547 20.5841V23.5464C31.5547 23.5974 31.5608 23.6464 31.5688 23.6934L32.7013 23.0707V20.9332L32.6993 20.9352Z" fill="#BCC2D6"/>
<path d="M32.9413 23.1953L31.6431 23.9099C31.7725 24.1589 32.0334 24.3304 32.3306 24.3304H34.8968C34.915 24.3304 34.9332 24.3304 34.9514 24.3284L34.367 23.1974H32.9413V23.1953Z" fill="#BCC2D6"/>
<path d="M35.2755 20.1799L34.5293 20.9333V23.0177L35.1804 24.2753C35.4696 24.161 35.6759 23.8772 35.6759 23.5444V20.5821L35.2775 20.1799H35.2755Z" fill="#BCC2D6"/>
<path d="M31.9531 19.8591L32.6993 19.1057V17.0458L31.5568 16.417C31.5548 16.4415 31.5527 16.468 31.5527 16.4946V19.4569L31.9511 19.8591H31.9531Z" fill="#BCC2D6"/>
<path d="M35.1153 20.0209L34.5269 19.4268H32.6988L32.1104 20.0209L32.6988 20.6129H34.5269L35.1153 20.0209Z" fill="#BCC2D6"/>
<path d="M40.1408 16.9295L40.7232 15.8006C40.6929 15.7965 40.6625 15.7944 40.6302 15.7944H38.064C37.7425 15.7944 37.4654 15.9925 37.3481 16.2742L38.5372 16.9275H40.1388L40.1408 16.9295Z" fill="#BCC2D6"/>
<path d="M40.2358 19.1061L40.982 19.8594L41.3804 19.4572V16.4949C41.3804 16.1744 41.1903 15.8988 40.9173 15.7783L40.2358 17.0992V19.1081V19.1061Z" fill="#BCC2D6"/>
<path d="M38.4053 20.9352L37.6591 20.1819L37.2607 20.5841V23.5464C37.2607 23.5974 37.2668 23.6464 37.2749 23.6934L38.4073 23.0707V20.9332L38.4053 20.9352Z" fill="#BCC2D6"/>
<path d="M38.6483 23.1953L37.3501 23.9099C37.4795 24.1589 37.7404 24.3304 38.0376 24.3304H40.6038C40.622 24.3304 40.6402 24.3304 40.6584 24.3284L40.074 23.1974H38.6483V23.1953Z" fill="#BCC2D6"/>
<path d="M40.982 20.1799L40.2358 20.9333V23.0177L40.887 24.2753C41.1762 24.161 41.3824 23.8772 41.3824 23.5444V20.5821L40.9841 20.1799H40.982Z" fill="#BCC2D6"/>
<path d="M37.6592 19.8591L38.4054 19.1057V17.0458L37.2628 16.417C37.2608 16.4415 37.2588 16.468 37.2588 16.4946V19.4569L37.6572 19.8591H37.6592Z" fill="#BCC2D6"/>
<path d="M40.8218 20.0209L40.2354 19.4268H38.4053L37.8188 20.0209L38.4053 20.6129H40.2354L40.8218 20.0209Z" fill="#BCC2D6"/>
<path d="M45.8493 16.9295L46.4317 15.8006C46.4014 15.7965 46.371 15.7944 46.3387 15.7944H43.7725C43.451 15.7944 43.1739 15.9925 43.0566 16.2742L44.2457 16.9275H45.8473L45.8493 16.9295Z" fill="#BCC2D6"/>
<path d="M45.9424 19.1061L46.6886 19.8594L47.0869 19.4572V16.4949C47.0869 16.1744 46.8969 15.8988 46.6239 15.7783L45.9424 17.0992V19.1081V19.1061Z" fill="#BCC2D6"/>
<path d="M44.1143 20.9352L43.3681 20.1819L42.9697 20.5841V23.5464C42.9697 23.5974 42.9758 23.6464 42.9839 23.6934L44.1163 23.0707V20.9332L44.1143 20.9352Z" fill="#BCC2D6"/>
<path d="M44.3549 23.1953L43.0566 23.9099C43.1861 24.1589 43.4469 24.3304 43.7442 24.3304H46.3104C46.3286 24.3304 46.3468 24.3304 46.365 24.3284L45.7805 23.1974H44.3549V23.1953Z" fill="#BCC2D6"/>
<path d="M46.6886 20.1799L45.9424 20.9333V23.0177L46.5935 24.2753C46.8827 24.161 47.089 23.8772 47.089 23.5444V20.5821L46.6906 20.1799H46.6886Z" fill="#BCC2D6"/>
<path d="M43.3657 19.8591L44.1119 19.1057V17.0458L42.9694 16.417C42.9674 16.4415 42.9653 16.468 42.9653 16.4946V19.4569L43.3637 19.8591H43.3657Z" fill="#BCC2D6"/>
<path d="M46.5309 20.0209L45.9424 19.4268H44.1143L43.5259 20.0209L44.1143 20.6129H45.9424L46.5309 20.0209Z" fill="#BCC2D6"/>
</svg>
