<svg width="72" height="72" viewBox="0 0 72 72" fill="none" xmlns="http://www.w3.org/2000/svg">
<path d="M51.5083 27.8362C61.704 19.5999 65.5939 25.4589 64.9277 32.7388C64.1791 40.9245 59.6439 46.4941 52.8014 47.288" stroke="#BCC2D6" stroke-width="1.6" stroke-linecap="round" stroke-linejoin="round"/>
<path d="M19.1986 47.2884C12.3557 46.4941 7.82095 40.9245 7.07233 32.7388C6.40647 25.4589 10.296 19.5999 20.4917 27.8362" stroke="#BCC2D6" stroke-width="1.6" stroke-linecap="round" stroke-linejoin="round"/>
<path d="M55.0701 38.8706C55.0701 48.6948 46.526 56.6588 35.9865 56.6588C25.447 56.6588 16.9028 48.6948 16.9028 38.8706C16.9028 29.0464 27.8075 16 35.9865 16C44.1655 16 55.0701 29.0464 55.0701 38.8706Z" stroke="#BCC2D6" stroke-width="1.6" stroke-linecap="round" stroke-linejoin="round"/>
<path d="M47.0127 25.0728C47.6014 25.7776 48.1542 26.5041 48.6683 27.2441" stroke="#BCC2D6" stroke-width="1.6" stroke-linecap="round" stroke-linejoin="round"/>
<path d="M51.0017 31.2361C52.287 33.9175 53.0086 36.5835 53.0086 38.8706C53.0086 40.7191 52.6619 42.4939 52.0248 44.1428" stroke="#BCC2D6" stroke-width="1.6" stroke-linecap="round" stroke-linejoin="round"/>
<path d="M49.761 48.1003C46.6639 52.0344 41.643 54.5968 35.9866 54.5968C30.3302 54.5968 25.319 52.0393 22.2212 48.1116" stroke="#BCC2D6" stroke-width="1.6" stroke-linecap="round" stroke-linejoin="round"/>
<path d="M19.9536 44.156C19.3136 42.5033 18.9646 40.7237 18.9646 38.8707C18.9646 36.5788 19.6889 33.9067 20.9794 31.2197" stroke="#BCC2D6" stroke-width="1.6" stroke-linecap="round" stroke-linejoin="round"/>
<path d="M23.3147 27.2299C23.8259 26.4947 24.3756 25.7731 24.9602 25.0728" stroke="#BCC2D6" stroke-width="1.6" stroke-linecap="round" stroke-linejoin="round"/>
<path d="M30.5337 22.5917C32.7282 20.8671 34.6955 20.0657 35.9864 20.0657C37.2773 20.0657 39.2445 20.8671 41.4391 22.5917" stroke="#BCC2D6" stroke-width="1.6" stroke-linecap="round" stroke-linejoin="round"/>
<path d="M50.8907 46.1207L49.1924 45.0923" stroke="#BCC2D6" stroke-width="1.6" stroke-linecap="round" stroke-linejoin="round"/>
<path d="M39.3911 42.2729C41.27 40.394 41.27 37.3477 39.3911 35.4688C37.5122 33.59 34.466 33.59 32.5871 35.4688C30.7082 37.3477 30.7082 40.394 32.5871 42.2729C34.466 44.1517 37.5122 44.1517 39.3911 42.2729Z" stroke="#BCC2D6" stroke-width="1.6" stroke-linecap="round" stroke-linejoin="round"/>
<path d="M49.7609 29.3022L48.2356 30.5733" stroke="#BCC2D6" stroke-width="1.6" stroke-linecap="round" stroke-linejoin="round"/>
<path d="M21.1091 46.1207L22.8075 45.0923" stroke="#BCC2D6" stroke-width="1.6" stroke-linecap="round" stroke-linejoin="round"/>
<path d="M22.2395 29.3022L23.7645 30.5733" stroke="#BCC2D6" stroke-width="1.6" stroke-linecap="round" stroke-linejoin="round"/>
</svg>
