<svg width="72" height="72" viewBox="0 0 72 72" fill="none" xmlns="http://www.w3.org/2000/svg">
<g clip-path="url(#clip0_35_1027)">
<path d="M8.84839 50.9092V54.8122C8.84839 55.8643 9.69687 56.7298 10.766 56.7298H21.1344C22.3732 56.7298 23.5951 56.5092 24.749 56.068C27.0738 55.1855 29.6532 55.1855 31.9951 56.068C33.149 56.5092 34.3708 56.7298 35.6096 56.7298H61.2338C62.286 56.7298 63.1514 55.8813 63.1514 54.8122V50.9092H8.84839Z" stroke="#BCC2D6" stroke-width="1.6" stroke-linejoin="round"/>
<path d="M33.9126 18.582L34.0144 31.3432C39.7841 35.5517 46.4702 38.3517 53.5126 39.5226C59.0787 40.456 63.1514 45.2584 63.1514 50.9093H8.84839V19.4305H26.6666" stroke="#BCC2D6" stroke-width="1.6" stroke-linejoin="round"/>
<path d="M44.6377 50.4168C44.6377 45.9878 46.1819 41.932 48.7613 38.7417" stroke="#BCC2D6" stroke-width="1.6" stroke-linejoin="round"/>
<path d="M45.0619 43.6632C39.6316 41.6098 34.4389 39.0644 29.6534 35.4668L26.6667 33.2268V18.582C26.6667 16.5117 28.2958 14.8486 30.2983 14.8486C32.3007 14.8486 33.9298 16.5286 33.9298 18.582" stroke="#BCC2D6" stroke-width="1.6" stroke-linejoin="round"/>
</g>
<defs>
<clipPath id="clip0_35_1027">
<rect width="56" height="43.5612" fill="white" transform="translate(8 14)"/>
</clipPath>
</defs>
</svg>
