<svg width="72" height="72" viewBox="0 0 72 72" fill="none" xmlns="http://www.w3.org/2000/svg">
<path d="M18.9511 49.0984L10 35.3411L16.397 14.4522L27.373 10.6897" stroke="#BCC2D6" stroke-width="1.6" stroke-linecap="round" stroke-linejoin="round"/>
<path d="M25.8641 44.1556L19.0305 33.6503L22.2233 24.1084" stroke="#BCC2D6" stroke-width="1.6" stroke-linecap="round" stroke-linejoin="round"/>
<path d="M27.3731 10.6897L38.4984 27.7778V64.0001H18.9512V49.0984" stroke="#BCC2D6" stroke-width="1.6" stroke-linecap="round" stroke-linejoin="round"/>
<path d="M18.9512 49.0983L27.4429 43.0276" stroke="#BCC2D6" stroke-width="1.6" stroke-linecap="round" stroke-linejoin="round"/>
<path d="M52.4812 49.0984L61.4323 35.3411L55.0353 14.4522L44.0593 10.6897" stroke="#BCC2D6" stroke-width="1.6" stroke-linecap="round" stroke-linejoin="round"/>
<path d="M49.209 24.1084L52.4018 33.6503L45.5674 44.1556" stroke="#BCC2D6" stroke-width="1.6" stroke-linecap="round" stroke-linejoin="round"/>
<path d="M38.4983 64.0001H52.4812V49.0984" stroke="#BCC2D6" stroke-width="1.6" stroke-linecap="round" stroke-linejoin="round"/>
<path d="M44.0593 10.6897L35.7161 23.504" stroke="#BCC2D6" stroke-width="1.6" stroke-linecap="round" stroke-linejoin="round"/>
<path d="M52.4812 49.0983L43.9895 43.0276" stroke="#BCC2D6" stroke-width="1.6" stroke-linecap="round" stroke-linejoin="round"/>
<path d="M38.4982 27.7777L46.3553 15.3165L42.7193 8H28.7128L25.072 15.3165L34.6935 30.5704" stroke="#BCC2D6" stroke-width="1.6" stroke-linecap="round" stroke-linejoin="round"/>
<path d="M28.9207 13.0669H42.5116" stroke="#BCC2D6" stroke-width="1.6" stroke-linecap="round" stroke-linejoin="round"/>
<path d="M34.6936 37.0023C35.2315 37.0023 35.6676 36.5662 35.6676 36.0284C35.6676 35.4905 35.2315 35.0544 34.6936 35.0544C34.1558 35.0544 33.7197 35.4905 33.7197 36.0284C33.7197 36.5662 34.1558 37.0023 34.6936 37.0023Z" fill="#BCC2D6"/>
<path d="M34.6936 42.4935C35.2315 42.4935 35.6676 42.0574 35.6676 41.5196C35.6676 40.9817 35.2315 40.5457 34.6936 40.5457C34.1558 40.5457 33.7197 40.9817 33.7197 41.5196C33.7197 42.0574 34.1558 42.4935 34.6936 42.4935Z" fill="#BCC2D6"/>
<path d="M34.6936 47.9847C35.2315 47.9847 35.6676 47.5487 35.6676 47.0108C35.6676 46.4729 35.2315 46.0369 34.6936 46.0369C34.1558 46.0369 33.7197 46.4729 33.7197 47.0108C33.7197 47.5487 34.1558 47.9847 34.6936 47.9847Z" fill="#BCC2D6"/>
<path d="M34.6936 53.4761C35.2315 53.4761 35.6676 53.0401 35.6676 52.5022C35.6676 51.9644 35.2315 51.5283 34.6936 51.5283C34.1558 51.5283 33.7197 51.9644 33.7197 52.5022C33.7197 53.0401 34.1558 53.4761 34.6936 53.4761Z" fill="#BCC2D6"/>
<path d="M34.6936 58.9674C35.2315 58.9674 35.6676 58.5313 35.6676 57.9934C35.6676 57.4556 35.2315 57.0195 34.6936 57.0195C34.1558 57.0195 33.7197 57.4556 33.7197 57.9934C33.7197 58.5313 34.1558 58.9674 34.6936 58.9674Z" fill="#BCC2D6"/>
</svg>
