<svg width="72" height="72" viewBox="0 0 72 72" fill="none" xmlns="http://www.w3.org/2000/svg">
<g clip-path="url(#clip0_35_1026)">
<path d="M29.9927 39.24L29.3478 34.1321L29.1272 32.4521" stroke="#BCC2D6" stroke-width="1.6" stroke-linecap="round" stroke-linejoin="round"/>
<path d="M22.8994 22.1345L22.4921 18.9272C22.3224 17.5866 21.1006 16.6363 19.76 16.806C18.4194 16.9757 17.4691 18.1975 17.6388 19.5381L18.046 22.7454" stroke="#BCC2D6" stroke-width="1.6" stroke-linecap="round" stroke-linejoin="round"/>
<path d="M19.2509 32.1974L18.046 22.7453C17.8763 21.4047 16.6545 20.4544 15.3139 20.6241C13.9733 20.7938 13.023 22.0156 13.1927 23.3562L13.7018 27.3611" stroke="#BCC2D6" stroke-width="1.6" stroke-linecap="round" stroke-linejoin="round"/>
<path d="M14.6012 34.4206L13.7018 27.3782C13.5321 26.0376 12.3103 25.0873 10.9697 25.257C9.62908 25.4267 8.67877 26.6485 8.84847 27.9891L11.0545 45.4L11.2412 46.8424C11.3939 48.0982 11.9539 49.2352 12.8533 50.1176C13.8036 51.0509 14.3297 52.3406 14.4824 53.6642L15.806 64.1006L30.5018 62.1491L29.246 52.2897C28.9745 50.1855 29.7382 48.0642 31.2654 46.6048C33.166 44.7891 34.0994 42.1758 33.777 39.5624L33.5224 37.6109C33.3697 36.3891 32.7248 35.2691 31.7576 34.5055L29.1103 32.4521L28.6182 28.5661L27.7188 21.5236C27.5491 20.183 26.3273 19.2327 24.9867 19.4024C23.646 19.5721 22.6957 20.7939 22.8654 22.1345L24.0703 31.5867" stroke="#BCC2D6" stroke-width="1.6" stroke-linecap="round" stroke-linejoin="round"/>
<path d="M14.8389 54.9879L20.8631 54.1733L21.508 58.8061L15.3819 59.6546" stroke="#BCC2D6" stroke-width="1.6" stroke-linecap="round" stroke-linejoin="round"/>
<path d="M42.0073 32.2996L42.6522 27.1747L42.8728 25.5117" stroke="#BCC2D6" stroke-width="1.6" stroke-linecap="round" stroke-linejoin="round"/>
<path d="M49.1006 15.194L49.5079 11.9868C49.6776 10.6462 50.8994 9.69586 52.24 9.86556C53.5806 10.0353 54.5309 11.2571 54.3612 12.5977L53.9539 15.805" stroke="#BCC2D6" stroke-width="1.6" stroke-linecap="round" stroke-linejoin="round"/>
<path d="M52.7493 25.257L53.9541 15.8049C54.1238 14.4643 55.3456 13.514 56.6862 13.6837C58.0268 13.8534 58.9771 15.0752 58.8074 16.4158L58.2984 20.4206" stroke="#BCC2D6" stroke-width="1.6" stroke-linecap="round" stroke-linejoin="round"/>
<path d="M57.3989 27.4631L58.2983 20.4207C58.468 19.0801 59.6898 18.1298 61.0304 18.2995C62.371 18.4691 63.3213 19.691 63.1516 21.0316L60.9455 38.4425L60.7589 39.8849C60.6061 41.1407 60.0461 42.2776 59.1467 43.1601C58.1964 44.0934 57.6704 45.3831 57.5177 46.7067L56.194 57.1431L41.4983 55.1916L42.754 45.3322C43.0255 43.2279 42.2619 41.1067 40.7346 39.6473C38.834 37.8316 37.9007 35.2182 38.2231 32.6049L38.4777 30.6534C38.6304 29.4316 39.2752 28.3116 40.2425 27.5479L42.8898 25.4946L43.3819 21.6085L44.2813 14.5661C44.451 13.2255 45.6728 12.2752 47.0134 12.4449C48.354 12.6146 49.3043 13.8364 49.1346 15.177L47.9298 24.6291" stroke="#BCC2D6" stroke-width="1.6" stroke-linecap="round" stroke-linejoin="round"/>
<path d="M57.1613 48.0473L51.137 47.2158L50.4922 51.8655L56.6182 52.697" stroke="#BCC2D6" stroke-width="1.6" stroke-linecap="round" stroke-linejoin="round"/>
</g>
<defs>
<clipPath id="clip0_35_1026">
<rect width="56" height="55.9491" fill="white" transform="translate(8 9)"/>
</clipPath>
</defs>
</svg>
