<svg width="72" height="72" viewBox="0 0 72 72" fill="none" xmlns="http://www.w3.org/2000/svg">
<path d="M26.3048 46.1129C21.7527 44.6417 18.4641 40.3665 18.4641 35.3298V25.6891C18.4641 15.9272 26.3913 8 36.1532 8C45.9324 8 53.8423 15.9272 53.8423 25.6891V35.3298C53.8423 40.73 50.0691 45.2475 45.0324 46.3898" stroke="#BCC2D6" stroke-width="1.6" stroke-linecap="round" stroke-linejoin="round"/>
<path d="M45.2227 42.4954V44.2608C45.2227 49.5399 40.9475 53.7977 35.6858 53.7977C30.4068 53.7977 26.1489 49.5225 26.1489 44.2608V42.4954C26.1489 37.2163 30.4241 32.9585 35.6858 32.9585C40.9648 32.9585 45.2227 37.2336 45.2227 42.4954Z" stroke="#BCC2D6" stroke-width="1.6" stroke-linecap="round" stroke-linejoin="round"/>
<path d="M16.4463 48.3101L11.9546 52.8017C11.4274 53.3289 11.4274 54.1837 11.9546 54.711L20.2893 63.0456C20.8165 63.5728 21.6713 63.5728 22.1985 63.0456L26.6902 58.554C27.2174 58.0267 27.2174 57.1719 26.6902 56.6447L18.3555 48.3101C17.8283 47.7828 16.9735 47.7828 16.4463 48.3101Z" stroke="#BCC2D6" stroke-width="1.6" stroke-linecap="round" stroke-linejoin="round"/>
<path d="M23.2413 44.6938L19.0354 48.8998L26.1837 56.0481L30.2166 51.998" stroke="#BCC2D6" stroke-width="1.6" stroke-linecap="round" stroke-linejoin="round"/>
<path d="M48.4596 45.0574L52.3193 48.8998L45.171 56.0481L41.467 52.3442" stroke="#BCC2D6" stroke-width="1.6" stroke-linecap="round" stroke-linejoin="round"/>
<path d="M59.395 52.7966L54.9034 48.305C54.3761 47.7777 53.5213 47.7777 52.9941 48.305L44.6595 56.6396C44.1322 57.1668 44.1322 58.0216 44.6595 58.5489L49.1511 63.0405C49.6783 63.5677 50.5331 63.5677 51.0604 63.0405L59.395 54.7059C59.9222 54.1786 59.9222 53.3238 59.395 52.7966Z" stroke="#BCC2D6" stroke-width="1.6" stroke-linecap="round" stroke-linejoin="round"/>
<path d="M22.428 25.3951C22.428 22.8681 24.4704 20.8257 26.9974 20.8257H32.536C33.4188 20.8257 34.1284 21.5353 34.1284 22.418V24.0623C34.1284 27.6452 31.2206 30.5703 27.6205 30.5703C24.7646 30.5703 22.428 28.2509 22.428 25.3778V25.3951Z" stroke="#BCC2D6" stroke-width="1.6" stroke-linecap="round" stroke-linejoin="round"/>
<path d="M49.896 25.3951C49.896 22.8681 47.8536 20.8257 45.3266 20.8257H39.7879C38.9052 20.8257 38.1956 21.5353 38.1956 22.418V24.0623C38.1956 27.6452 41.1034 30.5703 44.7035 30.5703C47.5593 30.5703 49.896 28.2509 49.896 25.3778V25.3951Z" stroke="#BCC2D6" stroke-width="1.6" stroke-linecap="round" stroke-linejoin="round"/>
<circle cx="35.686" cy="38.4797" r="0.865415" fill="#BCC2D6" stroke="#BCC2D6" stroke-width="1.6" stroke-linecap="round" stroke-linejoin="round"/>
<circle cx="35.686" cy="43.3781" r="0.865415" fill="#BCC2D6" stroke="#BCC2D6" stroke-width="1.6" stroke-linecap="round" stroke-linejoin="round"/>
<circle cx="35.686" cy="48.2934" r="0.865415" fill="#BCC2D6" stroke="#BCC2D6" stroke-width="1.6" stroke-linecap="round" stroke-linejoin="round"/>
<circle cx="39.1476" cy="39.9164" r="0.865415" fill="#BCC2D6" stroke="#BCC2D6" stroke-width="1.6" stroke-linecap="round" stroke-linejoin="round"/>
<circle cx="35.686" cy="43.3781" r="0.865415" fill="#BCC2D6" stroke="#BCC2D6" stroke-width="1.6" stroke-linecap="round" stroke-linejoin="round"/>
<circle cx="32.207" cy="46.8576" r="0.865415" fill="#BCC2D6" stroke="#BCC2D6" stroke-width="1.6" stroke-linecap="round" stroke-linejoin="round"/>
<circle cx="39.1476" cy="46.8576" r="0.865415" fill="#BCC2D6" stroke="#BCC2D6" stroke-width="1.6" stroke-linecap="round" stroke-linejoin="round"/>
<circle cx="35.686" cy="43.3781" r="0.865415" fill="#BCC2D6" stroke="#BCC2D6" stroke-width="1.6" stroke-linecap="round" stroke-linejoin="round"/>
<circle cx="32.207" cy="39.9164" r="0.865415" fill="#BCC2D6" stroke="#BCC2D6" stroke-width="1.6" stroke-linecap="round" stroke-linejoin="round"/>
<circle cx="40.5842" cy="43.3781" r="0.865415" fill="#BCC2D6" stroke="#BCC2D6" stroke-width="1.6" stroke-linecap="round" stroke-linejoin="round"/>
<circle cx="35.686" cy="43.3781" r="0.865415" fill="#BCC2D6" stroke="#BCC2D6" stroke-width="1.6" stroke-linecap="round" stroke-linejoin="round"/>
<circle cx="30.7707" cy="43.3781" r="0.865415" fill="#BCC2D6" stroke="#BCC2D6" stroke-width="1.6" stroke-linecap="round" stroke-linejoin="round"/>
</svg>
