<svg width="72" height="72" viewBox="0 0 72 72" fill="none" xmlns="http://www.w3.org/2000/svg">
<path fill-rule="evenodd" clip-rule="evenodd" d="M24.8413 26.5458C24.4418 26.5458 24.1147 26.8729 24.1147 27.2724V65.9918H19.8147V27.2724C19.8147 26.8729 19.4876 26.5458 19.0881 26.5458C18.6887 26.5458 18.3616 26.8729 18.3616 27.2724V66.7173C18.3616 67.1167 18.6887 67.4438 19.0881 67.4438H24.8261C25.2256 67.4438 25.5376 67.1167 25.5376 66.7173V27.2713C25.5516 26.8578 25.2375 26.5447 24.8402 26.5447L24.8413 26.5458Z" fill="#BCC2D6"/>
<path fill-rule="evenodd" clip-rule="evenodd" d="M52.5576 26.5458C52.1581 26.5458 51.831 26.8729 51.831 27.2724V65.9918H47.531V27.2724C47.531 26.8729 47.2039 26.5458 46.8044 26.5458C46.405 26.5458 46.0779 26.8729 46.0779 27.2724V66.7173C46.0779 67.1167 46.405 67.4438 46.8044 67.4438H52.5425C52.9419 67.4438 53.269 67.1167 53.269 66.7173V27.2713C53.269 26.8578 52.9549 26.5447 52.5576 26.5447V26.5458Z" fill="#BCC2D6"/>
<path fill-rule="evenodd" clip-rule="evenodd" d="M36.0292 49.4922C35.8014 49.4922 35.5736 49.6055 35.4311 49.8042L35.2324 50.1021C35.0608 50.344 35.0608 50.6711 35.2324 50.9129L46.2216 67.0981C46.4494 67.4252 46.8898 67.5116 47.2191 67.2827C47.5462 67.0549 47.6326 66.6144 47.4178 66.2852L36.6996 50.4886C36.8421 50.1766 36.7428 49.8052 36.4427 49.6055C36.3142 49.5353 36.1717 49.4922 36.0292 49.4922ZM40.4134 49.4922C40.2709 49.4922 40.1284 49.5353 40.0139 49.6206C39.6868 49.8484 39.6005 50.2889 39.8293 50.6182L46.2205 60.043C46.4483 60.3701 46.8888 60.4565 47.218 60.2276C47.5451 59.9998 47.6315 59.5593 47.4167 59.23L41.0104 49.8052C40.8679 49.6066 40.6401 49.4932 40.4123 49.4932L40.4134 49.4922ZM24.8414 33.6049C24.6989 33.6049 24.5564 33.6481 24.442 33.7334C24.1148 33.9612 24.0285 34.4017 24.2573 34.7309L30.6636 44.1558C30.8914 44.4829 31.3319 44.5692 31.6612 44.3404C31.9883 44.1126 32.0746 43.6721 31.8458 43.3428L25.4395 33.918C25.297 33.7194 25.0692 33.606 24.8414 33.606V33.6049ZM24.8414 26.5444C24.6989 26.5444 24.5564 26.5876 24.442 26.6729C24.1148 26.9007 24.0285 27.3412 24.2573 27.6704L34.9777 43.4724C34.8352 43.7844 34.9345 44.1558 35.2346 44.3555C35.5617 44.5833 36.0173 44.498 36.2321 44.1709L36.4308 43.8729C36.6024 43.6311 36.6024 43.304 36.4308 43.0621L25.4417 26.8769C25.297 26.6438 25.0692 26.5444 24.8414 26.5444Z" fill="#BCC2D6"/>
<path fill-rule="evenodd" clip-rule="evenodd" d="M31.2324 49.4925C31.0046 49.4925 30.7768 49.6058 30.6343 49.8045L24.2281 59.2293C24.0003 59.5564 24.0856 59.999 24.4127 60.2268C24.7398 60.4546 25.1954 60.3693 25.4102 60.0422L31.8165 50.6174C32.0443 50.2903 31.959 49.8347 31.6319 49.6199C31.5164 49.5346 31.3739 49.4914 31.2324 49.4914V49.4925ZM36.029 49.4925C35.8013 49.4925 35.5735 49.6058 35.431 49.8045L24.241 66.2898C24.0132 66.6169 24.0985 67.0595 24.4256 67.2873C24.7527 67.5151 25.2083 67.4298 25.4232 67.1027L36.6131 50.6174C36.8409 50.2903 36.7556 49.8347 36.4285 49.6199C36.3151 49.5346 36.1715 49.4914 36.029 49.4914V49.4925ZM46.8055 33.6052C46.5777 33.6052 46.3499 33.7186 46.2074 33.9172L39.8162 43.3421C39.5884 43.6692 39.6737 44.1118 40.0008 44.3396C40.328 44.5674 40.7706 44.4821 40.9984 44.155L47.4047 34.7302C47.6325 34.4031 47.5472 33.9604 47.206 33.7326C47.0927 33.6474 46.9491 33.6042 46.8066 33.6042L46.8055 33.6052ZM46.8055 26.5447C46.5777 26.5447 46.3499 26.6581 46.2074 26.8567L35.0196 43.3421C34.7918 43.6692 34.8771 44.1118 35.2042 44.3396C35.5314 44.5674 35.9869 44.4821 36.2018 44.155L47.3917 27.6697C47.6195 27.3426 47.5342 26.8999 47.1931 26.6721C47.0916 26.5868 46.9491 26.5437 46.8066 26.5437L46.8055 26.5447Z" fill="#BCC2D6"/>
<path fill-rule="evenodd" clip-rule="evenodd" d="M18.1211 24.0985H25.8229V26.5319H18.1211V24.0985ZM26.1371 22.6605H17.794C17.1819 22.6605 16.6831 23.1592 16.6831 23.7714V26.8601C16.6831 27.4722 17.1819 27.9709 17.794 27.9709H26.1371C26.7492 27.9709 27.248 27.4722 27.248 26.8601V23.7714C27.2458 23.1711 26.747 22.6605 26.1371 22.6605Z" fill="#BCC2D6"/>
<path fill-rule="evenodd" clip-rule="evenodd" d="M45.8372 24.0985H53.5239V26.5319H45.8372V24.0985ZM53.8531 22.6605H45.5101C44.8979 22.6605 44.3992 23.1592 44.3992 23.7714V26.8601C44.3992 27.4722 44.8979 27.9709 45.5101 27.9709H53.8531C54.4653 27.9709 54.964 27.4722 54.964 26.8601V23.7714C54.9619 23.1711 54.4653 22.6605 53.8531 22.6605Z" fill="#BCC2D6"/>
<path fill-rule="evenodd" clip-rule="evenodd" d="M46.8058 26.5457H24.8416C24.4421 26.5457 24.115 26.8728 24.115 27.2722C24.115 27.6717 24.4421 27.9988 24.8416 27.9988H46.822C47.2214 27.9988 47.5485 27.6717 47.5485 27.2722C47.5323 26.8587 47.2052 26.5457 46.8058 26.5457Z" fill="#BCC2D6"/>
<path fill-rule="evenodd" clip-rule="evenodd" d="M29.6812 44.4681H41.9658V49.4936H29.6812V44.4681ZM42.1515 43.0301H29.5095C28.8121 43.0301 28.2432 43.5991 28.2432 44.2965V49.6782C28.2432 50.3756 28.8121 50.9446 29.4955 50.9446H42.1375C42.8349 50.9446 43.4038 50.3756 43.4038 49.6782V44.2965C43.4038 43.5991 42.8349 43.0301 42.1515 43.0301Z" fill="#BCC2D6"/>
<path fill-rule="evenodd" clip-rule="evenodd" d="M24.755 7.19875C23.629 7.19875 22.435 7.72667 21.3241 8.73609C19.8569 10.0607 18.705 12.0677 18.0778 14.3597C18.0778 14.3737 18.0778 14.3888 18.0637 14.4028C18.0637 14.4169 18.0497 14.446 18.0497 14.4611C18.0497 14.4763 18.0357 14.4903 18.0357 14.5043C17.5661 16.2986 17.4667 18.1069 17.7377 19.7284L17.7517 19.8137C17.9234 20.8232 18.2073 22.5181 18.6208 23.6441C18.7633 24.0144 19.1606 24.2131 19.546 24.0706C19.9163 23.928 20.115 23.5156 19.9725 23.1453C19.6022 22.1478 19.3312 20.4701 19.1757 19.5719L19.1617 19.4866C18.9199 18.0626 19.0192 16.4681 19.4327 14.8887C19.4467 14.8304 19.4618 14.7893 19.4758 14.731C20.0308 12.6949 21.0423 10.959 22.2936 9.80595C23.3321 8.86671 24.3998 8.46727 25.2829 8.7091C26.1661 8.95092 26.8905 9.81999 27.3331 11.1565C27.861 12.7791 27.8459 14.8001 27.3191 16.8222C27.305 16.8805 27.2899 16.9215 27.2759 16.9798C26.9779 18.0767 26.0095 20.2823 24.6125 23.059C24.4279 23.4152 24.5834 23.8417 24.9396 24.0274C25.2959 24.212 25.7223 24.0565 25.908 23.7154C26.748 22.0204 28.2421 18.9609 28.6847 17.3523C28.6847 17.3382 28.6847 17.3231 28.6988 17.3091C28.6988 17.2951 28.7128 17.2659 28.7128 17.2508C28.7128 17.2357 28.7268 17.2216 28.7268 17.2076C29.3249 14.9005 29.3249 12.5956 28.7268 10.7171C28.1428 8.89478 27.061 7.6986 25.6813 7.32938C25.3672 7.24085 25.0541 7.19767 24.755 7.19767V7.19875ZM24.741 4.60774C22.991 4.60774 21.1967 5.36237 19.587 6.81334C17.7366 8.47914 16.3137 10.9266 15.558 13.6892C15.558 13.7033 15.544 13.7184 15.544 13.7324C15.5299 13.7616 15.5299 13.7907 15.5299 13.8177C14.975 15.9531 14.8466 18.1317 15.1888 20.1095C15.4598 21.6901 16.0147 23.114 16.8114 24.2379C17.0392 24.565 17.4948 24.6373 17.809 24.4095C18.1361 24.1818 18.2084 23.7262 17.9806 23.412C17.3124 22.4577 16.8276 21.2334 16.6009 19.8677C16.3029 18.0886 16.4163 16.1097 16.928 14.1589C16.928 14.1448 16.928 14.1297 16.9421 14.1297C16.9421 14.1203 16.9467 14.1106 16.9561 14.1006C17.6395 11.5808 18.9199 9.36009 20.5727 7.86594C22.2946 6.31457 24.2023 5.71648 25.9674 6.1861C27.7325 6.65572 29.0853 8.13692 29.7978 10.3425C30.4661 12.4348 30.4812 14.9696 29.8269 17.4894C29.8269 17.5034 29.8269 17.5185 29.8129 17.5185C29.8129 17.5279 29.8082 17.5376 29.7989 17.5477C29.4145 18.9717 28.8445 20.2812 28.1039 21.4623C27.5058 22.4166 26.8235 23.2274 26.0678 23.8827C25.7698 24.1396 25.7407 24.5942 25.9976 24.8921C26.2546 25.1901 26.7091 25.2192 27.0071 24.9623C27.8761 24.2077 28.6437 23.2825 29.3141 22.2147C30.1249 20.9343 30.7381 19.4963 31.1645 17.959C31.1645 17.945 31.1786 17.9299 31.1786 17.9158C31.1926 17.8867 31.1926 17.8575 31.2077 17.8305C31.9343 15.0679 31.9192 12.2501 31.1494 9.90204C30.2804 7.21171 28.5735 5.40339 26.3237 4.8053C25.7979 4.67683 25.27 4.60666 24.7432 4.60666L24.741 4.60774Z" fill="#BCC2D6"/>
<path fill-rule="evenodd" clip-rule="evenodd" d="M46.8918 7.19855C46.5798 7.19855 46.2797 7.24174 45.9957 7.31191C44.616 7.68221 43.5483 8.87839 42.9502 10.6997C42.3381 12.6073 42.3381 14.9414 42.9643 17.2625C43.4047 18.8851 44.901 21.9889 45.7539 23.6979C45.9385 24.0542 46.366 24.1967 46.7223 24.0099C47.0786 23.8382 47.2211 23.3978 47.0494 23.0415C45.6406 20.2238 44.6571 17.9739 44.3591 16.8771C43.8042 14.8118 43.7902 12.7779 44.3299 11.1272C44.7564 9.78848 45.4829 8.92157 46.3801 8.67975C47.2632 8.43792 48.3309 8.83737 49.3846 9.77661C50.665 10.9296 51.6776 12.7088 52.2315 14.774C52.6579 16.3966 52.7594 18.0063 52.5165 19.4562L52.5024 19.5415C52.3448 20.4375 52.076 22.1174 51.7057 23.1149C51.5632 23.4852 51.764 23.8976 52.1321 24.0401C52.5024 24.1686 52.9148 23.9818 53.0573 23.6137C53.4708 22.4877 53.7548 20.796 53.9264 19.7833L53.9404 19.698C54.2255 18.0473 54.1121 16.2239 53.6284 14.4026C53.0012 12.0826 51.8493 10.0616 50.3551 8.7089C49.2118 7.72647 48.0297 7.19855 46.8918 7.19855ZM46.9048 4.60754C46.3768 4.60754 45.8511 4.67771 45.3242 4.82022C43.0755 5.41831 41.3665 7.24066 40.4985 9.91696C39.7287 12.2942 39.7287 15.1411 40.4693 17.9307C40.8828 19.4972 41.5079 20.9352 42.3338 22.2448C43.0021 23.3125 43.7858 24.2377 44.6409 24.9923C44.9388 25.2493 45.3955 25.2201 45.6503 24.9222C45.9051 24.6242 45.8781 24.1675 45.5801 23.9127C44.8255 23.2585 44.1421 22.4315 43.544 21.4923C42.8034 20.3112 42.2345 19.0006 41.8491 17.5777C41.1657 15.0428 41.1808 12.4961 41.8631 10.3747C42.5745 8.1691 43.9283 6.68791 45.6935 6.21829C47.4435 5.74866 49.3662 6.34676 51.0752 7.89812C52.7259 9.39227 54.0074 11.6141 54.6897 14.1327C55.2176 16.0965 55.3309 18.1035 55.0308 19.8977C54.803 21.2634 54.3194 22.4888 53.6511 23.442C53.4233 23.7692 53.4935 24.2118 53.8228 24.4396C54.1499 24.6674 54.5925 24.5972 54.8203 24.2679C55.617 23.1419 56.173 21.719 56.4429 20.1396C56.7841 18.1326 56.6556 15.927 56.0726 13.7624C55.318 10.9728 53.894 8.50917 52.0436 6.82933C50.4501 5.37836 48.671 4.60862 46.9037 4.60862L46.9048 4.60754Z" fill="#BCC2D6"/>
</svg>
